<svg width="626" height="57" viewBox="0 0 626 57" fill="none" xmlns="http://www.w3.org/2000/svg">
<path d="M62.3659 12.1707V47H87V40.561H70.0244V12.1707H62.3659ZM107.532 31.6829H96.2633C96.2959 31.1951 96.3934 30.6423 96.556 30.0244C96.7511 29.4065 97.0601 28.8211 97.4829 28.2683C97.9381 27.7154 98.5235 27.2602 99.2389 26.9024C99.9869 26.5122 100.914 26.3171 102.019 26.3171C103.71 26.3171 104.963 26.7724 105.776 27.6829C106.621 28.5935 107.206 29.9268 107.532 31.6829ZM96.2633 36.0732H114.458C114.589 34.122 114.426 32.252 113.971 30.4634C113.515 28.6748 112.767 27.0813 111.727 25.6829C110.719 24.2846 109.418 23.1789 107.824 22.3659C106.231 21.5203 104.361 21.0976 102.215 21.0976C100.296 21.0976 98.5398 21.439 96.9463 22.122C95.3853 22.8049 94.0357 23.748 92.8975 24.9512C91.7593 26.122 90.8812 27.5203 90.2633 29.1463C89.6455 30.7724 89.3365 32.5285 89.3365 34.4146C89.3365 36.3659 89.6292 38.1545 90.2146 39.7805C90.8324 41.4065 91.6942 42.8049 92.7999 43.9756C93.9056 45.1463 95.2552 46.0569 96.8487 46.7073C98.4422 47.3252 100.231 47.6341 102.215 47.6341C105.076 47.6341 107.515 46.9837 109.532 45.6829C111.548 44.3821 113.044 42.2195 114.019 39.1951H107.922C107.694 39.9756 107.076 40.7236 106.068 41.439C105.06 42.122 103.857 42.4634 102.458 42.4634C100.507 42.4634 99.0113 41.9593 97.9707 40.9512C96.93 39.9431 96.3609 38.3171 96.2633 36.0732ZM118.248 29.5366C118.345 27.9106 118.752 26.561 119.467 25.4878C120.183 24.4146 121.093 23.5528 122.199 22.9024C123.305 22.252 124.54 21.7967 125.906 21.5366C127.305 21.2439 128.703 21.0976 130.101 21.0976C131.37 21.0976 132.654 21.1951 133.955 21.3902C135.256 21.5528 136.443 21.8943 137.516 22.4146C138.589 22.935 139.467 23.6667 140.15 24.6098C140.833 25.5203 141.175 26.7398 141.175 28.2683V41.3902C141.175 42.5285 141.24 43.6179 141.37 44.6585C141.5 45.6992 141.727 46.4797 142.053 47H135.028C134.898 46.6098 134.784 46.2195 134.687 45.8293C134.622 45.4065 134.573 44.9837 134.54 44.561C133.435 45.6992 132.134 46.4959 130.638 46.9512C129.142 47.4065 127.614 47.6341 126.053 47.6341C124.849 47.6341 123.727 47.4878 122.687 47.1951C121.646 46.9024 120.736 46.4472 119.955 45.8293C119.175 45.2114 118.557 44.4309 118.101 43.4878C117.679 42.5447 117.467 41.4228 117.467 40.122C117.467 38.6911 117.711 37.5203 118.199 36.6098C118.719 35.6667 119.37 34.9187 120.15 34.3659C120.963 33.813 121.874 33.4065 122.882 33.1463C123.923 32.8537 124.963 32.626 126.004 32.4634C127.044 32.3008 128.069 32.1707 129.077 32.0732C130.085 31.9756 130.979 31.8293 131.76 31.6341C132.54 31.439 133.158 31.1626 133.614 30.8049C134.069 30.4146 134.28 29.8618 134.248 29.1463C134.248 28.3984 134.118 27.813 133.857 27.3902C133.63 26.935 133.305 26.5935 132.882 26.3659C132.492 26.1057 132.02 25.9431 131.467 25.878C130.947 25.7805 130.378 25.7317 129.76 25.7317C128.394 25.7317 127.321 26.0244 126.54 26.6098C125.76 27.1951 125.305 28.1707 125.175 29.5366H118.248ZM134.248 34.6585C133.955 34.9187 133.581 35.1301 133.126 35.2927C132.703 35.4228 132.231 35.5366 131.711 35.6341C131.223 35.7317 130.703 35.813 130.15 35.878C129.597 35.9431 129.044 36.0244 128.492 36.122C127.971 36.2195 127.451 36.3496 126.931 36.5122C126.443 36.6748 126.004 36.9024 125.614 37.1951C125.256 37.4553 124.963 37.7967 124.736 38.2195C124.508 38.6423 124.394 39.1789 124.394 39.8293C124.394 40.4472 124.508 40.9675 124.736 41.3902C124.963 41.813 125.272 42.1545 125.662 42.4146C126.053 42.6423 126.508 42.8049 127.028 42.9024C127.549 43 128.085 43.0488 128.638 43.0488C130.004 43.0488 131.061 42.8211 131.809 42.3659C132.557 41.9106 133.11 41.374 133.467 40.7561C133.825 40.1057 134.036 39.4553 134.101 38.8049C134.199 38.1545 134.248 37.6341 134.248 37.2439V34.6585ZM146.525 21.7805V47H153.452V35.6341C153.452 34.4959 153.565 33.439 153.793 32.4634C154.021 31.4878 154.395 30.6423 154.915 29.9268C155.468 29.1789 156.183 28.5935 157.061 28.1707C157.939 27.748 159.013 27.5366 160.281 27.5366C160.704 27.5366 161.143 27.5691 161.598 27.6341C162.053 27.6667 162.443 27.7154 162.769 27.7805V21.3415C162.216 21.1789 161.712 21.0976 161.256 21.0976C160.378 21.0976 159.533 21.2276 158.72 21.4878C157.907 21.748 157.143 22.122 156.427 22.6098C155.712 23.065 155.078 23.6341 154.525 24.3171C153.972 24.9675 153.533 25.6829 153.208 26.4634H153.11V21.7805H146.525ZM166.4 21.7805V47H173.327V33.7805C173.327 31.2114 173.749 29.374 174.595 28.2683C175.44 27.1301 176.806 26.561 178.692 26.561C180.351 26.561 181.505 27.0813 182.156 28.122C182.806 29.1301 183.131 30.6748 183.131 32.7561V47H190.058V31.4878C190.058 29.9268 189.912 28.5122 189.619 27.2439C189.359 25.9431 188.888 24.8537 188.205 23.9756C187.522 23.065 186.579 22.3659 185.375 21.878C184.205 21.3577 182.692 21.0976 180.839 21.0976C179.375 21.0976 177.944 21.439 176.546 22.122C175.148 22.7724 174.01 23.8293 173.131 25.2927H172.985V21.7805H166.4ZM202.444 17.8781V12.1707H195.517V17.8781H202.444ZM195.517 21.7805V47H202.444V21.7805H195.517ZM207.884 21.7805V47H214.811V33.7805C214.811 31.2114 215.234 29.374 216.079 28.2683C216.925 27.1301 218.291 26.561 220.177 26.561C221.835 26.561 222.99 27.0813 223.64 28.122C224.291 29.1301 224.616 30.6748 224.616 32.7561V47H231.543V31.4878C231.543 29.9268 231.396 28.5122 231.104 27.2439C230.843 25.9431 230.372 24.8537 229.689 23.9756C229.006 23.065 228.063 22.3659 226.86 21.878C225.689 21.3577 224.177 21.0976 222.323 21.0976C220.86 21.0976 219.429 21.439 218.03 22.122C216.632 22.7724 215.494 23.8293 214.616 25.2927H214.47V21.7805H207.884ZM248.562 41.0488C247.489 41.0488 246.595 40.8211 245.879 40.3659C245.164 39.9106 244.578 39.3252 244.123 38.6098C243.7 37.8943 243.391 37.0976 243.196 36.2195C243.034 35.3089 242.952 34.3984 242.952 33.4878C242.952 32.5447 243.05 31.6504 243.245 30.8049C243.473 29.9268 243.814 29.1626 244.269 28.5122C244.757 27.8293 245.343 27.2927 246.026 26.9024C246.741 26.5122 247.587 26.3171 248.562 26.3171C249.7 26.3171 250.643 26.5285 251.391 26.9512C252.139 27.374 252.741 27.9431 253.196 28.6585C253.652 29.374 253.977 30.2033 254.172 31.1463C254.367 32.0569 254.465 33.0325 254.465 34.0732C254.465 34.9837 254.334 35.8618 254.074 36.7073C253.847 37.5203 253.489 38.252 253.001 38.9024C252.513 39.5528 251.895 40.0732 251.147 40.4634C250.4 40.8537 249.538 41.0488 248.562 41.0488ZM261.05 45.3902V21.7805H254.465V25.1463H254.367C253.521 23.6829 252.465 22.6423 251.196 22.0244C249.96 21.4065 248.513 21.0976 246.855 21.0976C245.099 21.0976 243.538 21.439 242.172 22.122C240.839 22.8049 239.717 23.7317 238.806 24.9024C237.895 26.0407 237.196 27.374 236.708 28.9024C236.253 30.3984 236.026 31.9594 236.026 33.5854C236.026 35.3089 236.221 36.9512 236.611 38.5122C237.034 40.0407 237.684 41.3902 238.562 42.561C239.44 43.6992 240.562 44.6098 241.928 45.2927C243.294 45.9431 244.92 46.2683 246.806 46.2683C248.334 46.2683 249.782 45.9593 251.147 45.3415C252.546 44.6911 253.619 43.6992 254.367 42.3659H254.465V45.6829C254.497 47.4715 254.058 48.9512 253.147 50.122C252.269 51.2927 250.855 51.878 248.904 51.878C247.668 51.878 246.578 51.6179 245.635 51.0976C244.692 50.6098 244.058 49.7154 243.733 48.4146H236.855C236.952 49.8455 237.343 51.065 238.026 52.0732C238.741 53.1138 239.619 53.9593 240.66 54.6098C241.733 55.2602 242.904 55.7317 244.172 56.0244C245.473 56.3496 246.741 56.5122 247.977 56.5122C250.871 56.5122 253.18 56.122 254.904 55.3415C256.627 54.561 257.944 53.6016 258.855 52.4634C259.765 51.3577 260.351 50.1545 260.611 48.8537C260.904 47.5528 261.05 46.3984 261.05 45.3902ZM272.57 35.439H265.155C265.123 37.5854 265.513 39.439 266.326 41C267.139 42.561 268.228 43.8455 269.594 44.8537C270.993 45.8618 272.586 46.5935 274.375 47.0488C276.196 47.5366 278.066 47.7805 279.984 47.7805C282.358 47.7805 284.44 47.5041 286.228 46.9512C288.049 46.3984 289.562 45.6341 290.765 44.6585C292.001 43.6504 292.927 42.4634 293.545 41.0976C294.163 39.7317 294.472 38.252 294.472 36.6585C294.472 34.7073 294.049 33.1138 293.204 31.878C292.391 30.6098 291.415 29.6016 290.277 28.8537C289.139 28.1057 287.984 27.5691 286.814 27.2439C285.675 26.8862 284.781 26.6423 284.131 26.5122C281.952 25.9594 280.179 25.5041 278.814 25.1463C277.48 24.7886 276.423 24.4309 275.643 24.0732C274.895 23.7154 274.391 23.3252 274.131 22.9024C273.871 22.4797 273.74 21.9268 273.74 21.2439C273.74 20.4959 273.903 19.878 274.228 19.3902C274.553 18.9024 274.96 18.4959 275.448 18.1707C275.968 17.8455 276.537 17.6179 277.155 17.4878C277.773 17.3577 278.391 17.2927 279.009 17.2927C279.952 17.2927 280.814 17.374 281.594 17.5366C282.407 17.6992 283.123 17.9756 283.74 18.3659C284.358 18.7561 284.846 19.2927 285.204 19.9756C285.594 20.6585 285.822 21.5203 285.887 22.561H293.301C293.301 20.5447 292.911 18.8374 292.131 17.439C291.383 16.0081 290.358 14.8374 289.058 13.9268C287.757 13.0163 286.261 12.3659 284.57 11.9756C282.911 11.5528 281.171 11.3415 279.35 11.3415C277.789 11.3415 276.228 11.5528 274.667 11.9756C273.106 12.3984 271.708 13.0488 270.472 13.9268C269.236 14.8049 268.228 15.9106 267.448 17.2439C266.7 18.5447 266.326 20.0894 266.326 21.878C266.326 23.4715 266.619 24.8374 267.204 25.9756C267.822 27.0813 268.619 28.0081 269.594 28.7561C270.57 29.5041 271.675 30.122 272.911 30.6098C274.147 31.065 275.415 31.4553 276.716 31.7805C277.984 32.1382 279.236 32.4634 280.472 32.7561C281.708 33.0488 282.814 33.3902 283.789 33.7805C284.765 34.1707 285.545 34.6585 286.131 35.2439C286.749 35.8293 287.058 36.5935 287.058 37.5366C287.058 38.4146 286.83 39.1463 286.375 39.7317C285.919 40.2846 285.35 40.7236 284.667 41.0488C283.984 41.374 283.253 41.6016 282.472 41.7317C281.692 41.8293 280.96 41.878 280.277 41.878C279.269 41.878 278.293 41.7642 277.35 41.5366C276.407 41.2764 275.578 40.9024 274.862 40.4146C274.179 39.8943 273.627 39.2276 273.204 38.4146C272.781 37.6016 272.57 36.6098 272.57 35.439ZM297.966 29.5366C298.064 27.9106 298.471 26.561 299.186 25.4878C299.901 24.4146 300.812 23.5528 301.918 22.9024C303.023 22.252 304.259 21.7967 305.625 21.5366C307.023 21.2439 308.422 21.0976 309.82 21.0976C311.088 21.0976 312.373 21.1951 313.674 21.3902C314.975 21.5528 316.162 21.8943 317.235 22.4146C318.308 22.935 319.186 23.6667 319.869 24.6098C320.552 25.5203 320.893 26.7398 320.893 28.2683V41.3902C320.893 42.5285 320.958 43.6179 321.088 44.6585C321.218 45.6992 321.446 46.4797 321.771 47H314.747C314.617 46.6098 314.503 46.2195 314.405 45.8293C314.34 45.4065 314.292 44.9837 314.259 44.561C313.153 45.6992 311.853 46.4959 310.357 46.9512C308.861 47.4065 307.332 47.6341 305.771 47.6341C304.568 47.6341 303.446 47.4878 302.405 47.1951C301.365 46.9024 300.454 46.4472 299.674 45.8293C298.893 45.2114 298.275 44.4309 297.82 43.4878C297.397 42.5447 297.186 41.4228 297.186 40.122C297.186 38.6911 297.43 37.5203 297.918 36.6098C298.438 35.6667 299.088 34.9187 299.869 34.3659C300.682 33.813 301.592 33.4065 302.601 33.1463C303.641 32.8537 304.682 32.626 305.723 32.4634C306.763 32.3008 307.788 32.1707 308.796 32.0732C309.804 31.9756 310.698 31.8293 311.479 31.6341C312.259 31.439 312.877 31.1626 313.332 30.8049C313.788 30.4146 313.999 29.8618 313.966 29.1463C313.966 28.3984 313.836 27.813 313.576 27.3902C313.349 26.935 313.023 26.5935 312.601 26.3659C312.21 26.1057 311.739 25.9431 311.186 25.878C310.666 25.7805 310.097 25.7317 309.479 25.7317C308.113 25.7317 307.04 26.0244 306.259 26.6098C305.479 27.1951 305.023 28.1707 304.893 29.5366H297.966ZM313.966 34.6585C313.674 34.9187 313.3 35.1301 312.845 35.2927C312.422 35.4228 311.95 35.5366 311.43 35.6341C310.942 35.7317 310.422 35.813 309.869 35.878C309.316 35.9431 308.763 36.0244 308.21 36.122C307.69 36.2195 307.17 36.3496 306.649 36.5122C306.162 36.6748 305.723 36.9024 305.332 37.1951C304.975 37.4553 304.682 37.7967 304.454 38.2195C304.227 38.6423 304.113 39.1789 304.113 39.8293C304.113 40.4472 304.227 40.9675 304.454 41.3902C304.682 41.813 304.991 42.1545 305.381 42.4146C305.771 42.6423 306.227 42.8049 306.747 42.9024C307.267 43 307.804 43.0488 308.357 43.0488C309.723 43.0488 310.779 42.8211 311.527 42.3659C312.275 41.9106 312.828 41.374 313.186 40.7561C313.544 40.1057 313.755 39.4553 313.82 38.8049C313.918 38.1545 313.966 37.6341 313.966 37.2439V34.6585ZM344.731 34.4146C344.731 35.4553 344.618 36.4634 344.39 37.439C344.162 38.4146 343.804 39.2764 343.317 40.0244C342.829 40.7724 342.211 41.374 341.463 41.8293C340.748 42.252 339.87 42.4634 338.829 42.4634C337.821 42.4634 336.943 42.252 336.195 41.8293C335.447 41.374 334.829 40.7724 334.341 40.0244C333.853 39.2764 333.496 38.4146 333.268 37.439C333.04 36.4634 332.926 35.4553 332.926 34.4146C332.926 33.3415 333.04 32.3171 333.268 31.3415C333.496 30.3659 333.853 29.5041 334.341 28.7561C334.829 28.0081 335.447 27.4228 336.195 27C336.943 26.5447 337.821 26.3171 338.829 26.3171C339.87 26.3171 340.748 26.5447 341.463 27C342.211 27.4228 342.829 28.0081 343.317 28.7561C343.804 29.5041 344.162 30.3659 344.39 31.3415C344.618 32.3171 344.731 33.3415 344.731 34.4146ZM326.244 12.1707V47H332.829V43.7805H332.926C333.674 45.1789 334.78 46.1707 336.244 46.7561C337.707 47.3415 339.365 47.6341 341.219 47.6341C342.487 47.6341 343.739 47.374 344.975 46.8537C346.211 46.3333 347.317 45.5366 348.292 44.4634C349.3 43.3902 350.113 42.0244 350.731 40.3659C351.349 38.6748 351.658 36.6748 351.658 34.3659C351.658 32.0569 351.349 30.0732 350.731 28.4146C350.113 26.7236 349.3 25.3415 348.292 24.2683C347.317 23.1951 346.211 22.3984 344.975 21.878C343.739 21.3577 342.487 21.0976 341.219 21.0976C339.658 21.0976 338.146 21.4065 336.683 22.0244C335.252 22.6098 334.113 23.5528 333.268 24.8537H333.17V12.1707H326.244ZM374.544 34.4146C374.544 35.4553 374.43 36.4634 374.202 37.439C373.975 38.4146 373.617 39.2764 373.129 40.0244C372.641 40.7724 372.023 41.374 371.276 41.8293C370.56 42.252 369.682 42.4634 368.641 42.4634C367.633 42.4634 366.755 42.252 366.007 41.8293C365.259 41.374 364.641 40.7724 364.154 40.0244C363.666 39.2764 363.308 38.4146 363.08 37.439C362.853 36.4634 362.739 35.4553 362.739 34.4146C362.739 33.3415 362.853 32.3171 363.08 31.3415C363.308 30.3659 363.666 29.5041 364.154 28.7561C364.641 28.0081 365.259 27.4228 366.007 27C366.755 26.5447 367.633 26.3171 368.641 26.3171C369.682 26.3171 370.56 26.5447 371.276 27C372.023 27.4228 372.641 28.0081 373.129 28.7561C373.617 29.5041 373.975 30.3659 374.202 31.3415C374.43 32.3171 374.544 33.3415 374.544 34.4146ZM356.056 12.1707V47H362.641V43.7805H362.739C363.487 45.1789 364.593 46.1707 366.056 46.7561C367.519 47.3415 369.178 47.6341 371.032 47.6341C372.3 47.6341 373.552 47.374 374.788 46.8537C376.024 46.3333 377.129 45.5366 378.105 44.4634C379.113 43.3902 379.926 42.0244 380.544 40.3659C381.162 38.6748 381.471 36.6748 381.471 34.3659C381.471 32.0569 381.162 30.0732 380.544 28.4146C379.926 26.7236 379.113 25.3415 378.105 24.2683C377.129 23.1951 376.024 22.3984 374.788 21.878C373.552 21.3577 372.3 21.0976 371.032 21.0976C369.471 21.0976 367.958 21.4065 366.495 22.0244C365.064 22.6098 363.926 23.5528 363.08 24.8537H362.983V12.1707H356.056ZM385.576 29.5366C385.673 27.9106 386.08 26.561 386.795 25.4878C387.511 24.4146 388.421 23.5528 389.527 22.9024C390.633 22.252 391.869 21.7967 393.234 21.5366C394.633 21.2439 396.031 21.0976 397.429 21.0976C398.698 21.0976 399.982 21.1951 401.283 21.3902C402.584 21.5528 403.771 21.8943 404.844 22.4146C405.917 22.935 406.795 23.6667 407.478 24.6098C408.161 25.5203 408.503 26.7398 408.503 28.2683V41.3902C408.503 42.5285 408.568 43.6179 408.698 44.6585C408.828 45.6992 409.056 46.4797 409.381 47H402.356C402.226 46.6098 402.112 46.2195 402.015 45.8293C401.95 45.4065 401.901 44.9837 401.869 44.561C400.763 45.6992 399.462 46.4959 397.966 46.9512C396.47 47.4065 394.942 47.6341 393.381 47.6341C392.177 47.6341 391.056 47.4878 390.015 47.1951C388.974 46.9024 388.064 46.4472 387.283 45.8293C386.503 45.2114 385.885 44.4309 385.429 43.4878C385.007 42.5447 384.795 41.4228 384.795 40.122C384.795 38.6911 385.039 37.5203 385.527 36.6098C386.047 35.6667 386.698 34.9187 387.478 34.3659C388.291 33.813 389.202 33.4065 390.21 33.1463C391.251 32.8537 392.291 32.626 393.332 32.4634C394.373 32.3008 395.397 32.1707 396.405 32.0732C397.413 31.9756 398.308 31.8293 399.088 31.6341C399.869 31.439 400.486 31.1626 400.942 30.8049C401.397 30.4146 401.608 29.8618 401.576 29.1463C401.576 28.3984 401.446 27.813 401.186 27.3902C400.958 26.935 400.633 26.5935 400.21 26.3659C399.82 26.1057 399.348 25.9431 398.795 25.878C398.275 25.7805 397.706 25.7317 397.088 25.7317C395.722 25.7317 394.649 26.0244 393.869 26.6098C393.088 27.1951 392.633 28.1707 392.503 29.5366H385.576ZM401.576 34.6585C401.283 34.9187 400.909 35.1301 400.454 35.2927C400.031 35.4228 399.56 35.5366 399.039 35.6341C398.551 35.7317 398.031 35.813 397.478 35.878C396.925 35.9431 396.373 36.0244 395.82 36.122C395.299 36.2195 394.779 36.3496 394.259 36.5122C393.771 36.6748 393.332 36.9024 392.942 37.1951C392.584 37.4553 392.291 37.7967 392.064 38.2195C391.836 38.6423 391.722 39.1789 391.722 39.8293C391.722 40.4472 391.836 40.9675 392.064 41.3902C392.291 41.813 392.6 42.1545 392.99 42.4146C393.381 42.6423 393.836 42.8049 394.356 42.9024C394.877 43 395.413 43.0488 395.966 43.0488C397.332 43.0488 398.389 42.8211 399.137 42.3659C399.885 41.9106 400.438 41.374 400.795 40.7561C401.153 40.1057 401.364 39.4553 401.429 38.8049C401.527 38.1545 401.576 37.6341 401.576 37.2439V34.6585ZM422.633 21.7805V14.2195H415.707V21.7805H411.511V26.4146H415.707V41.2927C415.707 42.561 415.918 43.5854 416.341 44.3659C416.763 45.1463 417.333 45.748 418.048 46.1707C418.796 46.5935 419.642 46.8699 420.585 47C421.56 47.1626 422.585 47.2439 423.658 47.2439C424.341 47.2439 425.04 47.2276 425.755 47.1951C426.471 47.1626 427.121 47.0976 427.707 47V41.6341C427.381 41.6992 427.04 41.748 426.682 41.7805C426.324 41.813 425.95 41.8293 425.56 41.8293C424.389 41.8293 423.609 41.6341 423.219 41.2439C422.829 40.8537 422.633 40.0732 422.633 38.9024V26.4146H427.707V21.7805H422.633ZM438.131 17.8781V12.1707H431.204V17.8781H438.131ZM431.204 21.7805V47H438.131V21.7805H431.204ZM460.742 30.6585H467.523C467.425 29.0325 467.035 27.6341 466.352 26.4634C465.669 25.2602 464.775 24.2683 463.669 23.4878C462.596 22.6748 461.36 22.0732 459.962 21.6829C458.596 21.2927 457.165 21.0976 455.669 21.0976C453.62 21.0976 451.799 21.439 450.206 22.122C448.612 22.8049 447.263 23.7642 446.157 25C445.051 26.2033 444.206 27.6504 443.62 29.3415C443.068 31 442.791 32.8049 442.791 34.7561C442.791 36.6423 443.1 38.3821 443.718 39.9756C444.336 41.5366 445.198 42.8862 446.303 44.0244C447.409 45.1626 448.742 46.0569 450.303 46.7073C451.897 47.3252 453.637 47.6341 455.523 47.6341C458.872 47.6341 461.62 46.7561 463.767 45C465.913 43.2439 467.214 40.6911 467.669 37.3415H460.986C460.759 38.9024 460.19 40.1545 459.279 41.0976C458.401 42.0081 457.133 42.4634 455.474 42.4634C454.401 42.4634 453.49 42.2195 452.742 41.7317C451.994 41.2439 451.393 40.626 450.937 39.878C450.515 39.0976 450.206 38.2358 450.011 37.2927C449.816 36.3496 449.718 35.4228 449.718 34.5122C449.718 33.5691 449.816 32.626 450.011 31.6829C450.206 30.7073 450.531 29.8293 450.986 29.0488C451.474 28.2358 452.092 27.5854 452.84 27.0976C453.588 26.5772 454.515 26.3171 455.62 26.3171C458.58 26.3171 460.287 27.7642 460.742 30.6585ZM471.263 29.5366C471.361 27.9106 471.767 26.561 472.483 25.4878C473.198 24.4146 474.109 23.5528 475.215 22.9024C476.32 22.252 477.556 21.7967 478.922 21.5366C480.32 21.2439 481.719 21.0976 483.117 21.0976C484.385 21.0976 485.67 21.1951 486.971 21.3902C488.271 21.5528 489.458 21.8943 490.532 22.4146C491.605 22.935 492.483 23.6667 493.166 24.6098C493.849 25.5203 494.19 26.7398 494.19 28.2683V41.3902C494.19 42.5285 494.255 43.6179 494.385 44.6585C494.515 45.6992 494.743 46.4797 495.068 47H488.044C487.914 46.6098 487.8 46.2195 487.702 45.8293C487.637 45.4065 487.589 44.9837 487.556 44.561C486.45 45.6992 485.15 46.4959 483.654 46.9512C482.158 47.4065 480.629 47.6341 479.068 47.6341C477.865 47.6341 476.743 47.4878 475.702 47.1951C474.662 46.9024 473.751 46.4472 472.971 45.8293C472.19 45.2114 471.572 44.4309 471.117 43.4878C470.694 42.5447 470.483 41.4228 470.483 40.122C470.483 38.6911 470.727 37.5203 471.215 36.6098C471.735 35.6667 472.385 34.9187 473.166 34.3659C473.979 33.813 474.889 33.4065 475.897 33.1463C476.938 32.8537 477.979 32.626 479.019 32.4634C480.06 32.3008 481.084 32.1707 482.093 32.0732C483.101 31.9756 483.995 31.8293 484.776 31.6341C485.556 31.439 486.174 31.1626 486.629 30.8049C487.084 30.4146 487.296 29.8618 487.263 29.1463C487.263 28.3984 487.133 27.813 486.873 27.3902C486.645 26.935 486.32 26.5935 485.897 26.3659C485.507 26.1057 485.036 25.9431 484.483 25.878C483.963 25.7805 483.393 25.7317 482.776 25.7317C481.41 25.7317 480.337 26.0244 479.556 26.6098C478.776 27.1951 478.32 28.1707 478.19 29.5366H471.263ZM487.263 34.6585C486.971 34.9187 486.597 35.1301 486.141 35.2927C485.719 35.4228 485.247 35.5366 484.727 35.6341C484.239 35.7317 483.719 35.813 483.166 35.878C482.613 35.9431 482.06 36.0244 481.507 36.122C480.987 36.2195 480.467 36.3496 479.946 36.5122C479.458 36.6748 479.019 36.9024 478.629 37.1951C478.271 37.4553 477.979 37.7967 477.751 38.2195C477.524 38.6423 477.41 39.1789 477.41 39.8293C477.41 40.4472 477.524 40.9675 477.751 41.3902C477.979 41.813 478.288 42.1545 478.678 42.4146C479.068 42.6423 479.524 42.8049 480.044 42.9024C480.564 43 481.101 43.0488 481.654 43.0488C483.019 43.0488 484.076 42.8211 484.824 42.3659C485.572 41.9106 486.125 41.374 486.483 40.7561C486.841 40.1057 487.052 39.4553 487.117 38.8049C487.215 38.1545 487.263 37.6341 487.263 37.2439V34.6585ZM499.736 12.1707V47H506.662V12.1707H499.736ZM512.396 39.4878V47H520.054V39.4878H512.396ZM542.821 30.6585H549.601C549.503 29.0325 549.113 27.6341 548.43 26.4634C547.747 25.2602 546.853 24.2683 545.747 23.4878C544.674 22.6748 543.438 22.0732 542.04 21.6829C540.674 21.2927 539.243 21.0976 537.747 21.0976C535.699 21.0976 533.877 21.439 532.284 22.122C530.69 22.8049 529.341 23.7642 528.235 25C527.129 26.2033 526.284 27.6504 525.699 29.3415C525.146 31 524.869 32.8049 524.869 34.7561C524.869 36.6423 525.178 38.3821 525.796 39.9756C526.414 41.5366 527.276 42.8862 528.381 44.0244C529.487 45.1626 530.821 46.0569 532.381 46.7073C533.975 47.3252 535.715 47.6341 537.601 47.6341C540.951 47.6341 543.699 46.7561 545.845 45C547.991 43.2439 549.292 40.6911 549.747 37.3415H543.064C542.837 38.9024 542.268 40.1545 541.357 41.0976C540.479 42.0081 539.211 42.4634 537.552 42.4634C536.479 42.4634 535.568 42.2195 534.821 41.7317C534.073 41.2439 533.471 40.626 533.016 39.878C532.593 39.0976 532.284 38.2358 532.089 37.2927C531.894 36.3496 531.796 35.4228 531.796 34.5122C531.796 33.5691 531.894 32.626 532.089 31.6829C532.284 30.7073 532.609 29.8293 533.064 29.0488C533.552 28.2358 534.17 27.5854 534.918 27.0976C535.666 26.5772 536.593 26.3171 537.699 26.3171C540.658 26.3171 542.365 27.7642 542.821 30.6585ZM559.78 34.4146C559.78 33.4065 559.878 32.4146 560.073 31.439C560.268 30.4634 560.593 29.6016 561.049 28.8537C561.537 28.1057 562.171 27.5041 562.951 27.0488C563.732 26.561 564.707 26.3171 565.878 26.3171C567.049 26.3171 568.024 26.561 568.805 27.0488C569.618 27.5041 570.252 28.1057 570.707 28.8537C571.195 29.6016 571.537 30.4634 571.732 31.439C571.927 32.4146 572.024 33.4065 572.024 34.4146C572.024 35.4228 571.927 36.4146 571.732 37.3902C571.537 38.3333 571.195 39.1951 570.707 39.9756C570.252 40.7236 569.618 41.3252 568.805 41.7805C568.024 42.2358 567.049 42.4634 565.878 42.4634C564.707 42.4634 563.732 42.2358 562.951 41.7805C562.171 41.3252 561.537 40.7236 561.049 39.9756C560.593 39.1951 560.268 38.3333 560.073 37.3902C559.878 36.4146 559.78 35.4228 559.78 34.4146ZM552.854 34.4146C552.854 36.4309 553.163 38.252 553.78 39.878C554.398 41.5041 555.276 42.9024 556.415 44.0732C557.553 45.2114 558.919 46.0894 560.512 46.7073C562.106 47.3252 563.894 47.6341 565.878 47.6341C567.862 47.6341 569.65 47.3252 571.244 46.7073C572.87 46.0894 574.252 45.2114 575.39 44.0732C576.528 42.9024 577.407 41.5041 578.024 39.878C578.642 38.252 578.951 36.4309 578.951 34.4146C578.951 32.3984 578.642 30.5772 578.024 28.9512C577.407 27.2927 576.528 25.8943 575.39 24.7561C574.252 23.5854 572.87 22.6911 571.244 22.0732C569.65 21.4228 567.862 21.0976 565.878 21.0976C563.894 21.0976 562.106 21.4228 560.512 22.0732C558.919 22.6911 557.553 23.5854 556.415 24.7561C555.276 25.8943 554.398 27.2927 553.78 28.9512C553.163 30.5772 552.854 32.3984 552.854 34.4146ZM583.642 21.7805V47H590.569V32.3659C590.569 31.1301 590.747 30.1382 591.105 29.3902C591.463 28.6098 591.886 28.0244 592.373 27.6341C592.894 27.2114 593.414 26.935 593.934 26.8049C594.487 26.6423 594.926 26.561 595.252 26.561C596.357 26.561 597.186 26.7561 597.739 27.1463C598.325 27.5041 598.731 27.9919 598.959 28.6098C599.219 29.2276 599.365 29.9106 599.398 30.6585C599.43 31.374 599.447 32.1057 599.447 32.8537V47H606.373V32.9512C606.373 32.1707 606.422 31.4065 606.52 30.6585C606.65 29.878 606.878 29.1951 607.203 28.6098C607.56 27.9919 608.032 27.5041 608.617 27.1463C609.235 26.7561 610.032 26.561 611.008 26.561C611.983 26.561 612.747 26.7236 613.3 27.0488C613.886 27.374 614.325 27.813 614.617 28.3659C614.91 28.9187 615.089 29.5691 615.154 30.3171C615.219 31.065 615.252 31.8618 615.252 32.7073V47H622.178V30.122C622.178 28.4959 621.951 27.1138 621.495 25.9756C621.04 24.8049 620.406 23.8618 619.593 23.1463C618.78 22.4309 617.804 21.9106 616.666 21.5854C615.528 21.2602 614.292 21.0976 612.959 21.0976C611.203 21.0976 609.674 21.5203 608.373 22.3659C607.105 23.2114 606.097 24.187 605.349 25.2927C604.666 23.7317 603.658 22.6423 602.325 22.0244C601.024 21.4065 599.577 21.0976 597.983 21.0976C596.325 21.0976 594.845 21.4553 593.544 22.1707C592.276 22.8862 591.186 23.8943 590.276 25.1951H590.178V21.7805H583.642Z" fill="black"/>
<path d="M11.8 14.105L0 17.205L0.3 20.205C0.6 23.305 0.6 23.305 12.9 26.305L25.1 29.305L37.4 26.305C49.6 23.305 49.6 23.305 49.9 20.305L50.2 17.205L37.7 14.005C30.8 12.305 24.8 10.905 24.4 11.005C23.9 11.005 18.3 12.505 11.8 14.105Z" fill="black"/>
<path d="M0.0999756 32.805C0.0999756 35.605 0.199976 35.705 12.4 38.705L24.7 41.805L37.1 38.605C49.1 35.505 49.6 35.305 49.9 32.605C50.3 29.205 50.1 29.205 36.3 32.805L25.2 35.705L13.9 32.805C7.69998 31.205 1.99998 29.905 1.39998 29.905C0.599976 29.905 0.0999756 31.105 0.0999756 32.805Z" fill="black"/>
<path d="M0.0999794 44.905C0.0999794 48.105 -1.00002 47.705 16.4 52.005L25.1 54.105L33.9 52.005C51.2 47.705 50.1 48.105 50.1 44.905C50.1 43.205 49.8 41.905 49.5 41.905C49.2 41.905 43.6 43.305 37 44.905L25.1 47.905L13.2 44.905C6.59998 43.305 0.999979 41.905 0.699979 41.905C0.399979 41.905 0.0999794 43.205 0.0999794 44.905Z" fill="black"/>
</svg>
