<svg width="563" height="666" viewBox="0 0 563 666" fill="none" xmlns="http://www.w3.org/2000/svg">
<path d="M63.2 166.9L356.3 22.4L425.4 284.2L92.5 272.2L63.2 166.9Z" fill="#3898EC"/>
<path d="M268.9 94.1999L257.6 178.5C257.5 179.6 258 180.7 259 181.1C262.3 182.5 270 185.5 278.6 186C285.6 186.4 297.9 184.5 305 182.3C306.3 181.9 307.2 180.4 306.7 179.1L273.7 93.5999C272.8 91.1999 269.3 91.6999 268.9 94.1999Z" fill="#101010"/>
<path d="M306.9 167.3C334.2 167.3 356.4 145.1 356.4 117.8C356.4 90.5 334.2 68.3 306.9 68.3C279.6 68.3 257.4 90.5 257.4 117.8C257.4 145.2 279.5 167.3 306.9 167.3Z" fill="#C1C1C1"/>
<path d="M232.7 498.8H165V550H232.7V498.8Z" fill="#DCDCDC"/>
<path d="M158.4 494.8V498.7H232.8V549.9H158.4V553.8H444.7V494.8H158.4Z" fill="#595959"/>
<path d="M130 464.5C131.7 475 133.7 485.4 136.2 495.7C140.6 513.9 168.6 506.2 164.2 488C161.7 477.7 159.7 467.3 158 456.8C156.8 449.1 147.1 444.8 140.1 446.6C131.8 449 128.7 456.8 130 464.5Z" fill="#A6A6A6"/>
<path d="M298 310.3C297.7 310.2 297.4 310 297.1 310C292.3 309.2 255.3 302.8 216.9 295.4C199.8 292.1 149.9 278 123.7 288.2C97.6 298.4 92.4 313.7 90.1 324.4C88.1 334.1 91.6 367 100.1 400.4C107.7 430.3 126.3 468.2 130.1 475.8C130.5 476.7 131.5 477.3 132.5 477.4C134.9 477.5 139.7 477.5 145.8 475.6C151.3 474 157.1 470.9 159.7 469.4C160.6 468.9 161.1 468 161.1 467C161.2 458.7 161.9 419.8 160.9 392.5C159.9 366 150.8 357.2 150.8 357.2C150.8 357.2 182.2 392.1 214.3 401.6C239.7 409.1 292.9 425.8 314.9 425.2C340.4 424.5 358.9 413.7 367.1 400.7C382.4 376.7 372.9 341.1 370.5 333.3C370.2 332.3 369.4 331.6 368.4 331.4C360 329.4 320.1 319.9 309.8 315.6C301.5 312 298.8 310.7 298 310.3Z" fill="#A3A3A3"/>
<path d="M369.4 299.1C369.4 299.1 368.8 305.7 369.5 315.1C370.1 324.6 371.6 331.8 371.6 331.8C371.6 331.8 333.4 325.6 318.9 320C300.6 312.9 297.7 310 297.7 310C297.7 310 301.1 302.3 302.4 296.8C303.3 292.7 303.8 281.5 303.8 281.5C303.8 281.5 323.6 290.9 337.4 294.2C351.2 297.5 369.4 299.1 369.4 299.1Z" fill="#C1C1C1"/>
<path d="M37.1 86.6C57.5 86.6 74 70.1 74 49.7C74 29.3 57.5 12.8 37.1 12.8C16.7 12.8 0.199951 29.3 0.199951 49.7C0.199951 70.1 16.7 86.6 37.1 86.6Z" fill="#595959"/>
<path d="M325.7 641.7H99.2V559H325.6C336.9 559 346 568.1 346 579.4V621.3C346.2 632.6 337 641.7 325.7 641.7Z" fill="#EEEEEE"/>
<path d="M459.9 553.8H89.4C88 553.8 86.8 554.9 86.8 556.4C86.8 557.8 87.9 559 89.4 559H134.9H304.7C327.6 559 346.1 577.5 346.1 600.4C346.1 623.3 327.6 641.8 304.7 641.8H95H89.4C88 641.8 86.8 642.9 86.8 644.4C86.8 645.9 87.9 647 89.4 647H459.9C482.8 647 501.3 628.5 501.3 605.6V595.3C501.3 572.3 482.8 553.8 459.9 553.8Z" fill="#7B7B7B"/>
<path d="M312.7 576.9H99.3V574H312.7C313.5 574 314.1 574.6 314.1 575.4C314.1 576.3 313.5 576.9 312.7 576.9Z" fill="#D4D4D4"/>
<path d="M214.2 537.8H165V534.9H214.2C215 534.9 215.6 535.5 215.6 536.3C215.6 537.1 215 537.8 214.2 537.8Z" fill="#C6C6C6"/>
<path d="M202.6 521.6H165V518.7H202.5C203.3 518.7 203.9 519.3 203.9 520.1C204 521 203.4 521.6 202.6 521.6Z" fill="#C6C6C6"/>
<path d="M328.2 609.1H99.3V606.2H328.2C329 606.2 329.6 606.8 329.6 607.6C329.6 608.4 329 609.1 328.2 609.1Z" fill="#D4D4D4"/>
<path d="M300 627H99.3V624.1H300C300.8 624.1 301.4 624.7 301.4 625.5C301.4 626.3 300.8 627 300 627Z" fill="#D4D4D4"/>
<path d="M321.3 593.3H99.3V590.4H321.3C322.1 590.4 322.7 591 322.7 591.8C322.7 592.6 322.1 593.3 321.3 593.3Z" fill="#D4D4D4"/>
<path d="M297 490.1H209.9V459.4H297C299.4 459.4 301.3 461.3 301.3 463.7V485.8C301.3 488.2 299.3 490.1 297 490.1Z" fill="#D6D6D6"/>
<path d="M453.9 454.7H280.9H205H202.7C201.4 454.7 200.3 455.8 200.3 457.1C200.3 458.4 201.4 459.5 202.7 459.5H209.9H292.7C297.4 459.5 301.3 463.4 301.3 468.1V481.5C301.3 486.2 297.4 490.1 292.7 490.1H273.8H203.3C202 490.1 200.9 491.2 200.9 492.5C200.9 493.8 202 494.9 203.3 494.9H205.1H281.5H453.9C458.6 494.9 462.5 491 462.5 486.3V463.4C462.5 458.5 458.6 454.7 453.9 454.7Z" fill="#979797"/>
<path d="M154.2 266.8C179.9 255.3 209.6 270.7 235.2 275.1C260.3 279.4 287.8 276 305.2 255.5C309.1 250.8 309.8 244 305.2 239.4C301.1 235.3 293.1 234.7 289.1 239.4C272.7 258.7 247.2 255.2 225.2 249.6C197.6 242.5 170.2 234.8 142.8 247.1C137.2 249.6 135.8 257.8 138.7 262.7C142 268.5 148.6 269.3 154.2 266.8Z" fill="#AEAEAE"/>
<path d="M162.4 273.9C190.3 264.8 217.8 282.8 243.9 290.5C268.9 297.8 296.6 296.7 316.1 277.7C326.6 267.5 310.5 251.4 300 261.6C282.4 278.7 256.7 271.5 236.5 264C210.8 254.5 184 242.9 156.3 252C142.6 256.4 148.5 278.5 162.4 273.9Z" fill="#C1C1C1"/>
<path d="M338 188C340.4 188.7 362.2 197.5 370.3 226.6C377.1 250.6 382.8 286.3 384.6 298C385 300.2 383.5 302.4 381.2 302.8C374.7 304.1 360.6 306.1 342.9 304.5C318.2 302.3 302.5 295.6 302.5 295.6L303.1 290L300.9 291C299.2 291.8 297.1 291.3 296 289.8L279.9 268.4C278.8 267 279.3 265 280.8 264.2L281 264.1L268 248.5C266.8 247 266.9 244.8 268.3 243.5C272.9 239.1 282.9 229 290 219.3C295.2 212.3 302 199.5 306.2 194.6C314.8 184.4 331.6 186.1 338 188Z" fill="white"/>
<path d="M338.8 197.1L323 156.4L292.9 156.2L308.7 196.9L338.8 197.1Z" fill="#C1C1C1"/>
<path d="M311.2 206C315.7 207.1 321.8 202.8 326.9 200.5C332.4 198.1 338.7 197.1 338.7 197.1L308.6 196.9C308.6 196.9 306.4 204.9 311.2 206Z" fill="#C1C1C1"/>
<path d="M300.6 238.9C300.6 238.9 297.6 247 294.6 251.5C291.6 256 281.2 264 281.2 264L277.3 259.3C277.3 259.3 284.5 255.6 289.6 250.7C293.4 247.2 300.6 238.9 300.6 238.9Z" fill="#E0E0E0"/>
<path d="M303.2 289.9C303.2 289.9 312.5 284.4 316.7 279.9C320.9 275.4 326.7 266.3 326.7 266.3C326.7 266.3 320.3 280.1 317.2 286.1C312.8 294.3 309.5 297.9 309.5 297.9L302.8 295.5C302.8 295.5 302.9 294.1 303.1 292.8C303.1 291.6 303.2 289.9 303.2 289.9Z" fill="#E0E0E0"/>
<path d="M132 263.7C138.5 259.6 145.3 256.4 152.7 254.1C158.8 252.2 156.2 242.5 150 244.3C141.9 246.8 134.2 250.3 127 254.9C121.6 258.4 126.5 267.1 132 263.7Z" fill="#AEAEAE"/>
<path d="M358.9 82C369.2 82 377.5 73.7 377.5 63.4C377.5 53.1 369.2 44.8 358.9 44.8C348.6 44.8 340.3 53.1 340.3 63.4C340.2 73.7 348.6 82 358.9 82Z" fill="#101010"/>
<path d="M305.7 132.7C310.9 134.6 313.2 134.6 313.2 134.6C312.6 131.2 311.9 127.5 311.9 127.2C311.9 127.2 303.3 124.3 297.6 118.6C289 110 293.3 101.4 286.1 94.2C280.1 88.2 272.6 85.6 270.1 84.9C270 85 270 85 270 85C270.1 85.1 279.3 88.8 285.3 96.9C291.4 105 285.9 113 293.2 122.7C297.5 128.7 301.2 131 305.7 132.7Z" fill="#A6A6A6"/>
<path d="M325.7 163.6C319.9 166 313.5 167.3 306.8 167.3C303.4 167.3 299.9 166.9 296.7 166.2L300.9 177C302.1 176.9 303.3 176.6 304.5 176.4C312.9 174.5 320.3 170.4 326.2 164.9L325.7 163.6Z" fill="#A6A6A6"/>
<path d="M318.7 171.1C308.9 171.1 300.8 163.1 300.8 153.2C300.8 143.4 308.8 135.3 318.7 135.3C328.6 135.3 336.6 143.3 336.6 153.2C336.6 163.1 328.5 171.1 318.7 171.1ZM318.7 138.3C310.5 138.3 303.8 145 303.8 153.2C303.8 161.4 310.5 168.1 318.7 168.1C326.9 168.1 333.6 161.4 333.6 153.2C333.6 145 326.9 138.3 318.7 138.3Z" fill="white"/>
<path d="M376.4 180.9C378.4 180.2 379.6 178 378.8 176L355.1 104.2C349.1 83.1 329.8 67.6 306.8 67.6C291.8 67.6 278.4 74.2 269.2 84.5C269.3 84.5 278.9 86.9 286 94.1C293.2 101.3 288.9 109.9 297.5 118.5C303.2 124.2 311.8 127.1 311.8 127.1C311.8 128 316 149.6 319.4 166.4C320.1 170.1 320.8 174.4 321.4 177.7C321.7 179.3 322.8 180.6 324.3 181.2C333 184.7 343 186.5 353.7 186C361.4 185.7 371.2 182.7 376.4 180.9Z" fill="#101010"/>
<path d="M371.1 327C371.1 327 374.5 341.1 373.5 341.1C372.4 341 330.9 332.9 320.1 330.5C296.4 325.4 292.7 309.3 292.7 309.3C292.7 309.3 294.6 309.2 296.6 307.7C298.6 306.2 299.3 305.6 299.3 305.6C299.3 305.6 302.7 313.9 323.3 319.9C352 328.2 371.1 327 371.1 327Z" fill="#BFBFBF"/>
<path d="M134.3 487.7C134.3 487.7 143.8 487.6 148.6 486.8C153.4 485.9 162.7 481.4 162.7 481.4C162.7 481.4 168.2 493.4 169.7 496.6C171.3 499.8 178 507.7 178.9 512.9C179.8 518.1 180 529.7 160 531.5C150.7 532.3 142 551.1 131.9 552.5C126.9 553.2 103.1 555.8 96.4 552.1C89.7 548.4 91.7999 538.5 108.1 533.2C124.4 527.8 121.3 522.4 125.2 515.5C128.9 508.4 134.3 487.7 134.3 487.7Z" fill="#656565"/>
<path d="M78.9001 469.2C77.5001 480.9 76.1 492.5 74.7 504.2C73.8 512 82.1001 518.8 89.3001 518.8C97.9001 518.8 102.9 512.1 103.9 504.2C105.3 492.5 106.7 480.9 108.1 469.2C109 461.4 100.7 454.6 93.5 454.6C84.8 454.7 79.8001 461.4 78.9001 469.2Z" fill="#C1C1C1"/>
<path d="M308.1 424.8C329.1 426.9 348.5 421 363.3 406.7C378 392.4 377.1 368.4 376.3 358.7C375.7 351 373.1 338.6 372.1 333.7C371.8 332.5 370.9 331.5 369.7 331.3C362.2 329.9 335.9 325.2 328.1 322.8C321.7 320.8 316.1 318.6 313.3 317.5C312.2 317.1 311 317.3 310.1 318.1C307.7 320.3 302 324.2 292.7 323.3C280.1 322 224.6 304.9 202.7 298.1C180.8 291.4 144.1 275.1 110.1 286.3C88.4 293.5 72.1999 314.2 71.6999 357.7C71.3999 391.5 71.3 434.7 71.9 451C72.3 463.8 71.8 477.4 71.6 482.6C71.5 484 72.3 485.1 73.5 485.6C75.7 486.5 79.7 487.8 85.3 489C92.3 490.5 101 489.9 104.9 489.5C106.1 489.4 107.1 488.6 107.5 487.4C109.6 481.2 116.4 460.7 122.6 443.5C138 400.4 139.3 377.2 138.6 366.8C138.4 364.2 141.3 362.6 143.4 364.1C153.6 371.1 175.5 385.5 200 396.5C233.6 411.7 281.9 422.2 308.1 424.8Z" fill="#BFBFBF"/>
<path d="M337.6 326.8C337.7 341.9 333 357.4 322 368.2C317.1 373.1 311 376.9 304.3 379C296.3 381.4 287.8 381 279.6 379.7C249 374.8 220.9 360.7 193.3 347.5C179.4 340.8 165.4 334.3 150.8 329.1C147.1 327.8 143.5 326.5 139.8 325.4C135.7 324.2 131.5 323 127.3 323.5C120.4 324.2 115.1 329 111.5 334.5C107.7 340.5 105.8 347.6 104.3 354.5C102.6 362.1 101.5 369.8 100.8 377.6C99.7 388.8 99.4 400 98.4 411.2C96.3 433.4 93.8 455.8 89.9 477.8C89.6 479.6 89.3 481.3 88.9 483C88.4 485.4 92.0999 486.5 92.5999 484C94.4999 474.8 95.8 465.5 97 456.2C98.7 444.2 100.1 432 101.4 419.9C102.5 409.7 103.2 399.6 103.8 389.4C104.6 374.3 106.2 358.7 111.2 344.2C113.3 338 116.9 331.7 122.9 328.6C130.1 324.9 138.7 328.7 145.7 331.2C160.4 336.2 174.6 342.7 188.6 349.4C216.4 362.6 244.2 377 274.8 382.7C283.1 384.2 291.6 385.3 300 383.9C306.9 382.8 313.6 379.8 319.1 375.7C331.2 366.8 338.5 353 340.8 338.2C341.4 334.4 341.7 330.5 341.6 326.7C341.5 324.3 337.6 324.3 337.6 326.8Z" fill="white"/>
<path d="M130.3 271.5C136.8 265.3 145.2 263 153.8 261.4C159.9 260.2 157.7 250.7 151.6 251.9C141.4 253.9 131.4 257 123.7 264.4C119.3 268.7 125.8 275.9 130.3 271.5Z" fill="#C1C1C1"/>
<path d="M165.5 274.4L144.6 279.6C141.5 280.4 138.4 278.5 137.6 275.4L134.3 262.1C133.5 259 135.4 255.9 138.5 255.1L159.4 249.9C162.5 249.1 165.6 251 166.4 254.1L169.7 267.4C170.5 270.5 168.6 273.7 165.5 274.4Z" fill="#C1C1C1"/>
<path d="M339.5 452.6H198.6V423.1H339.5C343.5 423.1 346.7 426.3 346.7 430.3V445.2C346.7 449.3 343.5 452.6 339.5 452.6Z" fill="#EAEAEA"/>
<path d="M427.3 420.8H192.6C192 420.8 191.5 421.3 191.5 421.9C191.5 422.5 192 423 192.6 423H331.8C340 423 346.6 429.6 346.6 437.8C346.6 446 340 452.6 331.8 452.6H192.6C192 452.6 191.5 453.1 191.5 453.7C191.5 454.3 192 454.8 192.6 454.8H427.3C435.5 454.8 442.1 448.2 442.1 440V435.7C442 427.4 435.4 420.8 427.3 420.8Z" fill="#3A3A3A"/>
<path d="M26.4 573.1C29.9 580.2 47.6 583.4 65.8 570.3C93.3 550.6 109.8 556.6 109.8 540.1C109.8 532.7 108.3 525.9 106.4 518.1C104.6 511 104.7 497.6 104.7 497.6C104.7 497.6 91.6 499 84.9 497.8C79.7 496.9 76 494.9 76 494.9C76 494.9 74.1 505.5 68 516.7C63.7 524.6 60.4999 529.4 53.1999 536.1C48.5999 540.2 20.5 561.4 26.4 573.1Z" fill="#797979"/>
<path d="M305.7 446H198.6V444.6H305.7C306.1 444.6 306.4 444.9 306.4 445.3C306.4 445.7 306.2 446 305.7 446Z" fill="#C2C2C2"/>
<path d="M317.4 431.6H198.6V430.2H317.4C317.8 430.2 318.1 430.5 318.1 430.9C318.1 431.2 317.8 431.6 317.4 431.6Z" fill="#C2C2C2"/>
<path d="M330.5 438.5H198.6V437.1H330.5C330.9 437.1 331.2 437.4 331.2 437.8C331.2 438.2 330.8 438.5 330.5 438.5Z" fill="#C2C2C2"/>
<path d="M449.4 8.90002C459.2 19 464.7 30.1 470.8 42.6C472.5 46 483 39.2001 482.2 35.8C479 22.5 470.2 10.8 460.5 1.40002C457.2 -1.59998 446.8 6.20002 449.4 8.90002Z" fill="#EBEBEB"/>
<path d="M508.8 7.69996C508.5 20 505.9 31.6 503.6 43.6C502.5 48.9 512.7 42.7 513.8 39.9C518.3 28.1 519.6 14.7 519.5 2.09998C519.3 -1.60002 508.9 3.99996 508.8 7.69996Z" fill="#EBEBEB"/>
<path d="M533.2 58.7C540.8 55 548.5 51.3001 556.3 47.9001C559.1 46.7001 562.8 43.4001 562 39.9001C561.2 36.5001 556.8 36.7001 554.3 37.8001C546.6 41.3001 538.9 44.9 531.2 48.6C528.5 50 524.7 53 525.5 56.6C526.3 60 530.7 59.9 533.2 58.7Z" fill="#EBEBEB"/>
<path d="M275.6 606.2H242.3C242.3 606.2 236.9 608 232.3 616.5C226.6 627.1 228.6 637.4 225 645.3C220.8 654.4 214.2 657.9 214.2 657.9C214.2 657.9 221.6 658.9 226 658.3C230 657.7 235 654.4 235 654.4C235 654.4 235.9 656.3 236.1 659.7C236.4 663.4 236 665.4 236 665.4C236 665.4 248.2 662.5 253.1 655.5C260 645.7 254.2 633.8 263.1 619C267.2 612.4 275.6 606.2 275.6 606.2Z" fill="#ACACAC"/>
<path d="M481.8 129.2C483.1 126.4 478.2 121.2 470.8 117.7C463.4 114.2 456.3 113.6 455 116.5C453.7 119.3 458.6 124.5 466 128C473.4 131.5 480.5 132 481.8 129.2Z" fill="#C2C2C2"/>
<path d="M457.5 111.7C460 106.8 462.2 101.6 463 96.1C464.9 84.3 461.4 70.7 468.5 61.2C473.7 54.3 483.2 51.9001 491.7 52.9001C502.1 54.0001 512.3 59.9 517.4 69C522.5 78.2001 521.6 90.7001 514.4 98.3001C508.3 104.7 499 106.9 492.5 112.9C488.9 116.3 486.5 120.6 483.8 124.9L482.9 126.2C462.8 124.7 457.5 111.7 457.5 111.7Z" fill="#DDDDDD"/>
<path d="M492.5 92.4C491.6 89.3 488.9 89.5999 486.5 90.6999C485.9 88.9999 484.9 86.7999 483.1 86.1999C481.1 85.4999 478.9 86.8999 477.4 88.0999C474.1 90.7999 471.6 94.8 470.2 98.8C468.8 102.8 468.1 107.1 466.8 111.1C466.3 112.7 468.9 113.4 469.4 111.7C471 106.5 471.6 100.9 474.2 96.0999C475.7 93.3999 477.9 90.3999 480.7 88.9999C481.6 88.5999 482.3 88.4 482.9 89.4C483.4 90.1 483.8 90.8999 484 91.6999C484 91.7999 484.1 91.8 484.1 91.9C483.7 92.1 483.5 92.2999 483.2 92.4999C480.5 94.6999 477 98.4999 477.1 102.2C477.2 103.9 478.3 105.3 480 105.4C481.9 105.5 483.8 103.9 484.9 102.5C487.1 99.7999 487.7 96.2999 487.1 92.9999C487.7 92.5999 488.3 92.4 488.9 92.4C490.5 92.3 489.9 95 489.7 95.9C488.9 99 487.3 101.7 485.7 104.4C484.5 106.4 483.4 108.6 481.9 110.4C480.3 112.4 478 113.8 475.9 115.3C474.5 116.2 475.9 118.5 477.3 117.6C479.8 115.9 482.3 114.2 484.2 111.8C486.1 109.2 487.8 106.3 489.4 103.6C491.1 100.5 493.6 96 492.5 92.4ZM484.6 97.1999C484.3 98.5999 483.7 99.9999 482.7 101.1C482.1 101.7 479.6 104 479.8 102C479.9 100.8 480.8 99.4999 481.4 98.4999C482.3 97.1999 483.4 95.9999 484.6 94.9999C484.7 95.6999 484.7 96.4999 484.6 97.1999Z" fill="#ACACAC"/>
<path d="M466 127.9C459.3 124.7 454.7 120.3 454.8 117.4L451.9 129.2C450.8 131.5 454.8 135.7 460.8 138.5C466.8 141.3 472.5 141.8 473.6 139.5C473.7 139.4 473.7 139.3 473.7 139.1L481.3 129.8C479 131.8 472.7 131.1 466 127.9Z" fill="#ACACAC"/>
<path d="M90.4001 280.9C88.0001 281.5 85.6001 280.2 84.9001 277.8L53.6 165.8C53 163.4 54.3 161 56.7 160.3C59.1 159.7 61.5 161 62.2 163.4L93.5 275.4C94.2 277.8 92.8001 280.3 90.4001 280.9Z" fill="#C8C8C8"/>
<path d="M84.6999 276.4C84.7999 274 86.9 272 89.4 272.2L205.5 279C207.9 279.1 209.9 281.2 209.7 283.7C209.6 286.1 207.5 288.1 205 287.9L88.9 281.1C86.5 281 84.5999 278.9 84.6999 276.4Z" fill="#C8C8C8"/>
<path d="M540.4 352.1L535.3 350.7C535 350.6 534.8 350.3 534.9 350C535 349.7 535.3 349.5 535.6 349.6L539.5 350.7L540.6 346.8C540.7 346.5 541 346.3 541.3 346.4C541.6 346.5 541.8 346.8 541.7 347.1L540.4 352.1Z" fill="#DDDDDD"/>
<path d="M526.3 348.2C526.2 348.2 526.2 348.2 526.2 348.2L517 345.7C516.7 345.6 516.5 345.3 516.6 345C516.7 344.7 517 344.5 517.3 344.6L526.5 347.1C526.8 347.2 527 347.5 526.9 347.8C526.8 348.1 526.6 348.2 526.3 348.2ZM507.9 343.3C507.8 343.3 507.8 343.3 507.8 343.3L498.6 340.8C498.3 340.7 498.1 340.4 498.2 340.1C498.3 339.8 498.6 339.6 498.9 339.7L508.1 342.2C508.4 342.3 508.6 342.6 508.5 342.9C508.4 343.1 508.2 343.3 507.9 343.3ZM489.7 338.3C489.6 338.3 489.6 338.3 489.6 338.3L480.4 335.8C480.1 335.7 479.9 335.4 480 335.1C480.1 334.8 480.4 334.6 480.7 334.7L489.9 337.2C490.2 337.3 490.4 337.6 490.3 337.9C490.1 338.2 489.9 338.3 489.7 338.3Z" fill="#DDDDDD"/>
<path d="M471.3 333.4C471.2 333.4 471.2 333.4 471.2 333.4L466.1 332L467.5 326.9C467.6 326.6 467.9 326.4 468.2 326.5C468.5 326.6 468.7 326.9 468.6 327.2L467.5 331.1L471.4 332.2C471.7 332.3 471.9 332.6 471.8 332.9C471.7 333.2 471.5 333.4 471.3 333.4Z" fill="#DDDDDD"/>
<path d="M470.4 318.5C470.3 318.5 470.3 318.5 470.3 318.5C470 318.4 469.8 318.1 469.9 317.8L472.3 308.6C472.4 308.3 472.7 308.1 473 308.2C473.3 308.3 473.5 308.6 473.4 308.9L471 318.1C470.9 318.3 470.7 318.5 470.4 318.5ZM475.4 300.2C475.3 300.2 475.3 300.2 475.3 300.2C475 300.1 474.8 299.8 474.9 299.5L477.3 290.3C477.4 290 477.7 289.8 478 289.9C478.3 290 478.5 290.3 478.4 290.6L476 299.8C475.9 300 475.7 300.2 475.4 300.2Z" fill="#DDDDDD"/>
<path d="M480.3 281.8C480.2 281.8 480.2 281.8 480.2 281.8C479.9 281.7 479.7 281.4 479.8 281.1L481.2 276L486.3 277.4C486.6 277.5 486.8 277.8 486.7 278.1C486.6 278.4 486.3 278.6 486 278.5L482.1 277.4L481 281.3C480.8 281.7 480.6 281.8 480.3 281.8Z" fill="#DDDDDD"/>
<path d="M541.1 293.4C541 293.4 541 293.4 541 293.4L531.8 290.9C531.5 290.8 531.3 290.5 531.4 290.2C531.5 289.9 531.8 289.7 532.1 289.8L541.3 292.3C541.6 292.4 541.8 292.7 541.7 293C541.6 293.2 541.4 293.4 541.1 293.4ZM522.8 288.4C522.7 288.4 522.7 288.4 522.7 288.4L513.5 285.9C513.2 285.8 513 285.5 513.1 285.2C513.2 284.9 513.5 284.7 513.8 284.8L523 287.3C523.3 287.4 523.5 287.7 523.4 288C523.3 288.3 523 288.4 522.8 288.4ZM504.4 283.5C504.3 283.5 504.3 283.5 504.3 283.5L495.1 281C494.8 280.9 494.6 280.6 494.7 280.3C494.8 280 495.1 279.8 495.4 279.9L504.6 282.4C504.9 282.5 505.1 282.8 505 283.1C504.9 283.3 504.7 283.5 504.4 283.5Z" fill="#DDDDDD"/>
<path d="M553.6 301.6C553.5 301.6 553.5 301.6 553.5 301.6C553.2 301.5 553 301.2 553.1 300.9L554.2 297L550.3 295.9C550 295.8 549.8 295.5 549.9 295.2C550 294.9 550.3 294.7 550.6 294.8L555.7 296.2L554.3 301.3C554.1 301.5 553.8 301.6 553.6 301.6Z" fill="#DDDDDD"/>
<path d="M543.7 338.3C543.6 338.3 543.6 338.3 543.6 338.3C543.3 338.2 543.1 337.9 543.2 337.6L545.6 328.4C545.7 328.1 546 327.9 546.3 328C546.6 328.1 546.8 328.4 546.7 328.7L544.3 337.9C544.2 338.1 543.9 338.3 543.7 338.3ZM548.7 320C548.6 320 548.6 320 548.6 320C548.3 319.9 548.1 319.6 548.2 319.3L550.6 310.1C550.7 309.8 551 309.6 551.3 309.7C551.6 309.8 551.8 310.1 551.7 310.4L549.3 319.6C549.2 319.8 548.9 320 548.7 320Z" fill="#DDDDDD"/>
<path d="M342.9 304.4C328.5 303.1 317.2 300.3 310.2 298.2C320.3 304.2 332.4 308.4 345.7 309.8C353.8 310.7 361.8 310.5 369.2 309.4C369.1 307.5 369.1 305.8 369.1 304.3C362.2 305.1 353.1 305.4 342.9 304.4Z" fill="#AEAEAE"/>
<path d="M11.1 137.3C10.9 137.3 10.7 137.2 10.6 137.1C9.70001 135.8 9.00008 134.4 8.30008 132.9C8.20008 132.6 8.30001 132.3 8.60001 132.1C8.90001 132 9.20006 132.1 9.40006 132.4C10.0001 133.8 10.7 135.2 11.6 136.4C11.8 136.7 11.7 137 11.5 137.2C11.4 137.3 11.2 137.3 11.1 137.3Z" fill="#DDDDDD"/>
<path d="M7 123.8C6.7 123.8 6.40002 123.5 6.40002 123.2V122.9C6.40002 119.7 6.90005 116.6 7.80005 113.4C7.90005 113.1 8.2 112.9 8.5 113C8.8 113.1 9.00002 113.4 8.90002 113.7C8.00002 116.7 7.5 119.8 7.5 122.8V123C7.6 123.5 7.3 123.8 7 123.8ZM12.6 105.5C12.5 105.5 12.4 105.5 12.3 105.4C12 105.3 11.9 104.9 12.2 104.6C13.9 102 15.9 99.4 18.4 97C18.6 96.8 19 96.8 19.2 97C19.4 97.2 19.4 97.6 19.2 97.8C16.8 100.2 14.8 102.7 13.2 105.2C13 105.4 12.9 105.5 12.6 105.5ZM26.1 91.6999C26 91.6999 25.7 91.6 25.7 91.5C25.5 91.2 25.6 90.8999 25.8 90.6999C27.4 89.4999 29.1 88.3 31 87C31.9 86.4 32.9 85.6999 33.9 85.0999C34.2 84.9999 34.5 84.9999 34.7 85.1999C34.8 85.4999 34.8 85.8 34.6 86C33.7 86.6 32.7 87.2 31.7 87.9C29.8 89.1 28.2 90.2999 26.6 91.5999C26.3 91.5999 26.2 91.6999 26.1 91.6999ZM42.2 80.9C42 80.9 41.7999 80.7999 41.7 80.5999C41.6 80.2999 41.6 80 41.8 79.8C45 77.7 47.5 75.9999 49.6 74.1999C49.8 73.9999 50.2 74.1 50.4 74.3C50.6 74.5 50.5 74.8999 50.3 75.0999C48.1 76.8999 45.6 78.6 42.3 80.8C42.4 80.9 42.2999 80.9 42.2 80.9ZM75.7 75.0999C75.3999 75.0999 75.1 74.8 75.1 74.5C75.1 74.2 75.2999 73.9 75.7 73.9C78.8999 73.8 82 73.4999 85.2 72.6999C85.5 72.5999 85.8 72.7999 85.9 73.0999C86 73.3999 85.8 73.7 85.5 73.8C82.2 74.6 78.8999 74.9999 75.7 75.0999ZM66.1 74.1999C66 74.1999 66 74.1999 66 74.1999C62.8 73.5999 59.6 72.6 56.7 71.3C56.4 71.2 56.3 70.8 56.4 70.5C56.5 70.2 56.9 70.0999 57.2 70.1999C60.1 71.4999 63.2001 72.3999 66.3 73.0999C66.6 73.1999 66.7999 73.5 66.7 73.8C66.6 74 66.4 74.1999 66.1 74.1999ZM94.5 70.9C94.3 70.9 94.1 70.8 94 70.5C93.9 70.2 94 69.8999 94.3 69.6999C97.1001 68.4999 99.9 67 102.8 65.3C103.1 65.2 103.4 65.2 103.6 65.5C103.7 65.8 103.7 66.1 103.4 66.3C100.4 68.1 97.6 69.4999 94.7 70.6999C94.6 70.7999 94.5 70.9 94.5 70.9ZM57 68.5999C56.9 68.5999 56.7 68.5 56.6 68.5C56.4 68.3 56.3 67.8999 56.5 67.6999C58.7 65.1999 60.3 62.4999 61.6 59.6999C61.7 59.3999 62.1 59.3 62.4 59.4C62.7 59.5 62.7999 59.8999 62.7 60.1999C61.4 63.0999 59.6 65.9 57.5 68.5C57.3 68.6 57.2 68.5999 57 68.5999ZM48.6 66.3C48.5 66.3 48.2999 66.1999 48.2 66.1999C45.5 63.9999 43.3 61.6 41.6 58.9C41.5 58.6 41.5 58.2999 41.8 58.0999C42.1 57.9999 42.4 58 42.6 58.3C44.2 60.9 46.3 63.2 48.9 65.3C49.1 65.5 49.2 65.8999 49 66.0999C48.9 66.2999 48.7 66.3 48.6 66.3ZM111.1 61C110.9 61 110.7 60.9 110.6 60.8C110.4 60.5 110.5 60.2 110.7 60C113.1 58.3 115.4 56.6 117.5 54.8L118.4 54.0999C118.7 53.8999 119 53.9999 119.2 54.1999C119.3 54.3999 119.3 54.8 119.1 55L118.2 55.6999C116 57.3999 113.8 59.1 111.4 60.9C111.3 61 111.2 61 111.1 61ZM64.6 51.0999C64.2 51.0999 64 50.8 64 50.5C64 50.1 64 49.8 64 49.4C64 48.1 63.9 46.8 63.6 45.5C63.3 44.1 62.9 42.7 62.2 41.3C62.1 41 62.2 40.7 62.5 40.5C62.8 40.4 63.1 40.5 63.3 40.8C64 42.2 64.5 43.6999 64.8 45.1999C65.1 46.4999 65.2 47.9 65.2 49.3C65.2 49.7 65.2 50.1 65.2 50.5C65.1 50.9 64.8 51.0999 64.6 51.0999ZM38.8 50.0999C38.5 50.0999 38.2 49.8999 38.2 49.5999C38.1 48.9999 38.1 48.1999 38.1 47.5999C38.1 44.8999 38.7 42.2 39.7 39.9C39.7999 39.6 40.2 39.4999 40.5 39.5999C40.8 39.6999 40.9 40.1 40.8 40.4C39.8 42.6 39.3 45.0999 39.3 47.6999C39.3 48.2999 39.3 48.9999 39.4 49.5999C39.5 49.7999 39.2001 50.0999 38.8 50.0999C38.9 50.0999 38.9 50.0999 38.8 50.0999ZM56.2 34.6999C56.1 34.6999 56 34.6999 55.9 34.5999C53.5 33.1999 51 32.8 48.6 33.4C48.1 33.5 47.6 33.7 47.1 33.8C46.8 33.9 46.5 33.8 46.4 33.4C46.3 33.1 46.4 32.7999 46.8 32.6999C47.3 32.4999 47.9 32.2999 48.4 32.1999C51.1 31.5999 53.9 32.0999 56.6 33.5999C56.9 33.6999 57 34.1 56.8 34.4C56.6 34.6 56.4 34.6999 56.2 34.6999Z" fill="#DDDDDD"/>
<path d="M126.7 49.5C126.5 49.5 126.3 49.4 126.2 49.2C126.1 48.9 126.1 48.6 126.4 48.4C128.1 47.4 129.5 46.7001 130.8 46.3001C131.1 46.2001 131.4 46.4 131.5 46.7C131.6 47 131.4 47.3 131.1 47.4C130 47.8 128.6 48.3001 127 49.3001C127 49.5001 126.9 49.5 126.7 49.5Z" fill="#DDDDDD"/>
</svg>
