<svg width="549" height="49" viewBox="0 0 549 49" fill="none" xmlns="http://www.w3.org/2000/svg">
<path d="M0.3125 37V2.73438H7.57812V31H21.4766V37H0.3125ZM37.7422 15.3906C36.2266 15.3906 35.0391 15.875 34.1797 16.8438C33.3203 17.7969 32.8281 19.1562 32.7031 20.9219H42.7344C42.7031 19.1562 42.2422 17.7969 41.3516 16.8438C40.4609 15.875 39.2578 15.3906 37.7422 15.3906ZM38.75 37.4688C34.5312 37.4688 31.2344 36.3047 28.8594 33.9766C26.4844 31.6484 25.2969 28.3516 25.2969 24.0859C25.2969 19.6953 26.3906 16.3047 28.5781 13.9141C30.7812 11.5078 33.8203 10.3047 37.6953 10.3047C41.3984 10.3047 44.2812 11.3594 46.3438 13.4688C48.4062 15.5781 49.4375 18.4922 49.4375 22.2109V25.6797H32.5391C32.6172 27.7109 33.2188 29.2969 34.3438 30.4375C35.4688 31.5781 37.0469 32.1484 39.0781 32.1484C40.6562 32.1484 42.1484 31.9844 43.5547 31.6562C44.9609 31.3281 46.4297 30.8047 47.9609 30.0859V35.6172C46.7109 36.2422 45.375 36.7031 43.9531 37C42.5312 37.3125 40.7969 37.4688 38.75 37.4688ZM71.8906 37L70.5078 33.4375H70.3203C69.1172 34.9531 67.875 36.0078 66.5938 36.6016C65.3281 37.1797 63.6719 37.4688 61.625 37.4688C59.1094 37.4688 57.125 36.75 55.6719 35.3125C54.2344 33.875 53.5156 31.8281 53.5156 29.1719C53.5156 26.3906 54.4844 24.3438 56.4219 23.0312C58.375 21.7031 61.3125 20.9688 65.2344 20.8281L69.7812 20.6875V19.5391C69.7812 16.8828 68.4219 15.5547 65.7031 15.5547C63.6094 15.5547 61.1484 16.1875 58.3203 17.4531L55.9531 12.625C58.9688 11.0469 62.3125 10.2578 65.9844 10.2578C69.5 10.2578 72.1953 11.0234 74.0703 12.5547C75.9453 14.0859 76.8828 16.4141 76.8828 19.5391V37H71.8906ZM69.7812 24.8594L67.0156 24.9531C64.9375 25.0156 63.3906 25.3906 62.375 26.0781C61.3594 26.7656 60.8516 27.8125 60.8516 29.2188C60.8516 31.2344 62.0078 32.2422 64.3203 32.2422C65.9766 32.2422 67.2969 31.7656 68.2812 30.8125C69.2812 29.8594 69.7812 28.5938 69.7812 27.0156V24.8594ZM98.8906 10.3047C99.8594 10.3047 100.664 10.375 101.305 10.5156L100.766 17.2188C100.188 17.0625 99.4844 16.9844 98.6562 16.9844C96.375 16.9844 94.5938 17.5703 93.3125 18.7422C92.0469 19.9141 91.4141 21.5547 91.4141 23.6641V37H84.2656V10.7969H89.6797L90.7344 15.2031H91.0859C91.8984 13.7344 92.9922 12.5547 94.3672 11.6641C95.7578 10.7578 97.2656 10.3047 98.8906 10.3047ZM130.25 37H123.102V21.6953C123.102 19.8047 122.766 18.3906 122.094 17.4531C121.422 16.5 120.352 16.0234 118.883 16.0234C116.883 16.0234 115.438 16.6953 114.547 18.0391C113.656 19.3672 113.211 21.5781 113.211 24.6719V37H106.062V10.7969H111.523L112.484 14.1484H112.883C113.68 12.8828 114.773 11.9297 116.164 11.2891C117.57 10.6328 119.164 10.3047 120.945 10.3047C123.992 10.3047 126.305 11.1328 127.883 12.7891C129.461 14.4297 130.25 16.8047 130.25 19.9141V37ZM137.305 4.02344C137.305 1.69531 138.602 0.53125 141.195 0.53125C143.789 0.53125 145.086 1.69531 145.086 4.02344C145.086 5.13281 144.758 6 144.102 6.625C143.461 7.23438 142.492 7.53906 141.195 7.53906C138.602 7.53906 137.305 6.36719 137.305 4.02344ZM144.758 37H137.609V10.7969H144.758V37ZM176.469 37H169.32V21.6953C169.32 19.8047 168.984 18.3906 168.312 17.4531C167.641 16.5 166.57 16.0234 165.102 16.0234C163.102 16.0234 161.656 16.6953 160.766 18.0391C159.875 19.3672 159.43 21.5781 159.43 24.6719V37H152.281V10.7969H157.742L158.703 14.1484H159.102C159.898 12.8828 160.992 11.9297 162.383 11.2891C163.789 10.6328 165.383 10.3047 167.164 10.3047C170.211 10.3047 172.523 11.1328 174.102 12.7891C175.68 14.4297 176.469 16.8047 176.469 19.9141V37ZM206.633 10.7969V14.4297L202.531 15.4844C203.281 16.6562 203.656 17.9688 203.656 19.4219C203.656 22.2344 202.672 24.4297 200.703 26.0078C198.75 27.5703 196.031 28.3516 192.547 28.3516L191.258 28.2812L190.203 28.1641C189.469 28.7266 189.102 29.3516 189.102 30.0391C189.102 31.0703 190.414 31.5859 193.039 31.5859H197.492C200.367 31.5859 202.555 32.2031 204.055 33.4375C205.57 34.6719 206.328 36.4844 206.328 38.875C206.328 41.9375 205.047 44.3125 202.484 46C199.938 47.6875 196.273 48.5312 191.492 48.5312C187.836 48.5312 185.039 47.8906 183.102 46.6094C181.18 45.3438 180.219 43.5625 180.219 41.2656C180.219 39.6875 180.711 38.3672 181.695 37.3047C182.68 36.2422 184.125 35.4844 186.031 35.0312C185.297 34.7188 184.656 34.2109 184.109 33.5078C183.562 32.7891 183.289 32.0312 183.289 31.2344C183.289 30.2344 183.578 29.4062 184.156 28.75C184.734 28.0781 185.57 27.4219 186.664 26.7812C185.289 26.1875 184.195 25.2344 183.383 23.9219C182.586 22.6094 182.188 21.0625 182.188 19.2812C182.188 16.4219 183.117 14.2109 184.977 12.6484C186.836 11.0859 189.492 10.3047 192.945 10.3047C193.68 10.3047 194.547 10.375 195.547 10.5156C196.562 10.6406 197.211 10.7344 197.492 10.7969H206.633ZM186.406 40.7031C186.406 41.6875 186.875 42.4609 187.812 43.0234C188.766 43.5859 190.094 43.8672 191.797 43.8672C194.359 43.8672 196.367 43.5156 197.82 42.8125C199.273 42.1094 200 41.1484 200 39.9297C200 38.9453 199.57 38.2656 198.711 37.8906C197.852 37.5156 196.523 37.3281 194.727 37.3281H191.023C189.711 37.3281 188.609 37.6328 187.719 38.2422C186.844 38.8672 186.406 39.6875 186.406 40.7031ZM189.008 19.375C189.008 20.7969 189.328 21.9219 189.969 22.75C190.625 23.5781 191.617 23.9922 192.945 23.9922C194.289 23.9922 195.273 23.5781 195.898 22.75C196.523 21.9219 196.836 20.7969 196.836 19.375C196.836 16.2188 195.539 14.6406 192.945 14.6406C190.32 14.6406 189.008 16.2188 189.008 19.375ZM231.758 27.4844C231.758 30.5781 230.641 33.0156 228.406 34.7969C226.188 36.5781 223.094 37.4688 219.125 37.4688C215.469 37.4688 212.234 36.7812 209.422 35.4062V28.6562C211.734 29.6875 213.688 30.4141 215.281 30.8359C216.891 31.2578 218.359 31.4688 219.688 31.4688C221.281 31.4688 222.5 31.1641 223.344 30.5547C224.203 29.9453 224.633 29.0391 224.633 27.8359C224.633 27.1641 224.445 26.5703 224.07 26.0547C223.695 25.5234 223.141 25.0156 222.406 24.5312C221.688 24.0469 220.211 23.2734 217.977 22.2109C215.883 21.2266 214.312 20.2812 213.266 19.375C212.219 18.4688 211.383 17.4141 210.758 16.2109C210.133 15.0078 209.82 13.6016 209.82 11.9922C209.82 8.96094 210.844 6.57812 212.891 4.84375C214.953 3.10938 217.797 2.24219 221.422 2.24219C223.203 2.24219 224.898 2.45312 226.508 2.875C228.133 3.29688 229.828 3.89062 231.594 4.65625L229.25 10.3047C227.422 9.55469 225.906 9.03125 224.703 8.73438C223.516 8.4375 222.344 8.28906 221.188 8.28906C219.812 8.28906 218.758 8.60938 218.023 9.25C217.289 9.89062 216.922 10.7266 216.922 11.7578C216.922 12.3984 217.07 12.9609 217.367 13.4453C217.664 13.9141 218.133 14.375 218.773 14.8281C219.43 15.2656 220.969 16.0625 223.391 17.2188C226.594 18.75 228.789 20.2891 229.977 21.8359C231.164 23.3672 231.758 25.25 231.758 27.4844ZM254.047 37L252.664 33.4375H252.477C251.273 34.9531 250.031 36.0078 248.75 36.6016C247.484 37.1797 245.828 37.4688 243.781 37.4688C241.266 37.4688 239.281 36.75 237.828 35.3125C236.391 33.875 235.672 31.8281 235.672 29.1719C235.672 26.3906 236.641 24.3438 238.578 23.0312C240.531 21.7031 243.469 20.9688 247.391 20.8281L251.938 20.6875V19.5391C251.938 16.8828 250.578 15.5547 247.859 15.5547C245.766 15.5547 243.305 16.1875 240.477 17.4531L238.109 12.625C241.125 11.0469 244.469 10.2578 248.141 10.2578C251.656 10.2578 254.352 11.0234 256.227 12.5547C258.102 14.0859 259.039 16.4141 259.039 19.5391V37H254.047ZM251.938 24.8594L249.172 24.9531C247.094 25.0156 245.547 25.3906 244.531 26.0781C243.516 26.7656 243.008 27.8125 243.008 29.2188C243.008 31.2344 244.164 32.2422 246.477 32.2422C248.133 32.2422 249.453 31.7656 250.438 30.8125C251.438 29.8594 251.938 28.5938 251.938 27.0156V24.8594ZM281 10.3047C284.094 10.3047 286.516 11.5156 288.266 13.9375C290.016 16.3438 290.891 19.6484 290.891 23.8516C290.891 28.1797 289.984 31.5312 288.172 33.9062C286.375 36.2812 283.922 37.4688 280.812 37.4688C277.734 37.4688 275.32 36.3516 273.57 34.1172H273.078L271.883 37H266.422V0.53125H273.57V9.01562C273.57 10.0938 273.477 11.8203 273.289 14.1953H273.57C275.242 11.6016 277.719 10.3047 281 10.3047ZM278.703 16.0234C276.938 16.0234 275.648 16.5703 274.836 17.6641C274.023 18.7422 273.602 20.5312 273.57 23.0312V23.8047C273.57 26.6172 273.984 28.6328 274.812 29.8516C275.656 31.0703 276.984 31.6797 278.797 31.6797C280.266 31.6797 281.43 31.0078 282.289 29.6641C283.164 28.3047 283.602 26.3359 283.602 23.7578C283.602 21.1797 283.164 19.25 282.289 17.9688C281.414 16.6719 280.219 16.0234 278.703 16.0234ZM311.375 10.3047C314.469 10.3047 316.891 11.5156 318.641 13.9375C320.391 16.3438 321.266 19.6484 321.266 23.8516C321.266 28.1797 320.359 31.5312 318.547 33.9062C316.75 36.2812 314.297 37.4688 311.188 37.4688C308.109 37.4688 305.695 36.3516 303.945 34.1172H303.453L302.258 37H296.797V0.53125H303.945V9.01562C303.945 10.0938 303.852 11.8203 303.664 14.1953H303.945C305.617 11.6016 308.094 10.3047 311.375 10.3047ZM309.078 16.0234C307.312 16.0234 306.023 16.5703 305.211 17.6641C304.398 18.7422 303.977 20.5312 303.945 23.0312V23.8047C303.945 26.6172 304.359 28.6328 305.188 29.8516C306.031 31.0703 307.359 31.6797 309.172 31.6797C310.641 31.6797 311.805 31.0078 312.664 29.6641C313.539 28.3047 313.977 26.3359 313.977 23.7578C313.977 21.1797 313.539 19.25 312.664 17.9688C311.789 16.6719 310.594 16.0234 309.078 16.0234ZM343.812 37L342.43 33.4375H342.242C341.039 34.9531 339.797 36.0078 338.516 36.6016C337.25 37.1797 335.594 37.4688 333.547 37.4688C331.031 37.4688 329.047 36.75 327.594 35.3125C326.156 33.875 325.438 31.8281 325.438 29.1719C325.438 26.3906 326.406 24.3438 328.344 23.0312C330.297 21.7031 333.234 20.9688 337.156 20.8281L341.703 20.6875V19.5391C341.703 16.8828 340.344 15.5547 337.625 15.5547C335.531 15.5547 333.07 16.1875 330.242 17.4531L327.875 12.625C330.891 11.0469 334.234 10.2578 337.906 10.2578C341.422 10.2578 344.117 11.0234 345.992 12.5547C347.867 14.0859 348.805 16.4141 348.805 19.5391V37H343.812ZM341.703 24.8594L338.938 24.9531C336.859 25.0156 335.312 25.3906 334.297 26.0781C333.281 26.7656 332.773 27.8125 332.773 29.2188C332.773 31.2344 333.93 32.2422 336.242 32.2422C337.898 32.2422 339.219 31.7656 340.203 30.8125C341.203 29.8594 341.703 28.5938 341.703 27.0156V24.8594ZM367.227 31.7734C368.477 31.7734 369.977 31.5 371.727 30.9531V36.2734C369.945 37.0703 367.758 37.4688 365.164 37.4688C362.305 37.4688 360.219 36.75 358.906 35.3125C357.609 33.8594 356.961 31.6875 356.961 28.7969V16.1641H353.539V13.1406L357.477 10.75L359.539 5.21875H364.109V10.7969H371.445V16.1641H364.109V28.7969C364.109 29.8125 364.391 30.5625 364.953 31.0469C365.531 31.5312 366.289 31.7734 367.227 31.7734ZM376.742 4.02344C376.742 1.69531 378.039 0.53125 380.633 0.53125C383.227 0.53125 384.523 1.69531 384.523 4.02344C384.523 5.13281 384.195 6 383.539 6.625C382.898 7.23438 381.93 7.53906 380.633 7.53906C378.039 7.53906 376.742 6.36719 376.742 4.02344ZM384.195 37H377.047V10.7969H384.195V37ZM402.359 37.4688C394.203 37.4688 390.125 32.9922 390.125 24.0391C390.125 19.5859 391.234 16.1875 393.453 13.8438C395.672 11.4844 398.852 10.3047 402.992 10.3047C406.023 10.3047 408.742 10.8984 411.148 12.0859L409.039 17.6172C407.914 17.1641 406.867 16.7969 405.898 16.5156C404.93 16.2188 403.961 16.0703 402.992 16.0703C399.273 16.0703 397.414 18.7109 397.414 23.9922C397.414 29.1172 399.273 31.6797 402.992 31.6797C404.367 31.6797 405.641 31.5 406.812 31.1406C407.984 30.7656 409.156 30.1875 410.328 29.4062V35.5234C409.172 36.2578 408 36.7656 406.812 37.0469C405.641 37.3281 404.156 37.4688 402.359 37.4688ZM433.062 37L431.68 33.4375H431.492C430.289 34.9531 429.047 36.0078 427.766 36.6016C426.5 37.1797 424.844 37.4688 422.797 37.4688C420.281 37.4688 418.297 36.75 416.844 35.3125C415.406 33.875 414.688 31.8281 414.688 29.1719C414.688 26.3906 415.656 24.3438 417.594 23.0312C419.547 21.7031 422.484 20.9688 426.406 20.8281L430.953 20.6875V19.5391C430.953 16.8828 429.594 15.5547 426.875 15.5547C424.781 15.5547 422.32 16.1875 419.492 17.4531L417.125 12.625C420.141 11.0469 423.484 10.2578 427.156 10.2578C430.672 10.2578 433.367 11.0234 435.242 12.5547C437.117 14.0859 438.055 16.4141 438.055 19.5391V37H433.062ZM430.953 24.8594L428.188 24.9531C426.109 25.0156 424.562 25.3906 423.547 26.0781C422.531 26.7656 422.023 27.8125 422.023 29.2188C422.023 31.2344 423.18 32.2422 425.492 32.2422C427.148 32.2422 428.469 31.7656 429.453 30.8125C430.453 29.8594 430.953 28.5938 430.953 27.0156V24.8594ZM452.586 37H445.438V0.53125H452.586V37ZM459.102 33.6484C459.102 32.3359 459.453 31.3438 460.156 30.6719C460.859 30 461.883 29.6641 463.227 29.6641C464.523 29.6641 465.523 30.0078 466.227 30.6953C466.945 31.3828 467.305 32.3672 467.305 33.6484C467.305 34.8828 466.945 35.8594 466.227 36.5781C465.508 37.2812 464.508 37.6328 463.227 37.6328C461.914 37.6328 460.898 37.2891 460.18 36.6016C459.461 35.8984 459.102 34.9141 459.102 33.6484ZM479.492 23.8516C479.492 26.4453 479.914 28.4062 480.758 29.7344C481.617 31.0625 483.008 31.7266 484.93 31.7266C486.836 31.7266 488.203 31.0703 489.031 29.7578C489.875 28.4297 490.297 26.4609 490.297 23.8516C490.297 21.2578 489.875 19.3125 489.031 18.0156C488.188 16.7188 486.805 16.0703 484.883 16.0703C482.977 16.0703 481.602 16.7188 480.758 18.0156C479.914 19.2969 479.492 21.2422 479.492 23.8516ZM497.609 23.8516C497.609 28.1172 496.484 31.4531 494.234 33.8594C491.984 36.2656 488.852 37.4688 484.836 37.4688C482.32 37.4688 480.102 36.9219 478.18 35.8281C476.258 34.7188 474.781 33.1328 473.75 31.0703C472.719 29.0078 472.203 26.6016 472.203 23.8516C472.203 19.5703 473.32 16.2422 475.555 13.8672C477.789 11.4922 480.93 10.3047 484.977 10.3047C487.492 10.3047 489.711 10.8516 491.633 11.9453C493.555 13.0391 495.031 14.6094 496.062 16.6562C497.094 18.7031 497.609 21.1016 497.609 23.8516ZM518.141 10.3047C519.109 10.3047 519.914 10.375 520.555 10.5156L520.016 17.2188C519.438 17.0625 518.734 16.9844 517.906 16.9844C515.625 16.9844 513.844 17.5703 512.562 18.7422C511.297 19.9141 510.664 21.5547 510.664 23.6641V37H503.516V10.7969H508.93L509.984 15.2031H510.336C511.148 13.7344 512.242 12.5547 513.617 11.6641C515.008 10.7578 516.516 10.3047 518.141 10.3047ZM548.117 10.7969V14.4297L544.016 15.4844C544.766 16.6562 545.141 17.9688 545.141 19.4219C545.141 22.2344 544.156 24.4297 542.188 26.0078C540.234 27.5703 537.516 28.3516 534.031 28.3516L532.742 28.2812L531.688 28.1641C530.953 28.7266 530.586 29.3516 530.586 30.0391C530.586 31.0703 531.898 31.5859 534.523 31.5859H538.977C541.852 31.5859 544.039 32.2031 545.539 33.4375C547.055 34.6719 547.812 36.4844 547.812 38.875C547.812 41.9375 546.531 44.3125 543.969 46C541.422 47.6875 537.758 48.5312 532.977 48.5312C529.32 48.5312 526.523 47.8906 524.586 46.6094C522.664 45.3438 521.703 43.5625 521.703 41.2656C521.703 39.6875 522.195 38.3672 523.18 37.3047C524.164 36.2422 525.609 35.4844 527.516 35.0312C526.781 34.7188 526.141 34.2109 525.594 33.5078C525.047 32.7891 524.773 32.0312 524.773 31.2344C524.773 30.2344 525.062 29.4062 525.641 28.75C526.219 28.0781 527.055 27.4219 528.148 26.7812C526.773 26.1875 525.68 25.2344 524.867 23.9219C524.07 22.6094 523.672 21.0625 523.672 19.2812C523.672 16.4219 524.602 14.2109 526.461 12.6484C528.32 11.0859 530.977 10.3047 534.43 10.3047C535.164 10.3047 536.031 10.375 537.031 10.5156C538.047 10.6406 538.695 10.7344 538.977 10.7969H548.117ZM527.891 40.7031C527.891 41.6875 528.359 42.4609 529.297 43.0234C530.25 43.5859 531.578 43.8672 533.281 43.8672C535.844 43.8672 537.852 43.5156 539.305 42.8125C540.758 42.1094 541.484 41.1484 541.484 39.9297C541.484 38.9453 541.055 38.2656 540.195 37.8906C539.336 37.5156 538.008 37.3281 536.211 37.3281H532.508C531.195 37.3281 530.094 37.6328 529.203 38.2422C528.328 38.8672 527.891 39.6875 527.891 40.7031ZM530.492 19.375C530.492 20.7969 530.812 21.9219 531.453 22.75C532.109 23.5781 533.102 23.9922 534.43 23.9922C535.773 23.9922 536.758 23.5781 537.383 22.75C538.008 21.9219 538.32 20.7969 538.32 19.375C538.32 16.2188 537.023 14.6406 534.43 14.6406C531.805 14.6406 530.492 16.2188 530.492 19.375Z" fill="black"/>
</svg>
