<svg width="644" height="57" viewBox="0 0 644 57" fill="none" xmlns="http://www.w3.org/2000/svg">
<path d="M80.3659 12.1707V47H105V40.561H88.0244V12.1707H80.3659ZM125.532 31.6829H114.263C114.296 31.1951 114.393 30.6423 114.556 30.0244C114.751 29.4065 115.06 28.8211 115.483 28.2683C115.938 27.7154 116.524 27.2602 117.239 26.9024C117.987 26.5122 118.914 26.3171 120.019 26.3171C121.71 26.3171 122.963 26.7724 123.776 27.6829C124.621 28.5935 125.206 29.9268 125.532 31.6829ZM114.263 36.0732H132.458C132.589 34.122 132.426 32.252 131.971 30.4634C131.515 28.6748 130.767 27.0813 129.727 25.6829C128.719 24.2846 127.418 23.1789 125.824 22.3659C124.231 21.5203 122.361 21.0976 120.215 21.0976C118.296 21.0976 116.54 21.439 114.946 22.122C113.385 22.8049 112.036 23.748 110.897 24.9512C109.759 26.122 108.881 27.5203 108.263 29.1463C107.645 30.7724 107.337 32.5285 107.337 34.4146C107.337 36.3659 107.629 38.1545 108.215 39.7805C108.832 41.4065 109.694 42.8049 110.8 43.9756C111.906 45.1463 113.255 46.0569 114.849 46.7073C116.442 47.3252 118.231 47.6341 120.215 47.6341C123.076 47.6341 125.515 46.9837 127.532 45.6829C129.548 44.3821 131.044 42.2195 132.019 39.1951H125.922C125.694 39.9756 125.076 40.7236 124.068 41.439C123.06 42.122 121.857 42.4634 120.458 42.4634C118.507 42.4634 117.011 41.9593 115.971 40.9512C114.93 39.9431 114.361 38.3171 114.263 36.0732ZM136.248 29.5366C136.345 27.9106 136.752 26.561 137.467 25.4878C138.183 24.4146 139.093 23.5528 140.199 22.9024C141.305 22.252 142.54 21.7967 143.906 21.5366C145.305 21.2439 146.703 21.0976 148.101 21.0976C149.37 21.0976 150.654 21.1951 151.955 21.3902C153.256 21.5528 154.443 21.8943 155.516 22.4146C156.589 22.935 157.467 23.6667 158.15 24.6098C158.833 25.5203 159.175 26.7398 159.175 28.2683V41.3902C159.175 42.5285 159.24 43.6179 159.37 44.6585C159.5 45.6992 159.727 46.4797 160.053 47H153.028C152.898 46.6098 152.784 46.2195 152.687 45.8293C152.622 45.4065 152.573 44.9837 152.54 44.561C151.435 45.6992 150.134 46.4959 148.638 46.9512C147.142 47.4065 145.614 47.6341 144.053 47.6341C142.849 47.6341 141.727 47.4878 140.687 47.1951C139.646 46.9024 138.736 46.4472 137.955 45.8293C137.175 45.2114 136.557 44.4309 136.101 43.4878C135.679 42.5447 135.467 41.4228 135.467 40.122C135.467 38.6911 135.711 37.5203 136.199 36.6098C136.719 35.6667 137.37 34.9187 138.15 34.3659C138.963 33.813 139.874 33.4065 140.882 33.1463C141.923 32.8537 142.963 32.626 144.004 32.4634C145.044 32.3008 146.069 32.1707 147.077 32.0732C148.085 31.9756 148.979 31.8293 149.76 31.6341C150.54 31.439 151.158 31.1626 151.614 30.8049C152.069 30.4146 152.28 29.8618 152.248 29.1463C152.248 28.3984 152.118 27.813 151.857 27.3902C151.63 26.935 151.305 26.5935 150.882 26.3659C150.492 26.1057 150.02 25.9431 149.467 25.878C148.947 25.7805 148.378 25.7317 147.76 25.7317C146.394 25.7317 145.321 26.0244 144.54 26.6098C143.76 27.1951 143.305 28.1707 143.175 29.5366H136.248ZM152.248 34.6585C151.955 34.9187 151.581 35.1301 151.126 35.2927C150.703 35.4228 150.231 35.5366 149.711 35.6341C149.223 35.7317 148.703 35.813 148.15 35.878C147.597 35.9431 147.044 36.0244 146.492 36.122C145.971 36.2195 145.451 36.3496 144.931 36.5122C144.443 36.6748 144.004 36.9024 143.614 37.1951C143.256 37.4553 142.963 37.7967 142.736 38.2195C142.508 38.6423 142.394 39.1789 142.394 39.8293C142.394 40.4472 142.508 40.9675 142.736 41.3902C142.963 41.813 143.272 42.1545 143.662 42.4146C144.053 42.6423 144.508 42.8049 145.028 42.9024C145.549 43 146.085 43.0488 146.638 43.0488C148.004 43.0488 149.061 42.8211 149.809 42.3659C150.557 41.9106 151.11 41.374 151.467 40.7561C151.825 40.1057 152.036 39.4553 152.101 38.8049C152.199 38.1545 152.248 37.6341 152.248 37.2439V34.6585ZM164.525 21.7805V47H171.452V35.6341C171.452 34.4959 171.565 33.439 171.793 32.4634C172.021 31.4878 172.395 30.6423 172.915 29.9268C173.468 29.1789 174.183 28.5935 175.061 28.1707C175.939 27.748 177.013 27.5366 178.281 27.5366C178.704 27.5366 179.143 27.5691 179.598 27.6341C180.053 27.6667 180.443 27.7154 180.769 27.7805V21.3415C180.216 21.1789 179.712 21.0976 179.256 21.0976C178.378 21.0976 177.533 21.2276 176.72 21.4878C175.907 21.748 175.143 22.122 174.427 22.6098C173.712 23.065 173.078 23.6341 172.525 24.3171C171.972 24.9675 171.533 25.6829 171.208 26.4634H171.11V21.7805H164.525ZM184.4 21.7805V47H191.327V33.7805C191.327 31.2114 191.749 29.374 192.595 28.2683C193.44 27.1301 194.806 26.561 196.692 26.561C198.351 26.561 199.505 27.0813 200.156 28.122C200.806 29.1301 201.131 30.6748 201.131 32.7561V47H208.058V31.4878C208.058 29.9268 207.912 28.5122 207.619 27.2439C207.359 25.9431 206.888 24.8537 206.205 23.9756C205.522 23.065 204.579 22.3659 203.375 21.878C202.205 21.3577 200.692 21.0976 198.839 21.0976C197.375 21.0976 195.944 21.439 194.546 22.122C193.148 22.7724 192.01 23.8293 191.131 25.2927H190.985V21.7805H184.4ZM220.444 17.8781V12.1707H213.517V17.8781H220.444ZM213.517 21.7805V47H220.444V21.7805H213.517ZM225.884 21.7805V47H232.811V33.7805C232.811 31.2114 233.234 29.374 234.079 28.2683C234.925 27.1301 236.291 26.561 238.177 26.561C239.835 26.561 240.99 27.0813 241.64 28.122C242.291 29.1301 242.616 30.6748 242.616 32.7561V47H249.543V31.4878C249.543 29.9268 249.396 28.5122 249.104 27.2439C248.843 25.9431 248.372 24.8537 247.689 23.9756C247.006 23.065 246.063 22.3659 244.86 21.878C243.689 21.3577 242.177 21.0976 240.323 21.0976C238.86 21.0976 237.429 21.439 236.03 22.122C234.632 22.7724 233.494 23.8293 232.616 25.2927H232.47V21.7805H225.884ZM266.562 41.0488C265.489 41.0488 264.595 40.8211 263.879 40.3659C263.164 39.9106 262.578 39.3252 262.123 38.6098C261.7 37.8943 261.391 37.0976 261.196 36.2195C261.034 35.3089 260.952 34.3984 260.952 33.4878C260.952 32.5447 261.05 31.6504 261.245 30.8049C261.473 29.9268 261.814 29.1626 262.269 28.5122C262.757 27.8293 263.343 27.2927 264.026 26.9024C264.741 26.5122 265.587 26.3171 266.562 26.3171C267.7 26.3171 268.643 26.5285 269.391 26.9512C270.139 27.374 270.741 27.9431 271.196 28.6585C271.652 29.374 271.977 30.2033 272.172 31.1463C272.367 32.0569 272.465 33.0325 272.465 34.0732C272.465 34.9837 272.334 35.8618 272.074 36.7073C271.847 37.5203 271.489 38.252 271.001 38.9024C270.513 39.5528 269.895 40.0732 269.147 40.4634C268.4 40.8537 267.538 41.0488 266.562 41.0488ZM279.05 45.3902V21.7805H272.465V25.1463H272.367C271.521 23.6829 270.465 22.6423 269.196 22.0244C267.96 21.4065 266.513 21.0976 264.855 21.0976C263.099 21.0976 261.538 21.439 260.172 22.122C258.839 22.8049 257.717 23.7317 256.806 24.9024C255.895 26.0407 255.196 27.374 254.708 28.9024C254.253 30.3984 254.026 31.9594 254.026 33.5854C254.026 35.3089 254.221 36.9512 254.611 38.5122C255.034 40.0407 255.684 41.3902 256.562 42.561C257.44 43.6992 258.562 44.6098 259.928 45.2927C261.294 45.9431 262.92 46.2683 264.806 46.2683C266.334 46.2683 267.782 45.9593 269.147 45.3415C270.546 44.6911 271.619 43.6992 272.367 42.3659H272.465V45.6829C272.497 47.4715 272.058 48.9512 271.147 50.122C270.269 51.2927 268.855 51.878 266.904 51.878C265.668 51.878 264.578 51.6179 263.635 51.0976C262.692 50.6098 262.058 49.7154 261.733 48.4146H254.855C254.952 49.8455 255.343 51.065 256.026 52.0732C256.741 53.1138 257.619 53.9593 258.66 54.6098C259.733 55.2602 260.904 55.7317 262.172 56.0244C263.473 56.3496 264.741 56.5122 265.977 56.5122C268.871 56.5122 271.18 56.122 272.904 55.3415C274.627 54.561 275.944 53.6016 276.855 52.4634C277.765 51.3577 278.351 50.1545 278.611 48.8537C278.904 47.5528 279.05 46.3984 279.05 45.3902ZM290.57 35.439H283.155C283.123 37.5854 283.513 39.439 284.326 41C285.139 42.561 286.228 43.8455 287.594 44.8537C288.993 45.8618 290.586 46.5935 292.375 47.0488C294.196 47.5366 296.066 47.7805 297.984 47.7805C300.358 47.7805 302.44 47.5041 304.228 46.9512C306.049 46.3984 307.562 45.6341 308.765 44.6585C310.001 43.6504 310.927 42.4634 311.545 41.0976C312.163 39.7317 312.472 38.252 312.472 36.6585C312.472 34.7073 312.049 33.1138 311.204 31.878C310.391 30.6098 309.415 29.6016 308.277 28.8537C307.139 28.1057 305.984 27.5691 304.814 27.2439C303.675 26.8862 302.781 26.6423 302.131 26.5122C299.952 25.9594 298.179 25.5041 296.814 25.1463C295.48 24.7886 294.423 24.4309 293.643 24.0732C292.895 23.7154 292.391 23.3252 292.131 22.9024C291.871 22.4797 291.74 21.9268 291.74 21.2439C291.74 20.4959 291.903 19.878 292.228 19.3902C292.553 18.9024 292.96 18.4959 293.448 18.1707C293.968 17.8455 294.537 17.6179 295.155 17.4878C295.773 17.3577 296.391 17.2927 297.009 17.2927C297.952 17.2927 298.814 17.374 299.594 17.5366C300.407 17.6992 301.123 17.9756 301.74 18.3659C302.358 18.7561 302.846 19.2927 303.204 19.9756C303.594 20.6585 303.822 21.5203 303.887 22.561H311.301C311.301 20.5447 310.911 18.8374 310.131 17.439C309.383 16.0081 308.358 14.8374 307.058 13.9268C305.757 13.0163 304.261 12.3659 302.57 11.9756C300.911 11.5528 299.171 11.3415 297.35 11.3415C295.789 11.3415 294.228 11.5528 292.667 11.9756C291.106 12.3984 289.708 13.0488 288.472 13.9268C287.236 14.8049 286.228 15.9106 285.448 17.2439C284.7 18.5447 284.326 20.0894 284.326 21.878C284.326 23.4715 284.619 24.8374 285.204 25.9756C285.822 27.0813 286.619 28.0081 287.594 28.7561C288.57 29.5041 289.675 30.122 290.911 30.6098C292.147 31.065 293.415 31.4553 294.716 31.7805C295.984 32.1382 297.236 32.4634 298.472 32.7561C299.708 33.0488 300.814 33.3902 301.789 33.7805C302.765 34.1707 303.545 34.6585 304.131 35.2439C304.749 35.8293 305.058 36.5935 305.058 37.5366C305.058 38.4146 304.83 39.1463 304.375 39.7317C303.919 40.2846 303.35 40.7236 302.667 41.0488C301.984 41.374 301.253 41.6016 300.472 41.7317C299.692 41.8293 298.96 41.878 298.277 41.878C297.269 41.878 296.293 41.7642 295.35 41.5366C294.407 41.2764 293.578 40.9024 292.862 40.4146C292.179 39.8943 291.627 39.2276 291.204 38.4146C290.781 37.6016 290.57 36.6098 290.57 35.439ZM315.966 29.5366C316.064 27.9106 316.471 26.561 317.186 25.4878C317.901 24.4146 318.812 23.5528 319.918 22.9024C321.023 22.252 322.259 21.7967 323.625 21.5366C325.023 21.2439 326.422 21.0976 327.82 21.0976C329.088 21.0976 330.373 21.1951 331.674 21.3902C332.975 21.5528 334.162 21.8943 335.235 22.4146C336.308 22.935 337.186 23.6667 337.869 24.6098C338.552 25.5203 338.893 26.7398 338.893 28.2683V41.3902C338.893 42.5285 338.958 43.6179 339.088 44.6585C339.218 45.6992 339.446 46.4797 339.771 47H332.747C332.617 46.6098 332.503 46.2195 332.405 45.8293C332.34 45.4065 332.292 44.9837 332.259 44.561C331.153 45.6992 329.853 46.4959 328.357 46.9512C326.861 47.4065 325.332 47.6341 323.771 47.6341C322.568 47.6341 321.446 47.4878 320.405 47.1951C319.365 46.9024 318.454 46.4472 317.674 45.8293C316.893 45.2114 316.275 44.4309 315.82 43.4878C315.397 42.5447 315.186 41.4228 315.186 40.122C315.186 38.6911 315.43 37.5203 315.918 36.6098C316.438 35.6667 317.088 34.9187 317.869 34.3659C318.682 33.813 319.592 33.4065 320.601 33.1463C321.641 32.8537 322.682 32.626 323.723 32.4634C324.763 32.3008 325.788 32.1707 326.796 32.0732C327.804 31.9756 328.698 31.8293 329.479 31.6341C330.259 31.439 330.877 31.1626 331.332 30.8049C331.788 30.4146 331.999 29.8618 331.966 29.1463C331.966 28.3984 331.836 27.813 331.576 27.3902C331.349 26.935 331.023 26.5935 330.601 26.3659C330.21 26.1057 329.739 25.9431 329.186 25.878C328.666 25.7805 328.097 25.7317 327.479 25.7317C326.113 25.7317 325.04 26.0244 324.259 26.6098C323.479 27.1951 323.023 28.1707 322.893 29.5366H315.966ZM331.966 34.6585C331.674 34.9187 331.3 35.1301 330.845 35.2927C330.422 35.4228 329.95 35.5366 329.43 35.6341C328.942 35.7317 328.422 35.813 327.869 35.878C327.316 35.9431 326.763 36.0244 326.21 36.122C325.69 36.2195 325.17 36.3496 324.649 36.5122C324.162 36.6748 323.723 36.9024 323.332 37.1951C322.975 37.4553 322.682 37.7967 322.454 38.2195C322.227 38.6423 322.113 39.1789 322.113 39.8293C322.113 40.4472 322.227 40.9675 322.454 41.3902C322.682 41.813 322.991 42.1545 323.381 42.4146C323.771 42.6423 324.227 42.8049 324.747 42.9024C325.267 43 325.804 43.0488 326.357 43.0488C327.723 43.0488 328.779 42.8211 329.527 42.3659C330.275 41.9106 330.828 41.374 331.186 40.7561C331.544 40.1057 331.755 39.4553 331.82 38.8049C331.918 38.1545 331.966 37.6341 331.966 37.2439V34.6585ZM362.731 34.4146C362.731 35.4553 362.618 36.4634 362.39 37.439C362.162 38.4146 361.804 39.2764 361.317 40.0244C360.829 40.7724 360.211 41.374 359.463 41.8293C358.748 42.252 357.87 42.4634 356.829 42.4634C355.821 42.4634 354.943 42.252 354.195 41.8293C353.447 41.374 352.829 40.7724 352.341 40.0244C351.853 39.2764 351.496 38.4146 351.268 37.439C351.04 36.4634 350.926 35.4553 350.926 34.4146C350.926 33.3415 351.04 32.3171 351.268 31.3415C351.496 30.3659 351.853 29.5041 352.341 28.7561C352.829 28.0081 353.447 27.4228 354.195 27C354.943 26.5447 355.821 26.3171 356.829 26.3171C357.87 26.3171 358.748 26.5447 359.463 27C360.211 27.4228 360.829 28.0081 361.317 28.7561C361.804 29.5041 362.162 30.3659 362.39 31.3415C362.618 32.3171 362.731 33.3415 362.731 34.4146ZM344.244 12.1707V47H350.829V43.7805H350.926C351.674 45.1789 352.78 46.1707 354.244 46.7561C355.707 47.3415 357.365 47.6341 359.219 47.6341C360.487 47.6341 361.739 47.374 362.975 46.8537C364.211 46.3333 365.317 45.5366 366.292 44.4634C367.3 43.3902 368.113 42.0244 368.731 40.3659C369.349 38.6748 369.658 36.6748 369.658 34.3659C369.658 32.0569 369.349 30.0732 368.731 28.4146C368.113 26.7236 367.3 25.3415 366.292 24.2683C365.317 23.1951 364.211 22.3984 362.975 21.878C361.739 21.3577 360.487 21.0976 359.219 21.0976C357.658 21.0976 356.146 21.4065 354.683 22.0244C353.252 22.6098 352.113 23.5528 351.268 24.8537H351.17V12.1707H344.244ZM392.544 34.4146C392.544 35.4553 392.43 36.4634 392.202 37.439C391.975 38.4146 391.617 39.2764 391.129 40.0244C390.641 40.7724 390.023 41.374 389.276 41.8293C388.56 42.252 387.682 42.4634 386.641 42.4634C385.633 42.4634 384.755 42.252 384.007 41.8293C383.259 41.374 382.641 40.7724 382.154 40.0244C381.666 39.2764 381.308 38.4146 381.08 37.439C380.853 36.4634 380.739 35.4553 380.739 34.4146C380.739 33.3415 380.853 32.3171 381.08 31.3415C381.308 30.3659 381.666 29.5041 382.154 28.7561C382.641 28.0081 383.259 27.4228 384.007 27C384.755 26.5447 385.633 26.3171 386.641 26.3171C387.682 26.3171 388.56 26.5447 389.276 27C390.023 27.4228 390.641 28.0081 391.129 28.7561C391.617 29.5041 391.975 30.3659 392.202 31.3415C392.43 32.3171 392.544 33.3415 392.544 34.4146ZM374.056 12.1707V47H380.641V43.7805H380.739C381.487 45.1789 382.593 46.1707 384.056 46.7561C385.519 47.3415 387.178 47.6341 389.032 47.6341C390.3 47.6341 391.552 47.374 392.788 46.8537C394.024 46.3333 395.129 45.5366 396.105 44.4634C397.113 43.3902 397.926 42.0244 398.544 40.3659C399.162 38.6748 399.471 36.6748 399.471 34.3659C399.471 32.0569 399.162 30.0732 398.544 28.4146C397.926 26.7236 397.113 25.3415 396.105 24.2683C395.129 23.1951 394.024 22.3984 392.788 21.878C391.552 21.3577 390.3 21.0976 389.032 21.0976C387.471 21.0976 385.958 21.4065 384.495 22.0244C383.064 22.6098 381.926 23.5528 381.08 24.8537H380.983V12.1707H374.056ZM403.576 29.5366C403.673 27.9106 404.08 26.561 404.795 25.4878C405.511 24.4146 406.421 23.5528 407.527 22.9024C408.633 22.252 409.869 21.7967 411.234 21.5366C412.633 21.2439 414.031 21.0976 415.429 21.0976C416.698 21.0976 417.982 21.1951 419.283 21.3902C420.584 21.5528 421.771 21.8943 422.844 22.4146C423.917 22.935 424.795 23.6667 425.478 24.6098C426.161 25.5203 426.503 26.7398 426.503 28.2683V41.3902C426.503 42.5285 426.568 43.6179 426.698 44.6585C426.828 45.6992 427.056 46.4797 427.381 47H420.356C420.226 46.6098 420.112 46.2195 420.015 45.8293C419.95 45.4065 419.901 44.9837 419.869 44.561C418.763 45.6992 417.462 46.4959 415.966 46.9512C414.47 47.4065 412.942 47.6341 411.381 47.6341C410.177 47.6341 409.056 47.4878 408.015 47.1951C406.974 46.9024 406.064 46.4472 405.283 45.8293C404.503 45.2114 403.885 44.4309 403.429 43.4878C403.007 42.5447 402.795 41.4228 402.795 40.122C402.795 38.6911 403.039 37.5203 403.527 36.6098C404.047 35.6667 404.698 34.9187 405.478 34.3659C406.291 33.813 407.202 33.4065 408.21 33.1463C409.251 32.8537 410.291 32.626 411.332 32.4634C412.373 32.3008 413.397 32.1707 414.405 32.0732C415.413 31.9756 416.308 31.8293 417.088 31.6341C417.869 31.439 418.486 31.1626 418.942 30.8049C419.397 30.4146 419.608 29.8618 419.576 29.1463C419.576 28.3984 419.446 27.813 419.186 27.3902C418.958 26.935 418.633 26.5935 418.21 26.3659C417.82 26.1057 417.348 25.9431 416.795 25.878C416.275 25.7805 415.706 25.7317 415.088 25.7317C413.722 25.7317 412.649 26.0244 411.869 26.6098C411.088 27.1951 410.633 28.1707 410.503 29.5366H403.576ZM419.576 34.6585C419.283 34.9187 418.909 35.1301 418.454 35.2927C418.031 35.4228 417.56 35.5366 417.039 35.6341C416.551 35.7317 416.031 35.813 415.478 35.878C414.925 35.9431 414.373 36.0244 413.82 36.122C413.299 36.2195 412.779 36.3496 412.259 36.5122C411.771 36.6748 411.332 36.9024 410.942 37.1951C410.584 37.4553 410.291 37.7967 410.064 38.2195C409.836 38.6423 409.722 39.1789 409.722 39.8293C409.722 40.4472 409.836 40.9675 410.064 41.3902C410.291 41.813 410.6 42.1545 410.99 42.4146C411.381 42.6423 411.836 42.8049 412.356 42.9024C412.877 43 413.413 43.0488 413.966 43.0488C415.332 43.0488 416.389 42.8211 417.137 42.3659C417.885 41.9106 418.438 41.374 418.795 40.7561C419.153 40.1057 419.364 39.4553 419.429 38.8049C419.527 38.1545 419.576 37.6341 419.576 37.2439V34.6585ZM440.633 21.7805V14.2195H433.707V21.7805H429.511V26.4146H433.707V41.2927C433.707 42.561 433.918 43.5854 434.341 44.3659C434.763 45.1463 435.333 45.748 436.048 46.1707C436.796 46.5935 437.642 46.8699 438.585 47C439.56 47.1626 440.585 47.2439 441.658 47.2439C442.341 47.2439 443.04 47.2276 443.755 47.1951C444.471 47.1626 445.121 47.0976 445.707 47V41.6341C445.381 41.6992 445.04 41.748 444.682 41.7805C444.324 41.813 443.95 41.8293 443.56 41.8293C442.389 41.8293 441.609 41.6341 441.219 41.2439C440.829 40.8537 440.633 40.0732 440.633 38.9024V26.4146H445.707V21.7805H440.633ZM456.131 17.8781V12.1707H449.204V17.8781H456.131ZM449.204 21.7805V47H456.131V21.7805H449.204ZM478.742 30.6585H485.523C485.425 29.0325 485.035 27.6341 484.352 26.4634C483.669 25.2602 482.775 24.2683 481.669 23.4878C480.596 22.6748 479.36 22.0732 477.962 21.6829C476.596 21.2927 475.165 21.0976 473.669 21.0976C471.62 21.0976 469.799 21.439 468.206 22.122C466.612 22.8049 465.263 23.7642 464.157 25C463.051 26.2033 462.206 27.6504 461.62 29.3415C461.068 31 460.791 32.8049 460.791 34.7561C460.791 36.6423 461.1 38.3821 461.718 39.9756C462.336 41.5366 463.198 42.8862 464.303 44.0244C465.409 45.1626 466.742 46.0569 468.303 46.7073C469.897 47.3252 471.637 47.6341 473.523 47.6341C476.872 47.6341 479.62 46.7561 481.767 45C483.913 43.2439 485.214 40.6911 485.669 37.3415H478.986C478.759 38.9024 478.19 40.1545 477.279 41.0976C476.401 42.0081 475.133 42.4634 473.474 42.4634C472.401 42.4634 471.49 42.2195 470.742 41.7317C469.994 41.2439 469.393 40.626 468.937 39.878C468.515 39.0976 468.206 38.2358 468.011 37.2927C467.816 36.3496 467.718 35.4228 467.718 34.5122C467.718 33.5691 467.816 32.626 468.011 31.6829C468.206 30.7073 468.531 29.8293 468.986 29.0488C469.474 28.2358 470.092 27.5854 470.84 27.0976C471.588 26.5772 472.515 26.3171 473.62 26.3171C476.58 26.3171 478.287 27.7642 478.742 30.6585ZM489.263 29.5366C489.361 27.9106 489.767 26.561 490.483 25.4878C491.198 24.4146 492.109 23.5528 493.215 22.9024C494.32 22.252 495.556 21.7967 496.922 21.5366C498.32 21.2439 499.719 21.0976 501.117 21.0976C502.385 21.0976 503.67 21.1951 504.971 21.3902C506.271 21.5528 507.458 21.8943 508.532 22.4146C509.605 22.935 510.483 23.6667 511.166 24.6098C511.849 25.5203 512.19 26.7398 512.19 28.2683V41.3902C512.19 42.5285 512.255 43.6179 512.385 44.6585C512.515 45.6992 512.743 46.4797 513.068 47H506.044C505.914 46.6098 505.8 46.2195 505.702 45.8293C505.637 45.4065 505.589 44.9837 505.556 44.561C504.45 45.6992 503.15 46.4959 501.654 46.9512C500.158 47.4065 498.629 47.6341 497.068 47.6341C495.865 47.6341 494.743 47.4878 493.702 47.1951C492.662 46.9024 491.751 46.4472 490.971 45.8293C490.19 45.2114 489.572 44.4309 489.117 43.4878C488.694 42.5447 488.483 41.4228 488.483 40.122C488.483 38.6911 488.727 37.5203 489.215 36.6098C489.735 35.6667 490.385 34.9187 491.166 34.3659C491.979 33.813 492.889 33.4065 493.897 33.1463C494.938 32.8537 495.979 32.626 497.019 32.4634C498.06 32.3008 499.084 32.1707 500.093 32.0732C501.101 31.9756 501.995 31.8293 502.776 31.6341C503.556 31.439 504.174 31.1626 504.629 30.8049C505.084 30.4146 505.296 29.8618 505.263 29.1463C505.263 28.3984 505.133 27.813 504.873 27.3902C504.645 26.935 504.32 26.5935 503.897 26.3659C503.507 26.1057 503.036 25.9431 502.483 25.878C501.963 25.7805 501.393 25.7317 500.776 25.7317C499.41 25.7317 498.337 26.0244 497.556 26.6098C496.776 27.1951 496.32 28.1707 496.19 29.5366H489.263ZM505.263 34.6585C504.971 34.9187 504.597 35.1301 504.141 35.2927C503.719 35.4228 503.247 35.5366 502.727 35.6341C502.239 35.7317 501.719 35.813 501.166 35.878C500.613 35.9431 500.06 36.0244 499.507 36.122C498.987 36.2195 498.467 36.3496 497.946 36.5122C497.458 36.6748 497.019 36.9024 496.629 37.1951C496.271 37.4553 495.979 37.7967 495.751 38.2195C495.524 38.6423 495.41 39.1789 495.41 39.8293C495.41 40.4472 495.524 40.9675 495.751 41.3902C495.979 41.813 496.288 42.1545 496.678 42.4146C497.068 42.6423 497.524 42.8049 498.044 42.9024C498.564 43 499.101 43.0488 499.654 43.0488C501.019 43.0488 502.076 42.8211 502.824 42.3659C503.572 41.9106 504.125 41.374 504.483 40.7561C504.841 40.1057 505.052 39.4553 505.117 38.8049C505.215 38.1545 505.263 37.6341 505.263 37.2439V34.6585ZM517.736 12.1707V47H524.662V12.1707H517.736ZM530.396 39.4878V47H538.054V39.4878H530.396ZM560.821 30.6585H567.601C567.503 29.0325 567.113 27.6341 566.43 26.4634C565.747 25.2602 564.853 24.2683 563.747 23.4878C562.674 22.6748 561.438 22.0732 560.04 21.6829C558.674 21.2927 557.243 21.0976 555.747 21.0976C553.699 21.0976 551.877 21.439 550.284 22.122C548.69 22.8049 547.341 23.7642 546.235 25C545.129 26.2033 544.284 27.6504 543.699 29.3415C543.146 31 542.869 32.8049 542.869 34.7561C542.869 36.6423 543.178 38.3821 543.796 39.9756C544.414 41.5366 545.276 42.8862 546.381 44.0244C547.487 45.1626 548.821 46.0569 550.381 46.7073C551.975 47.3252 553.715 47.6341 555.601 47.6341C558.951 47.6341 561.699 46.7561 563.845 45C565.991 43.2439 567.292 40.6911 567.747 37.3415H561.064C560.837 38.9024 560.268 40.1545 559.357 41.0976C558.479 42.0081 557.211 42.4634 555.552 42.4634C554.479 42.4634 553.568 42.2195 552.821 41.7317C552.073 41.2439 551.471 40.626 551.016 39.878C550.593 39.0976 550.284 38.2358 550.089 37.2927C549.894 36.3496 549.796 35.4228 549.796 34.5122C549.796 33.5691 549.894 32.626 550.089 31.6829C550.284 30.7073 550.609 29.8293 551.064 29.0488C551.552 28.2358 552.17 27.5854 552.918 27.0976C553.666 26.5772 554.593 26.3171 555.699 26.3171C558.658 26.3171 560.365 27.7642 560.821 30.6585ZM577.78 34.4146C577.78 33.4065 577.878 32.4146 578.073 31.439C578.268 30.4634 578.593 29.6016 579.049 28.8537C579.537 28.1057 580.171 27.5041 580.951 27.0488C581.732 26.561 582.707 26.3171 583.878 26.3171C585.049 26.3171 586.024 26.561 586.805 27.0488C587.618 27.5041 588.252 28.1057 588.707 28.8537C589.195 29.6016 589.537 30.4634 589.732 31.439C589.927 32.4146 590.024 33.4065 590.024 34.4146C590.024 35.4228 589.927 36.4146 589.732 37.3902C589.537 38.3333 589.195 39.1951 588.707 39.9756C588.252 40.7236 587.618 41.3252 586.805 41.7805C586.024 42.2358 585.049 42.4634 583.878 42.4634C582.707 42.4634 581.732 42.2358 580.951 41.7805C580.171 41.3252 579.537 40.7236 579.049 39.9756C578.593 39.1951 578.268 38.3333 578.073 37.3902C577.878 36.4146 577.78 35.4228 577.78 34.4146ZM570.854 34.4146C570.854 36.4309 571.163 38.252 571.78 39.878C572.398 41.5041 573.276 42.9024 574.415 44.0732C575.553 45.2114 576.919 46.0894 578.512 46.7073C580.106 47.3252 581.894 47.6341 583.878 47.6341C585.862 47.6341 587.65 47.3252 589.244 46.7073C590.87 46.0894 592.252 45.2114 593.39 44.0732C594.528 42.9024 595.407 41.5041 596.024 39.878C596.642 38.252 596.951 36.4309 596.951 34.4146C596.951 32.3984 596.642 30.5772 596.024 28.9512C595.407 27.2927 594.528 25.8943 593.39 24.7561C592.252 23.5854 590.87 22.6911 589.244 22.0732C587.65 21.4228 585.862 21.0976 583.878 21.0976C581.894 21.0976 580.106 21.4228 578.512 22.0732C576.919 22.6911 575.553 23.5854 574.415 24.7561C573.276 25.8943 572.398 27.2927 571.78 28.9512C571.163 30.5772 570.854 32.3984 570.854 34.4146ZM601.642 21.7805V47H608.569V32.3659C608.569 31.1301 608.747 30.1382 609.105 29.3902C609.463 28.6098 609.886 28.0244 610.373 27.6341C610.894 27.2114 611.414 26.935 611.934 26.8049C612.487 26.6423 612.926 26.561 613.252 26.561C614.357 26.561 615.186 26.7561 615.739 27.1463C616.325 27.5041 616.731 27.9919 616.959 28.6098C617.219 29.2276 617.365 29.9106 617.398 30.6585C617.43 31.374 617.447 32.1057 617.447 32.8537V47H624.373V32.9512C624.373 32.1707 624.422 31.4065 624.52 30.6585C624.65 29.878 624.878 29.1951 625.203 28.6098C625.56 27.9919 626.032 27.5041 626.617 27.1463C627.235 26.7561 628.032 26.561 629.008 26.561C629.983 26.561 630.747 26.7236 631.3 27.0488C631.886 27.374 632.325 27.813 632.617 28.3659C632.91 28.9187 633.089 29.5691 633.154 30.3171C633.219 31.065 633.252 31.8618 633.252 32.7073V47H640.178V30.122C640.178 28.4959 639.951 27.1138 639.495 25.9756C639.04 24.8049 638.406 23.8618 637.593 23.1463C636.78 22.4309 635.804 21.9106 634.666 21.5854C633.528 21.2602 632.292 21.0976 630.959 21.0976C629.203 21.0976 627.674 21.5203 626.373 22.3659C625.105 23.2114 624.097 24.187 623.349 25.2927C622.666 23.7317 621.658 22.6423 620.325 22.0244C619.024 21.4065 617.577 21.0976 615.983 21.0976C614.325 21.0976 612.845 21.4553 611.544 22.1707C610.276 22.8862 609.186 23.8943 608.276 25.1951H608.178V21.7805H601.642Z" fill="black"/>
<path d="M2.62139 15.103L30.6489 23.3165L61.2978 14.3349V6.7342L30.6489 15.716L3.47768 7.95929C3.47768 7.95929 7.53403e-05 9.17003 7.53403e-05 11.6033C7.53403e-05 13.2224 1.06757 14.6477 2.62139 15.103Z" fill="black"/>
<path d="M2.62132 48.518L30.6488 56.7315L61.2977 47.7499V40.1492L30.6488 49.131L4.67255 41.5185C2.33748 40.8342 0 42.585 0 45.0183C0 46.6374 1.0675 48.0627 2.62132 48.518Z" fill="black"/>
<path d="M3.47768 7.95929L35.1605 1L61.2978 6.7342L30.6489 15.716L3.47768 7.95929Z" fill="black"/>
<path d="M61.2977 18.7406V17.5L30.6489 26.4817L4.67255 18.8693C2.33754 18.185 0 19.9358 0 22.3691C0 23.9882 1.06756 25.4135 2.62138 25.8688L30.6489 34.0823L61.2977 25.1006V20.0661V18.7406Z" fill="black"/>
<path d="M61.2977 29.6765V28.4359L30.6489 37.4176L4.67255 29.8052C2.33754 29.121 0 30.8718 0 33.305C0 34.9241 1.06756 36.3494 2.62138 36.8047L30.6489 45.0183L61.2977 36.0365V31.002V29.6765Z" fill="black"/>
</svg>
