<svg width="622" height="57" viewBox="0 0 622 57" fill="none" xmlns="http://www.w3.org/2000/svg">
<path d="M58.3659 12.1707V47H83V40.561H66.0244V12.1707H58.3659ZM103.532 31.6829H92.2633C92.2959 31.1951 92.3934 30.6423 92.556 30.0244C92.7511 29.4065 93.0601 28.8211 93.4829 28.2683C93.9381 27.7154 94.5235 27.2602 95.2389 26.9024C95.9869 26.5122 96.9137 26.3171 98.0194 26.3171C99.7105 26.3171 100.963 26.7724 101.776 27.6829C102.621 28.5935 103.206 29.9268 103.532 31.6829ZM92.2633 36.0732H110.458C110.589 34.122 110.426 32.252 109.971 30.4634C109.515 28.6748 108.767 27.0813 107.727 25.6829C106.719 24.2846 105.418 23.1789 103.824 22.3659C102.231 21.5203 100.361 21.0976 98.2146 21.0976C96.2959 21.0976 94.5398 21.439 92.9463 22.122C91.3853 22.8049 90.0357 23.748 88.8975 24.9512C87.7593 26.122 86.8812 27.5203 86.2633 29.1463C85.6455 30.7724 85.3365 32.5285 85.3365 34.4146C85.3365 36.3659 85.6292 38.1545 86.2146 39.7805C86.8324 41.4065 87.6942 42.8049 88.7999 43.9756C89.9056 45.1463 91.2552 46.0569 92.8487 46.7073C94.4422 47.3252 96.2308 47.6341 98.2146 47.6341C101.076 47.6341 103.515 46.9837 105.532 45.6829C107.548 44.3821 109.044 42.2195 110.019 39.1951H103.922C103.694 39.9756 103.076 40.7236 102.068 41.439C101.06 42.122 99.8568 42.4634 98.4585 42.4634C96.5072 42.4634 95.0113 41.9593 93.9707 40.9512C92.93 39.9431 92.3609 38.3171 92.2633 36.0732ZM114.248 29.5366C114.345 27.9106 114.752 26.561 115.467 25.4878C116.183 24.4146 117.093 23.5528 118.199 22.9024C119.305 22.252 120.54 21.7967 121.906 21.5366C123.305 21.2439 124.703 21.0976 126.101 21.0976C127.37 21.0976 128.654 21.1951 129.955 21.3902C131.256 21.5528 132.443 21.8943 133.516 22.4146C134.589 22.935 135.467 23.6667 136.15 24.6098C136.833 25.5203 137.175 26.7398 137.175 28.2683V41.3902C137.175 42.5285 137.24 43.6179 137.37 44.6585C137.5 45.6992 137.727 46.4797 138.053 47H131.028C130.898 46.6098 130.784 46.2195 130.687 45.8293C130.622 45.4065 130.573 44.9837 130.54 44.561C129.435 45.6992 128.134 46.4959 126.638 46.9512C125.142 47.4065 123.614 47.6341 122.053 47.6341C120.849 47.6341 119.727 47.4878 118.687 47.1951C117.646 46.9024 116.736 46.4472 115.955 45.8293C115.175 45.2114 114.557 44.4309 114.101 43.4878C113.679 42.5447 113.467 41.4228 113.467 40.122C113.467 38.6911 113.711 37.5203 114.199 36.6098C114.719 35.6667 115.37 34.9187 116.15 34.3659C116.963 33.813 117.874 33.4065 118.882 33.1463C119.923 32.8537 120.963 32.626 122.004 32.4634C123.044 32.3008 124.069 32.1707 125.077 32.0732C126.085 31.9756 126.979 31.8293 127.76 31.6341C128.54 31.439 129.158 31.1626 129.614 30.8049C130.069 30.4146 130.28 29.8618 130.248 29.1463C130.248 28.3984 130.118 27.813 129.857 27.3902C129.63 26.935 129.305 26.5935 128.882 26.3659C128.492 26.1057 128.02 25.9431 127.467 25.878C126.947 25.7805 126.378 25.7317 125.76 25.7317C124.394 25.7317 123.321 26.0244 122.54 26.6098C121.76 27.1951 121.305 28.1707 121.175 29.5366H114.248ZM130.248 34.6585C129.955 34.9187 129.581 35.1301 129.126 35.2927C128.703 35.4228 128.231 35.5366 127.711 35.6341C127.223 35.7317 126.703 35.813 126.15 35.878C125.597 35.9431 125.044 36.0244 124.492 36.122C123.971 36.2195 123.451 36.3496 122.931 36.5122C122.443 36.6748 122.004 36.9024 121.614 37.1951C121.256 37.4553 120.963 37.7967 120.736 38.2195C120.508 38.6423 120.394 39.1789 120.394 39.8293C120.394 40.4472 120.508 40.9675 120.736 41.3902C120.963 41.813 121.272 42.1545 121.662 42.4146C122.053 42.6423 122.508 42.8049 123.028 42.9024C123.549 43 124.085 43.0488 124.638 43.0488C126.004 43.0488 127.061 42.8211 127.809 42.3659C128.557 41.9106 129.11 41.374 129.467 40.7561C129.825 40.1057 130.036 39.4553 130.101 38.8049C130.199 38.1545 130.248 37.6341 130.248 37.2439V34.6585ZM142.525 21.7805V47H149.452V35.6341C149.452 34.4959 149.565 33.439 149.793 32.4634C150.021 31.4878 150.395 30.6423 150.915 29.9268C151.468 29.1789 152.183 28.5935 153.061 28.1707C153.939 27.748 155.013 27.5366 156.281 27.5366C156.704 27.5366 157.143 27.5691 157.598 27.6341C158.053 27.6667 158.443 27.7154 158.769 27.7805V21.3415C158.216 21.1789 157.712 21.0976 157.256 21.0976C156.378 21.0976 155.533 21.2276 154.72 21.4878C153.907 21.748 153.143 22.122 152.427 22.6098C151.712 23.065 151.078 23.6341 150.525 24.3171C149.972 24.9675 149.533 25.6829 149.208 26.4634H149.11V21.7805H142.525ZM162.4 21.7805V47H169.327V33.7805C169.327 31.2114 169.749 29.374 170.595 28.2683C171.44 27.1301 172.806 26.561 174.692 26.561C176.351 26.561 177.505 27.0813 178.156 28.122C178.806 29.1301 179.131 30.6748 179.131 32.7561V47H186.058V31.4878C186.058 29.9268 185.912 28.5122 185.619 27.2439C185.359 25.9431 184.888 24.8537 184.205 23.9756C183.522 23.065 182.579 22.3659 181.375 21.878C180.205 21.3577 178.692 21.0976 176.839 21.0976C175.375 21.0976 173.944 21.439 172.546 22.122C171.148 22.7724 170.01 23.8293 169.131 25.2927H168.985V21.7805H162.4ZM198.444 17.8781V12.1707H191.517V17.8781H198.444ZM191.517 21.7805V47H198.444V21.7805H191.517ZM203.884 21.7805V47H210.811V33.7805C210.811 31.2114 211.234 29.374 212.079 28.2683C212.925 27.1301 214.291 26.561 216.177 26.561C217.835 26.561 218.99 27.0813 219.64 28.122C220.291 29.1301 220.616 30.6748 220.616 32.7561V47H227.543V31.4878C227.543 29.9268 227.396 28.5122 227.104 27.2439C226.843 25.9431 226.372 24.8537 225.689 23.9756C225.006 23.065 224.063 22.3659 222.86 21.878C221.689 21.3577 220.177 21.0976 218.323 21.0976C216.86 21.0976 215.429 21.439 214.03 22.122C212.632 22.7724 211.494 23.8293 210.616 25.2927H210.47V21.7805H203.884ZM244.562 41.0488C243.489 41.0488 242.595 40.8211 241.879 40.3659C241.164 39.9106 240.578 39.3252 240.123 38.6098C239.7 37.8943 239.391 37.0976 239.196 36.2195C239.034 35.3089 238.952 34.3984 238.952 33.4878C238.952 32.5447 239.05 31.6504 239.245 30.8049C239.473 29.9268 239.814 29.1626 240.269 28.5122C240.757 27.8293 241.343 27.2927 242.026 26.9024C242.741 26.5122 243.587 26.3171 244.562 26.3171C245.7 26.3171 246.643 26.5285 247.391 26.9512C248.139 27.374 248.741 27.9431 249.196 28.6585C249.652 29.374 249.977 30.2033 250.172 31.1463C250.367 32.0569 250.465 33.0325 250.465 34.0732C250.465 34.9837 250.334 35.8618 250.074 36.7073C249.847 37.5203 249.489 38.252 249.001 38.9024C248.513 39.5528 247.895 40.0732 247.147 40.4634C246.4 40.8537 245.538 41.0488 244.562 41.0488ZM257.05 45.3902V21.7805H250.465V25.1463H250.367C249.521 23.6829 248.465 22.6423 247.196 22.0244C245.96 21.4065 244.513 21.0976 242.855 21.0976C241.099 21.0976 239.538 21.439 238.172 22.122C236.839 22.8049 235.717 23.7317 234.806 24.9024C233.895 26.0407 233.196 27.374 232.708 28.9024C232.253 30.3984 232.026 31.9594 232.026 33.5854C232.026 35.3089 232.221 36.9512 232.611 38.5122C233.034 40.0407 233.684 41.3902 234.562 42.561C235.44 43.6992 236.562 44.6098 237.928 45.2927C239.294 45.9431 240.92 46.2683 242.806 46.2683C244.334 46.2683 245.782 45.9593 247.147 45.3415C248.546 44.6911 249.619 43.6992 250.367 42.3659H250.465V45.6829C250.497 47.4715 250.058 48.9512 249.147 50.122C248.269 51.2927 246.855 51.878 244.904 51.878C243.668 51.878 242.578 51.6179 241.635 51.0976C240.692 50.6098 240.058 49.7154 239.733 48.4146H232.855C232.952 49.8455 233.343 51.065 234.026 52.0732C234.741 53.1138 235.619 53.9593 236.66 54.6098C237.733 55.2602 238.904 55.7317 240.172 56.0244C241.473 56.3496 242.741 56.5122 243.977 56.5122C246.871 56.5122 249.18 56.122 250.904 55.3415C252.627 54.561 253.944 53.6016 254.855 52.4634C255.765 51.3577 256.351 50.1545 256.611 48.8537C256.904 47.5528 257.05 46.3984 257.05 45.3902ZM268.57 35.439H261.155C261.123 37.5854 261.513 39.439 262.326 41C263.139 42.561 264.228 43.8455 265.594 44.8537C266.993 45.8618 268.586 46.5935 270.375 47.0488C272.196 47.5366 274.066 47.7805 275.984 47.7805C278.358 47.7805 280.44 47.5041 282.228 46.9512C284.049 46.3984 285.562 45.6341 286.765 44.6585C288.001 43.6504 288.927 42.4634 289.545 41.0976C290.163 39.7317 290.472 38.252 290.472 36.6585C290.472 34.7073 290.049 33.1138 289.204 31.878C288.391 30.6098 287.415 29.6016 286.277 28.8537C285.139 28.1057 283.984 27.5691 282.814 27.2439C281.675 26.8862 280.781 26.6423 280.131 26.5122C277.952 25.9594 276.179 25.5041 274.814 25.1463C273.48 24.7886 272.423 24.4309 271.643 24.0732C270.895 23.7154 270.391 23.3252 270.131 22.9024C269.871 22.4797 269.74 21.9268 269.74 21.2439C269.74 20.4959 269.903 19.878 270.228 19.3902C270.553 18.9024 270.96 18.4959 271.448 18.1707C271.968 17.8455 272.537 17.6179 273.155 17.4878C273.773 17.3577 274.391 17.2927 275.009 17.2927C275.952 17.2927 276.814 17.374 277.594 17.5366C278.407 17.6992 279.123 17.9756 279.74 18.3659C280.358 18.7561 280.846 19.2927 281.204 19.9756C281.594 20.6585 281.822 21.5203 281.887 22.561H289.301C289.301 20.5447 288.911 18.8374 288.131 17.439C287.383 16.0081 286.358 14.8374 285.058 13.9268C283.757 13.0163 282.261 12.3659 280.57 11.9756C278.911 11.5528 277.171 11.3415 275.35 11.3415C273.789 11.3415 272.228 11.5528 270.667 11.9756C269.106 12.3984 267.708 13.0488 266.472 13.9268C265.236 14.8049 264.228 15.9106 263.448 17.2439C262.7 18.5447 262.326 20.0894 262.326 21.878C262.326 23.4715 262.619 24.8374 263.204 25.9756C263.822 27.0813 264.619 28.0081 265.594 28.7561C266.57 29.5041 267.675 30.122 268.911 30.6098C270.147 31.065 271.415 31.4553 272.716 31.7805C273.984 32.1382 275.236 32.4634 276.472 32.7561C277.708 33.0488 278.814 33.3902 279.789 33.7805C280.765 34.1707 281.545 34.6585 282.131 35.2439C282.749 35.8293 283.058 36.5935 283.058 37.5366C283.058 38.4146 282.83 39.1463 282.375 39.7317C281.919 40.2846 281.35 40.7236 280.667 41.0488C279.984 41.374 279.253 41.6016 278.472 41.7317C277.692 41.8293 276.96 41.878 276.277 41.878C275.269 41.878 274.293 41.7642 273.35 41.5366C272.407 41.2764 271.578 40.9024 270.862 40.4146C270.179 39.8943 269.627 39.2276 269.204 38.4146C268.781 37.6016 268.57 36.6098 268.57 35.439ZM293.966 29.5366C294.064 27.9106 294.471 26.561 295.186 25.4878C295.901 24.4146 296.812 23.5528 297.918 22.9024C299.023 22.252 300.259 21.7967 301.625 21.5366C303.023 21.2439 304.422 21.0976 305.82 21.0976C307.088 21.0976 308.373 21.1951 309.674 21.3902C310.975 21.5528 312.162 21.8943 313.235 22.4146C314.308 22.935 315.186 23.6667 315.869 24.6098C316.552 25.5203 316.893 26.7398 316.893 28.2683V41.3902C316.893 42.5285 316.958 43.6179 317.088 44.6585C317.218 45.6992 317.446 46.4797 317.771 47H310.747C310.617 46.6098 310.503 46.2195 310.405 45.8293C310.34 45.4065 310.292 44.9837 310.259 44.561C309.153 45.6992 307.853 46.4959 306.357 46.9512C304.861 47.4065 303.332 47.6341 301.771 47.6341C300.568 47.6341 299.446 47.4878 298.405 47.1951C297.365 46.9024 296.454 46.4472 295.674 45.8293C294.893 45.2114 294.275 44.4309 293.82 43.4878C293.397 42.5447 293.186 41.4228 293.186 40.122C293.186 38.6911 293.43 37.5203 293.918 36.6098C294.438 35.6667 295.088 34.9187 295.869 34.3659C296.682 33.813 297.592 33.4065 298.601 33.1463C299.641 32.8537 300.682 32.626 301.723 32.4634C302.763 32.3008 303.788 32.1707 304.796 32.0732C305.804 31.9756 306.698 31.8293 307.479 31.6341C308.259 31.439 308.877 31.1626 309.332 30.8049C309.788 30.4146 309.999 29.8618 309.966 29.1463C309.966 28.3984 309.836 27.813 309.576 27.3902C309.349 26.935 309.023 26.5935 308.601 26.3659C308.21 26.1057 307.739 25.9431 307.186 25.878C306.666 25.7805 306.097 25.7317 305.479 25.7317C304.113 25.7317 303.04 26.0244 302.259 26.6098C301.479 27.1951 301.023 28.1707 300.893 29.5366H293.966ZM309.966 34.6585C309.674 34.9187 309.3 35.1301 308.845 35.2927C308.422 35.4228 307.95 35.5366 307.43 35.6341C306.942 35.7317 306.422 35.813 305.869 35.878C305.316 35.9431 304.763 36.0244 304.21 36.122C303.69 36.2195 303.17 36.3496 302.649 36.5122C302.162 36.6748 301.723 36.9024 301.332 37.1951C300.975 37.4553 300.682 37.7967 300.454 38.2195C300.227 38.6423 300.113 39.1789 300.113 39.8293C300.113 40.4472 300.227 40.9675 300.454 41.3902C300.682 41.813 300.991 42.1545 301.381 42.4146C301.771 42.6423 302.227 42.8049 302.747 42.9024C303.267 43 303.804 43.0488 304.357 43.0488C305.723 43.0488 306.779 42.8211 307.527 42.3659C308.275 41.9106 308.828 41.374 309.186 40.7561C309.544 40.1057 309.755 39.4553 309.82 38.8049C309.918 38.1545 309.966 37.6341 309.966 37.2439V34.6585ZM340.731 34.4146C340.731 35.4553 340.618 36.4634 340.39 37.439C340.162 38.4146 339.804 39.2764 339.317 40.0244C338.829 40.7724 338.211 41.374 337.463 41.8293C336.748 42.252 335.87 42.4634 334.829 42.4634C333.821 42.4634 332.943 42.252 332.195 41.8293C331.447 41.374 330.829 40.7724 330.341 40.0244C329.853 39.2764 329.496 38.4146 329.268 37.439C329.04 36.4634 328.926 35.4553 328.926 34.4146C328.926 33.3415 329.04 32.3171 329.268 31.3415C329.496 30.3659 329.853 29.5041 330.341 28.7561C330.829 28.0081 331.447 27.4228 332.195 27C332.943 26.5447 333.821 26.3171 334.829 26.3171C335.87 26.3171 336.748 26.5447 337.463 27C338.211 27.4228 338.829 28.0081 339.317 28.7561C339.804 29.5041 340.162 30.3659 340.39 31.3415C340.618 32.3171 340.731 33.3415 340.731 34.4146ZM322.244 12.1707V47H328.829V43.7805H328.926C329.674 45.1789 330.78 46.1707 332.244 46.7561C333.707 47.3415 335.365 47.6341 337.219 47.6341C338.487 47.6341 339.739 47.374 340.975 46.8537C342.211 46.3333 343.317 45.5366 344.292 44.4634C345.3 43.3902 346.113 42.0244 346.731 40.3659C347.349 38.6748 347.658 36.6748 347.658 34.3659C347.658 32.0569 347.349 30.0732 346.731 28.4146C346.113 26.7236 345.3 25.3415 344.292 24.2683C343.317 23.1951 342.211 22.3984 340.975 21.878C339.739 21.3577 338.487 21.0976 337.219 21.0976C335.658 21.0976 334.146 21.4065 332.683 22.0244C331.252 22.6098 330.113 23.5528 329.268 24.8537H329.17V12.1707H322.244ZM370.544 34.4146C370.544 35.4553 370.43 36.4634 370.202 37.439C369.975 38.4146 369.617 39.2764 369.129 40.0244C368.641 40.7724 368.023 41.374 367.276 41.8293C366.56 42.252 365.682 42.4634 364.641 42.4634C363.633 42.4634 362.755 42.252 362.007 41.8293C361.259 41.374 360.641 40.7724 360.154 40.0244C359.666 39.2764 359.308 38.4146 359.08 37.439C358.853 36.4634 358.739 35.4553 358.739 34.4146C358.739 33.3415 358.853 32.3171 359.08 31.3415C359.308 30.3659 359.666 29.5041 360.154 28.7561C360.641 28.0081 361.259 27.4228 362.007 27C362.755 26.5447 363.633 26.3171 364.641 26.3171C365.682 26.3171 366.56 26.5447 367.276 27C368.023 27.4228 368.641 28.0081 369.129 28.7561C369.617 29.5041 369.975 30.3659 370.202 31.3415C370.43 32.3171 370.544 33.3415 370.544 34.4146ZM352.056 12.1707V47H358.641V43.7805H358.739C359.487 45.1789 360.593 46.1707 362.056 46.7561C363.519 47.3415 365.178 47.6341 367.032 47.6341C368.3 47.6341 369.552 47.374 370.788 46.8537C372.024 46.3333 373.129 45.5366 374.105 44.4634C375.113 43.3902 375.926 42.0244 376.544 40.3659C377.162 38.6748 377.471 36.6748 377.471 34.3659C377.471 32.0569 377.162 30.0732 376.544 28.4146C375.926 26.7236 375.113 25.3415 374.105 24.2683C373.129 23.1951 372.024 22.3984 370.788 21.878C369.552 21.3577 368.3 21.0976 367.032 21.0976C365.471 21.0976 363.958 21.4065 362.495 22.0244C361.064 22.6098 359.926 23.5528 359.08 24.8537H358.983V12.1707H352.056ZM381.576 29.5366C381.673 27.9106 382.08 26.561 382.795 25.4878C383.511 24.4146 384.421 23.5528 385.527 22.9024C386.633 22.252 387.869 21.7967 389.234 21.5366C390.633 21.2439 392.031 21.0976 393.429 21.0976C394.698 21.0976 395.982 21.1951 397.283 21.3902C398.584 21.5528 399.771 21.8943 400.844 22.4146C401.917 22.935 402.795 23.6667 403.478 24.6098C404.161 25.5203 404.503 26.7398 404.503 28.2683V41.3902C404.503 42.5285 404.568 43.6179 404.698 44.6585C404.828 45.6992 405.056 46.4797 405.381 47H398.356C398.226 46.6098 398.112 46.2195 398.015 45.8293C397.95 45.4065 397.901 44.9837 397.869 44.561C396.763 45.6992 395.462 46.4959 393.966 46.9512C392.47 47.4065 390.942 47.6341 389.381 47.6341C388.177 47.6341 387.056 47.4878 386.015 47.1951C384.974 46.9024 384.064 46.4472 383.283 45.8293C382.503 45.2114 381.885 44.4309 381.429 43.4878C381.007 42.5447 380.795 41.4228 380.795 40.122C380.795 38.6911 381.039 37.5203 381.527 36.6098C382.047 35.6667 382.698 34.9187 383.478 34.3659C384.291 33.813 385.202 33.4065 386.21 33.1463C387.251 32.8537 388.291 32.626 389.332 32.4634C390.373 32.3008 391.397 32.1707 392.405 32.0732C393.413 31.9756 394.308 31.8293 395.088 31.6341C395.869 31.439 396.486 31.1626 396.942 30.8049C397.397 30.4146 397.608 29.8618 397.576 29.1463C397.576 28.3984 397.446 27.813 397.186 27.3902C396.958 26.935 396.633 26.5935 396.21 26.3659C395.82 26.1057 395.348 25.9431 394.795 25.878C394.275 25.7805 393.706 25.7317 393.088 25.7317C391.722 25.7317 390.649 26.0244 389.869 26.6098C389.088 27.1951 388.633 28.1707 388.503 29.5366H381.576ZM397.576 34.6585C397.283 34.9187 396.909 35.1301 396.454 35.2927C396.031 35.4228 395.56 35.5366 395.039 35.6341C394.551 35.7317 394.031 35.813 393.478 35.878C392.925 35.9431 392.373 36.0244 391.82 36.122C391.299 36.2195 390.779 36.3496 390.259 36.5122C389.771 36.6748 389.332 36.9024 388.942 37.1951C388.584 37.4553 388.291 37.7967 388.064 38.2195C387.836 38.6423 387.722 39.1789 387.722 39.8293C387.722 40.4472 387.836 40.9675 388.064 41.3902C388.291 41.813 388.6 42.1545 388.99 42.4146C389.381 42.6423 389.836 42.8049 390.356 42.9024C390.877 43 391.413 43.0488 391.966 43.0488C393.332 43.0488 394.389 42.8211 395.137 42.3659C395.885 41.9106 396.438 41.374 396.795 40.7561C397.153 40.1057 397.364 39.4553 397.429 38.8049C397.527 38.1545 397.576 37.6341 397.576 37.2439V34.6585ZM418.633 21.7805V14.2195H411.707V21.7805H407.511V26.4146H411.707V41.2927C411.707 42.561 411.918 43.5854 412.341 44.3659C412.763 45.1463 413.333 45.748 414.048 46.1707C414.796 46.5935 415.642 46.8699 416.585 47C417.56 47.1626 418.585 47.2439 419.658 47.2439C420.341 47.2439 421.04 47.2276 421.755 47.1951C422.471 47.1626 423.121 47.0976 423.707 47V41.6341C423.381 41.6992 423.04 41.748 422.682 41.7805C422.324 41.813 421.95 41.8293 421.56 41.8293C420.389 41.8293 419.609 41.6341 419.219 41.2439C418.829 40.8537 418.633 40.0732 418.633 38.9024V26.4146H423.707V21.7805H418.633ZM434.131 17.8781V12.1707H427.204V17.8781H434.131ZM427.204 21.7805V47H434.131V21.7805H427.204ZM456.742 30.6585H463.523C463.425 29.0325 463.035 27.6341 462.352 26.4634C461.669 25.2602 460.775 24.2683 459.669 23.4878C458.596 22.6748 457.36 22.0732 455.962 21.6829C454.596 21.2927 453.165 21.0976 451.669 21.0976C449.62 21.0976 447.799 21.439 446.206 22.122C444.612 22.8049 443.263 23.7642 442.157 25C441.051 26.2033 440.206 27.6504 439.62 29.3415C439.068 31 438.791 32.8049 438.791 34.7561C438.791 36.6423 439.1 38.3821 439.718 39.9756C440.336 41.5366 441.198 42.8862 442.303 44.0244C443.409 45.1626 444.742 46.0569 446.303 46.7073C447.897 47.3252 449.637 47.6341 451.523 47.6341C454.872 47.6341 457.62 46.7561 459.767 45C461.913 43.2439 463.214 40.6911 463.669 37.3415H456.986C456.759 38.9024 456.19 40.1545 455.279 41.0976C454.401 42.0081 453.133 42.4634 451.474 42.4634C450.401 42.4634 449.49 42.2195 448.742 41.7317C447.994 41.2439 447.393 40.626 446.937 39.878C446.515 39.0976 446.206 38.2358 446.011 37.2927C445.816 36.3496 445.718 35.4228 445.718 34.5122C445.718 33.5691 445.816 32.626 446.011 31.6829C446.206 30.7073 446.531 29.8293 446.986 29.0488C447.474 28.2358 448.092 27.5854 448.84 27.0976C449.588 26.5772 450.515 26.3171 451.62 26.3171C454.58 26.3171 456.287 27.7642 456.742 30.6585ZM467.263 29.5366C467.361 27.9106 467.767 26.561 468.483 25.4878C469.198 24.4146 470.109 23.5528 471.215 22.9024C472.32 22.252 473.556 21.7967 474.922 21.5366C476.32 21.2439 477.719 21.0976 479.117 21.0976C480.385 21.0976 481.67 21.1951 482.971 21.3902C484.271 21.5528 485.458 21.8943 486.532 22.4146C487.605 22.935 488.483 23.6667 489.166 24.6098C489.849 25.5203 490.19 26.7398 490.19 28.2683V41.3902C490.19 42.5285 490.255 43.6179 490.385 44.6585C490.515 45.6992 490.743 46.4797 491.068 47H484.044C483.914 46.6098 483.8 46.2195 483.702 45.8293C483.637 45.4065 483.589 44.9837 483.556 44.561C482.45 45.6992 481.15 46.4959 479.654 46.9512C478.158 47.4065 476.629 47.6341 475.068 47.6341C473.865 47.6341 472.743 47.4878 471.702 47.1951C470.662 46.9024 469.751 46.4472 468.971 45.8293C468.19 45.2114 467.572 44.4309 467.117 43.4878C466.694 42.5447 466.483 41.4228 466.483 40.122C466.483 38.6911 466.727 37.5203 467.215 36.6098C467.735 35.6667 468.385 34.9187 469.166 34.3659C469.979 33.813 470.889 33.4065 471.897 33.1463C472.938 32.8537 473.979 32.626 475.019 32.4634C476.06 32.3008 477.084 32.1707 478.093 32.0732C479.101 31.9756 479.995 31.8293 480.776 31.6341C481.556 31.439 482.174 31.1626 482.629 30.8049C483.084 30.4146 483.296 29.8618 483.263 29.1463C483.263 28.3984 483.133 27.813 482.873 27.3902C482.645 26.935 482.32 26.5935 481.897 26.3659C481.507 26.1057 481.036 25.9431 480.483 25.878C479.963 25.7805 479.393 25.7317 478.776 25.7317C477.41 25.7317 476.337 26.0244 475.556 26.6098C474.776 27.1951 474.32 28.1707 474.19 29.5366H467.263ZM483.263 34.6585C482.971 34.9187 482.597 35.1301 482.141 35.2927C481.719 35.4228 481.247 35.5366 480.727 35.6341C480.239 35.7317 479.719 35.813 479.166 35.878C478.613 35.9431 478.06 36.0244 477.507 36.122C476.987 36.2195 476.467 36.3496 475.946 36.5122C475.458 36.6748 475.019 36.9024 474.629 37.1951C474.271 37.4553 473.979 37.7967 473.751 38.2195C473.524 38.6423 473.41 39.1789 473.41 39.8293C473.41 40.4472 473.524 40.9675 473.751 41.3902C473.979 41.813 474.288 42.1545 474.678 42.4146C475.068 42.6423 475.524 42.8049 476.044 42.9024C476.564 43 477.101 43.0488 477.654 43.0488C479.019 43.0488 480.076 42.8211 480.824 42.3659C481.572 41.9106 482.125 41.374 482.483 40.7561C482.841 40.1057 483.052 39.4553 483.117 38.8049C483.215 38.1545 483.263 37.6341 483.263 37.2439V34.6585ZM495.736 12.1707V47H502.662V12.1707H495.736ZM508.396 39.4878V47H516.054V39.4878H508.396ZM538.821 30.6585H545.601C545.503 29.0325 545.113 27.6341 544.43 26.4634C543.747 25.2602 542.853 24.2683 541.747 23.4878C540.674 22.6748 539.438 22.0732 538.04 21.6829C536.674 21.2927 535.243 21.0976 533.747 21.0976C531.699 21.0976 529.877 21.439 528.284 22.122C526.69 22.8049 525.341 23.7642 524.235 25C523.129 26.2033 522.284 27.6504 521.699 29.3415C521.146 31 520.869 32.8049 520.869 34.7561C520.869 36.6423 521.178 38.3821 521.796 39.9756C522.414 41.5366 523.276 42.8862 524.381 44.0244C525.487 45.1626 526.821 46.0569 528.381 46.7073C529.975 47.3252 531.715 47.6341 533.601 47.6341C536.951 47.6341 539.699 46.7561 541.845 45C543.991 43.2439 545.292 40.6911 545.747 37.3415H539.064C538.837 38.9024 538.268 40.1545 537.357 41.0976C536.479 42.0081 535.211 42.4634 533.552 42.4634C532.479 42.4634 531.568 42.2195 530.821 41.7317C530.073 41.2439 529.471 40.626 529.016 39.878C528.593 39.0976 528.284 38.2358 528.089 37.2927C527.894 36.3496 527.796 35.4228 527.796 34.5122C527.796 33.5691 527.894 32.626 528.089 31.6829C528.284 30.7073 528.609 29.8293 529.064 29.0488C529.552 28.2358 530.17 27.5854 530.918 27.0976C531.666 26.5772 532.593 26.3171 533.699 26.3171C536.658 26.3171 538.365 27.7642 538.821 30.6585ZM555.78 34.4146C555.78 33.4065 555.878 32.4146 556.073 31.439C556.268 30.4634 556.593 29.6016 557.049 28.8537C557.537 28.1057 558.171 27.5041 558.951 27.0488C559.732 26.561 560.707 26.3171 561.878 26.3171C563.049 26.3171 564.024 26.561 564.805 27.0488C565.618 27.5041 566.252 28.1057 566.707 28.8537C567.195 29.6016 567.537 30.4634 567.732 31.439C567.927 32.4146 568.024 33.4065 568.024 34.4146C568.024 35.4228 567.927 36.4146 567.732 37.3902C567.537 38.3333 567.195 39.1951 566.707 39.9756C566.252 40.7236 565.618 41.3252 564.805 41.7805C564.024 42.2358 563.049 42.4634 561.878 42.4634C560.707 42.4634 559.732 42.2358 558.951 41.7805C558.171 41.3252 557.537 40.7236 557.049 39.9756C556.593 39.1951 556.268 38.3333 556.073 37.3902C555.878 36.4146 555.78 35.4228 555.78 34.4146ZM548.854 34.4146C548.854 36.4309 549.163 38.252 549.78 39.878C550.398 41.5041 551.276 42.9024 552.415 44.0732C553.553 45.2114 554.919 46.0894 556.512 46.7073C558.106 47.3252 559.894 47.6341 561.878 47.6341C563.862 47.6341 565.65 47.3252 567.244 46.7073C568.87 46.0894 570.252 45.2114 571.39 44.0732C572.528 42.9024 573.407 41.5041 574.024 39.878C574.642 38.252 574.951 36.4309 574.951 34.4146C574.951 32.3984 574.642 30.5772 574.024 28.9512C573.407 27.2927 572.528 25.8943 571.39 24.7561C570.252 23.5854 568.87 22.6911 567.244 22.0732C565.65 21.4228 563.862 21.0976 561.878 21.0976C559.894 21.0976 558.106 21.4228 556.512 22.0732C554.919 22.6911 553.553 23.5854 552.415 24.7561C551.276 25.8943 550.398 27.2927 549.78 28.9512C549.163 30.5772 548.854 32.3984 548.854 34.4146ZM579.642 21.7805V47H586.569V32.3659C586.569 31.1301 586.747 30.1382 587.105 29.3902C587.463 28.6098 587.886 28.0244 588.373 27.6341C588.894 27.2114 589.414 26.935 589.934 26.8049C590.487 26.6423 590.926 26.561 591.252 26.561C592.357 26.561 593.186 26.7561 593.739 27.1463C594.325 27.5041 594.731 27.9919 594.959 28.6098C595.219 29.2276 595.365 29.9106 595.398 30.6585C595.43 31.374 595.447 32.1057 595.447 32.8537V47H602.373V32.9512C602.373 32.1707 602.422 31.4065 602.52 30.6585C602.65 29.878 602.878 29.1951 603.203 28.6098C603.56 27.9919 604.032 27.5041 604.617 27.1463C605.235 26.7561 606.032 26.561 607.008 26.561C607.983 26.561 608.747 26.7236 609.3 27.0488C609.886 27.374 610.325 27.813 610.617 28.3659C610.91 28.9187 611.089 29.5691 611.154 30.3171C611.219 31.065 611.252 31.8618 611.252 32.7073V47H618.178V30.122C618.178 28.4959 617.951 27.1138 617.495 25.9756C617.04 24.8049 616.406 23.8618 615.593 23.1463C614.78 22.4309 613.804 21.9106 612.666 21.5854C611.528 21.2602 610.292 21.0976 608.959 21.0976C607.203 21.0976 605.674 21.5203 604.373 22.3659C603.105 23.2114 602.097 24.187 601.349 25.2927C600.666 23.7317 599.658 22.6423 598.325 22.0244C597.024 21.4065 595.577 21.0976 593.983 21.0976C592.325 21.0976 590.845 21.4553 589.544 22.1707C588.276 22.8862 587.186 23.8943 586.276 25.1951H586.178V21.7805H579.642Z" fill="black"/>
<path d="M11.8 9.10504L0 12.205L0.3 15.205C0.6 18.305 0.6 18.305 12.9 21.305L25.1 24.305L37.4 21.305C49.6 18.305 49.6 18.305 49.9 15.305L50.2 12.205L37.7 9.00504C30.8 7.30504 24.8 5.90504 24.4 6.00504C23.9 6.00504 18.3 7.50504 11.8 9.10504Z" fill="black"/>
<path d="M0.0999756 27.805C0.0999756 30.605 0.199976 30.705 12.4 33.705L24.7 36.805L37.1 33.605C49.1 30.505 49.6 30.305 49.9 27.605C50.3 24.205 50.1 24.205 36.3 27.805L25.2 30.705L13.9 27.805C7.69998 26.205 1.99998 24.905 1.39998 24.905C0.599976 24.905 0.0999756 26.105 0.0999756 27.805Z" fill="black"/>
<path d="M0.0999794 39.905C0.0999794 43.105 -1.00002 42.705 16.4 47.005L25.1 49.105L33.9 47.005C51.2 42.705 50.1 43.105 50.1 39.905C50.1 38.205 49.8 36.905 49.5 36.905C49.2 36.905 43.6 38.305 37 39.905L25.1 42.905L13.2 39.905C6.59998 38.305 0.999979 36.905 0.699979 36.905C0.399979 36.905 0.0999794 38.205 0.0999794 39.905Z" fill="black"/>
</svg>
