<svg width="553" height="98" viewBox="0 0 553 98" fill="none" xmlns="http://www.w3.org/2000/svg">
<path d="M4.3125 51V16.7344H11.5781V45H25.4766V51H4.3125ZM41.7422 29.3906C40.2266 29.3906 39.0391 29.875 38.1797 30.8438C37.3203 31.7969 36.8281 33.1562 36.7031 34.9219H46.7344C46.7031 33.1562 46.2422 31.7969 45.3516 30.8438C44.4609 29.875 43.2578 29.3906 41.7422 29.3906ZM42.75 51.4688C38.5312 51.4688 35.2344 50.3047 32.8594 47.9766C30.4844 45.6484 29.2969 42.3516 29.2969 38.0859C29.2969 33.6953 30.3906 30.3047 32.5781 27.9141C34.7812 25.5078 37.8203 24.3047 41.6953 24.3047C45.3984 24.3047 48.2812 25.3594 50.3438 27.4688C52.4062 29.5781 53.4375 32.4922 53.4375 36.2109V39.6797H36.5391C36.6172 41.7109 37.2188 43.2969 38.3438 44.4375C39.4688 45.5781 41.0469 46.1484 43.0781 46.1484C44.6562 46.1484 46.1484 45.9844 47.5547 45.6562C48.9609 45.3281 50.4297 44.8047 51.9609 44.0859V49.6172C50.7109 50.2422 49.375 50.7031 47.9531 51C46.5312 51.3125 44.7969 51.4688 42.75 51.4688ZM75.8906 51L74.5078 47.4375H74.3203C73.1172 48.9531 71.875 50.0078 70.5938 50.6016C69.3281 51.1797 67.6719 51.4688 65.625 51.4688C63.1094 51.4688 61.125 50.75 59.6719 49.3125C58.2344 47.875 57.5156 45.8281 57.5156 43.1719C57.5156 40.3906 58.4844 38.3438 60.4219 37.0312C62.375 35.7031 65.3125 34.9688 69.2344 34.8281L73.7812 34.6875V33.5391C73.7812 30.8828 72.4219 29.5547 69.7031 29.5547C67.6094 29.5547 65.1484 30.1875 62.3203 31.4531L59.9531 26.625C62.9688 25.0469 66.3125 24.2578 69.9844 24.2578C73.5 24.2578 76.1953 25.0234 78.0703 26.5547C79.9453 28.0859 80.8828 30.4141 80.8828 33.5391V51H75.8906ZM73.7812 38.8594L71.0156 38.9531C68.9375 39.0156 67.3906 39.3906 66.375 40.0781C65.3594 40.7656 64.8516 41.8125 64.8516 43.2188C64.8516 45.2344 66.0078 46.2422 68.3203 46.2422C69.9766 46.2422 71.2969 45.7656 72.2812 44.8125C73.2812 43.8594 73.7812 42.5938 73.7812 41.0156V38.8594ZM102.891 24.3047C103.859 24.3047 104.664 24.375 105.305 24.5156L104.766 31.2188C104.188 31.0625 103.484 30.9844 102.656 30.9844C100.375 30.9844 98.5938 31.5703 97.3125 32.7422C96.0469 33.9141 95.4141 35.5547 95.4141 37.6641V51H88.2656V24.7969H93.6797L94.7344 29.2031H95.0859C95.8984 27.7344 96.9922 26.5547 98.3672 25.6641C99.7578 24.7578 101.266 24.3047 102.891 24.3047ZM134.25 51H127.102V35.6953C127.102 33.8047 126.766 32.3906 126.094 31.4531C125.422 30.5 124.352 30.0234 122.883 30.0234C120.883 30.0234 119.438 30.6953 118.547 32.0391C117.656 33.3672 117.211 35.5781 117.211 38.6719V51H110.062V24.7969H115.523L116.484 28.1484H116.883C117.68 26.8828 118.773 25.9297 120.164 25.2891C121.57 24.6328 123.164 24.3047 124.945 24.3047C127.992 24.3047 130.305 25.1328 131.883 26.7891C133.461 28.4297 134.25 30.8047 134.25 33.9141V51ZM141.305 18.0234C141.305 15.6953 142.602 14.5312 145.195 14.5312C147.789 14.5312 149.086 15.6953 149.086 18.0234C149.086 19.1328 148.758 20 148.102 20.625C147.461 21.2344 146.492 21.5391 145.195 21.5391C142.602 21.5391 141.305 20.3672 141.305 18.0234ZM148.758 51H141.609V24.7969H148.758V51ZM180.469 51H173.32V35.6953C173.32 33.8047 172.984 32.3906 172.312 31.4531C171.641 30.5 170.57 30.0234 169.102 30.0234C167.102 30.0234 165.656 30.6953 164.766 32.0391C163.875 33.3672 163.43 35.5781 163.43 38.6719V51H156.281V24.7969H161.742L162.703 28.1484H163.102C163.898 26.8828 164.992 25.9297 166.383 25.2891C167.789 24.6328 169.383 24.3047 171.164 24.3047C174.211 24.3047 176.523 25.1328 178.102 26.7891C179.68 28.4297 180.469 30.8047 180.469 33.9141V51ZM210.633 24.7969V28.4297L206.531 29.4844C207.281 30.6562 207.656 31.9688 207.656 33.4219C207.656 36.2344 206.672 38.4297 204.703 40.0078C202.75 41.5703 200.031 42.3516 196.547 42.3516L195.258 42.2812L194.203 42.1641C193.469 42.7266 193.102 43.3516 193.102 44.0391C193.102 45.0703 194.414 45.5859 197.039 45.5859H201.492C204.367 45.5859 206.555 46.2031 208.055 47.4375C209.57 48.6719 210.328 50.4844 210.328 52.875C210.328 55.9375 209.047 58.3125 206.484 60C203.938 61.6875 200.273 62.5312 195.492 62.5312C191.836 62.5312 189.039 61.8906 187.102 60.6094C185.18 59.3438 184.219 57.5625 184.219 55.2656C184.219 53.6875 184.711 52.3672 185.695 51.3047C186.68 50.2422 188.125 49.4844 190.031 49.0312C189.297 48.7188 188.656 48.2109 188.109 47.5078C187.562 46.7891 187.289 46.0312 187.289 45.2344C187.289 44.2344 187.578 43.4062 188.156 42.75C188.734 42.0781 189.57 41.4219 190.664 40.7812C189.289 40.1875 188.195 39.2344 187.383 37.9219C186.586 36.6094 186.188 35.0625 186.188 33.2812C186.188 30.4219 187.117 28.2109 188.977 26.6484C190.836 25.0859 193.492 24.3047 196.945 24.3047C197.68 24.3047 198.547 24.375 199.547 24.5156C200.562 24.6406 201.211 24.7344 201.492 24.7969H210.633ZM190.406 54.7031C190.406 55.6875 190.875 56.4609 191.812 57.0234C192.766 57.5859 194.094 57.8672 195.797 57.8672C198.359 57.8672 200.367 57.5156 201.82 56.8125C203.273 56.1094 204 55.1484 204 53.9297C204 52.9453 203.57 52.2656 202.711 51.8906C201.852 51.5156 200.523 51.3281 198.727 51.3281H195.023C193.711 51.3281 192.609 51.6328 191.719 52.2422C190.844 52.8672 190.406 53.6875 190.406 54.7031ZM193.008 33.375C193.008 34.7969 193.328 35.9219 193.969 36.75C194.625 37.5781 195.617 37.9922 196.945 37.9922C198.289 37.9922 199.273 37.5781 199.898 36.75C200.523 35.9219 200.836 34.7969 200.836 33.375C200.836 30.2188 199.539 28.6406 196.945 28.6406C194.32 28.6406 193.008 30.2188 193.008 33.375ZM235.758 41.4844C235.758 44.5781 234.641 47.0156 232.406 48.7969C230.188 50.5781 227.094 51.4688 223.125 51.4688C219.469 51.4688 216.234 50.7812 213.422 49.4062V42.6562C215.734 43.6875 217.688 44.4141 219.281 44.8359C220.891 45.2578 222.359 45.4688 223.688 45.4688C225.281 45.4688 226.5 45.1641 227.344 44.5547C228.203 43.9453 228.633 43.0391 228.633 41.8359C228.633 41.1641 228.445 40.5703 228.07 40.0547C227.695 39.5234 227.141 39.0156 226.406 38.5312C225.688 38.0469 224.211 37.2734 221.977 36.2109C219.883 35.2266 218.312 34.2812 217.266 33.375C216.219 32.4688 215.383 31.4141 214.758 30.2109C214.133 29.0078 213.82 27.6016 213.82 25.9922C213.82 22.9609 214.844 20.5781 216.891 18.8438C218.953 17.1094 221.797 16.2422 225.422 16.2422C227.203 16.2422 228.898 16.4531 230.508 16.875C232.133 17.2969 233.828 17.8906 235.594 18.6562L233.25 24.3047C231.422 23.5547 229.906 23.0312 228.703 22.7344C227.516 22.4375 226.344 22.2891 225.188 22.2891C223.812 22.2891 222.758 22.6094 222.023 23.25C221.289 23.8906 220.922 24.7266 220.922 25.7578C220.922 26.3984 221.07 26.9609 221.367 27.4453C221.664 27.9141 222.133 28.375 222.773 28.8281C223.43 29.2656 224.969 30.0625 227.391 31.2188C230.594 32.75 232.789 34.2891 233.977 35.8359C235.164 37.3672 235.758 39.25 235.758 41.4844ZM258.047 51L256.664 47.4375H256.477C255.273 48.9531 254.031 50.0078 252.75 50.6016C251.484 51.1797 249.828 51.4688 247.781 51.4688C245.266 51.4688 243.281 50.75 241.828 49.3125C240.391 47.875 239.672 45.8281 239.672 43.1719C239.672 40.3906 240.641 38.3438 242.578 37.0312C244.531 35.7031 247.469 34.9688 251.391 34.8281L255.938 34.6875V33.5391C255.938 30.8828 254.578 29.5547 251.859 29.5547C249.766 29.5547 247.305 30.1875 244.477 31.4531L242.109 26.625C245.125 25.0469 248.469 24.2578 252.141 24.2578C255.656 24.2578 258.352 25.0234 260.227 26.5547C262.102 28.0859 263.039 30.4141 263.039 33.5391V51H258.047ZM255.938 38.8594L253.172 38.9531C251.094 39.0156 249.547 39.3906 248.531 40.0781C247.516 40.7656 247.008 41.8125 247.008 43.2188C247.008 45.2344 248.164 46.2422 250.477 46.2422C252.133 46.2422 253.453 45.7656 254.438 44.8125C255.438 43.8594 255.938 42.5938 255.938 41.0156V38.8594ZM285 24.3047C288.094 24.3047 290.516 25.5156 292.266 27.9375C294.016 30.3438 294.891 33.6484 294.891 37.8516C294.891 42.1797 293.984 45.5312 292.172 47.9062C290.375 50.2812 287.922 51.4688 284.812 51.4688C281.734 51.4688 279.32 50.3516 277.57 48.1172H277.078L275.883 51H270.422V14.5312H277.57V23.0156C277.57 24.0938 277.477 25.8203 277.289 28.1953H277.57C279.242 25.6016 281.719 24.3047 285 24.3047ZM282.703 30.0234C280.938 30.0234 279.648 30.5703 278.836 31.6641C278.023 32.7422 277.602 34.5312 277.57 37.0312V37.8047C277.57 40.6172 277.984 42.6328 278.812 43.8516C279.656 45.0703 280.984 45.6797 282.797 45.6797C284.266 45.6797 285.43 45.0078 286.289 43.6641C287.164 42.3047 287.602 40.3359 287.602 37.7578C287.602 35.1797 287.164 33.25 286.289 31.9688C285.414 30.6719 284.219 30.0234 282.703 30.0234ZM315.375 24.3047C318.469 24.3047 320.891 25.5156 322.641 27.9375C324.391 30.3438 325.266 33.6484 325.266 37.8516C325.266 42.1797 324.359 45.5312 322.547 47.9062C320.75 50.2812 318.297 51.4688 315.188 51.4688C312.109 51.4688 309.695 50.3516 307.945 48.1172H307.453L306.258 51H300.797V14.5312H307.945V23.0156C307.945 24.0938 307.852 25.8203 307.664 28.1953H307.945C309.617 25.6016 312.094 24.3047 315.375 24.3047ZM313.078 30.0234C311.312 30.0234 310.023 30.5703 309.211 31.6641C308.398 32.7422 307.977 34.5312 307.945 37.0312V37.8047C307.945 40.6172 308.359 42.6328 309.188 43.8516C310.031 45.0703 311.359 45.6797 313.172 45.6797C314.641 45.6797 315.805 45.0078 316.664 43.6641C317.539 42.3047 317.977 40.3359 317.977 37.7578C317.977 35.1797 317.539 33.25 316.664 31.9688C315.789 30.6719 314.594 30.0234 313.078 30.0234ZM347.812 51L346.43 47.4375H346.242C345.039 48.9531 343.797 50.0078 342.516 50.6016C341.25 51.1797 339.594 51.4688 337.547 51.4688C335.031 51.4688 333.047 50.75 331.594 49.3125C330.156 47.875 329.438 45.8281 329.438 43.1719C329.438 40.3906 330.406 38.3438 332.344 37.0312C334.297 35.7031 337.234 34.9688 341.156 34.8281L345.703 34.6875V33.5391C345.703 30.8828 344.344 29.5547 341.625 29.5547C339.531 29.5547 337.07 30.1875 334.242 31.4531L331.875 26.625C334.891 25.0469 338.234 24.2578 341.906 24.2578C345.422 24.2578 348.117 25.0234 349.992 26.5547C351.867 28.0859 352.805 30.4141 352.805 33.5391V51H347.812ZM345.703 38.8594L342.938 38.9531C340.859 39.0156 339.312 39.3906 338.297 40.0781C337.281 40.7656 336.773 41.8125 336.773 43.2188C336.773 45.2344 337.93 46.2422 340.242 46.2422C341.898 46.2422 343.219 45.7656 344.203 44.8125C345.203 43.8594 345.703 42.5938 345.703 41.0156V38.8594ZM371.227 45.7734C372.477 45.7734 373.977 45.5 375.727 44.9531V50.2734C373.945 51.0703 371.758 51.4688 369.164 51.4688C366.305 51.4688 364.219 50.75 362.906 49.3125C361.609 47.8594 360.961 45.6875 360.961 42.7969V30.1641H357.539V27.1406L361.477 24.75L363.539 19.2188H368.109V24.7969H375.445V30.1641H368.109V42.7969C368.109 43.8125 368.391 44.5625 368.953 45.0469C369.531 45.5312 370.289 45.7734 371.227 45.7734ZM380.742 18.0234C380.742 15.6953 382.039 14.5312 384.633 14.5312C387.227 14.5312 388.523 15.6953 388.523 18.0234C388.523 19.1328 388.195 20 387.539 20.625C386.898 21.2344 385.93 21.5391 384.633 21.5391C382.039 21.5391 380.742 20.3672 380.742 18.0234ZM388.195 51H381.047V24.7969H388.195V51ZM406.359 51.4688C398.203 51.4688 394.125 46.9922 394.125 38.0391C394.125 33.5859 395.234 30.1875 397.453 27.8438C399.672 25.4844 402.852 24.3047 406.992 24.3047C410.023 24.3047 412.742 24.8984 415.148 26.0859L413.039 31.6172C411.914 31.1641 410.867 30.7969 409.898 30.5156C408.93 30.2188 407.961 30.0703 406.992 30.0703C403.273 30.0703 401.414 32.7109 401.414 37.9922C401.414 43.1172 403.273 45.6797 406.992 45.6797C408.367 45.6797 409.641 45.5 410.812 45.1406C411.984 44.7656 413.156 44.1875 414.328 43.4062V49.5234C413.172 50.2578 412 50.7656 410.812 51.0469C409.641 51.3281 408.156 51.4688 406.359 51.4688ZM437.062 51L435.68 47.4375H435.492C434.289 48.9531 433.047 50.0078 431.766 50.6016C430.5 51.1797 428.844 51.4688 426.797 51.4688C424.281 51.4688 422.297 50.75 420.844 49.3125C419.406 47.875 418.688 45.8281 418.688 43.1719C418.688 40.3906 419.656 38.3438 421.594 37.0312C423.547 35.7031 426.484 34.9688 430.406 34.8281L434.953 34.6875V33.5391C434.953 30.8828 433.594 29.5547 430.875 29.5547C428.781 29.5547 426.32 30.1875 423.492 31.4531L421.125 26.625C424.141 25.0469 427.484 24.2578 431.156 24.2578C434.672 24.2578 437.367 25.0234 439.242 26.5547C441.117 28.0859 442.055 30.4141 442.055 33.5391V51H437.062ZM434.953 38.8594L432.188 38.9531C430.109 39.0156 428.562 39.3906 427.547 40.0781C426.531 40.7656 426.023 41.8125 426.023 43.2188C426.023 45.2344 427.18 46.2422 429.492 46.2422C431.148 46.2422 432.469 45.7656 433.453 44.8125C434.453 43.8594 434.953 42.5938 434.953 41.0156V38.8594ZM456.586 51H449.438V14.5312H456.586V51ZM463.102 47.6484C463.102 46.3359 463.453 45.3438 464.156 44.6719C464.859 44 465.883 43.6641 467.227 43.6641C468.523 43.6641 469.523 44.0078 470.227 44.6953C470.945 45.3828 471.305 46.3672 471.305 47.6484C471.305 48.8828 470.945 49.8594 470.227 50.5781C469.508 51.2812 468.508 51.6328 467.227 51.6328C465.914 51.6328 464.898 51.2891 464.18 50.6016C463.461 49.8984 463.102 48.9141 463.102 47.6484ZM483.492 37.8516C483.492 40.4453 483.914 42.4062 484.758 43.7344C485.617 45.0625 487.008 45.7266 488.93 45.7266C490.836 45.7266 492.203 45.0703 493.031 43.7578C493.875 42.4297 494.297 40.4609 494.297 37.8516C494.297 35.2578 493.875 33.3125 493.031 32.0156C492.188 30.7188 490.805 30.0703 488.883 30.0703C486.977 30.0703 485.602 30.7188 484.758 32.0156C483.914 33.2969 483.492 35.2422 483.492 37.8516ZM501.609 37.8516C501.609 42.1172 500.484 45.4531 498.234 47.8594C495.984 50.2656 492.852 51.4688 488.836 51.4688C486.32 51.4688 484.102 50.9219 482.18 49.8281C480.258 48.7188 478.781 47.1328 477.75 45.0703C476.719 43.0078 476.203 40.6016 476.203 37.8516C476.203 33.5703 477.32 30.2422 479.555 27.8672C481.789 25.4922 484.93 24.3047 488.977 24.3047C491.492 24.3047 493.711 24.8516 495.633 25.9453C497.555 27.0391 499.031 28.6094 500.062 30.6562C501.094 32.7031 501.609 35.1016 501.609 37.8516ZM522.141 24.3047C523.109 24.3047 523.914 24.375 524.555 24.5156L524.016 31.2188C523.438 31.0625 522.734 30.9844 521.906 30.9844C519.625 30.9844 517.844 31.5703 516.562 32.7422C515.297 33.9141 514.664 35.5547 514.664 37.6641V51H507.516V24.7969H512.93L513.984 29.2031H514.336C515.148 27.7344 516.242 26.5547 517.617 25.6641C519.008 24.7578 520.516 24.3047 522.141 24.3047ZM552.117 24.7969V28.4297L548.016 29.4844C548.766 30.6562 549.141 31.9688 549.141 33.4219C549.141 36.2344 548.156 38.4297 546.188 40.0078C544.234 41.5703 541.516 42.3516 538.031 42.3516L536.742 42.2812L535.688 42.1641C534.953 42.7266 534.586 43.3516 534.586 44.0391C534.586 45.0703 535.898 45.5859 538.523 45.5859H542.977C545.852 45.5859 548.039 46.2031 549.539 47.4375C551.055 48.6719 551.812 50.4844 551.812 52.875C551.812 55.9375 550.531 58.3125 547.969 60C545.422 61.6875 541.758 62.5312 536.977 62.5312C533.32 62.5312 530.523 61.8906 528.586 60.6094C526.664 59.3438 525.703 57.5625 525.703 55.2656C525.703 53.6875 526.195 52.3672 527.18 51.3047C528.164 50.2422 529.609 49.4844 531.516 49.0312C530.781 48.7188 530.141 48.2109 529.594 47.5078C529.047 46.7891 528.773 46.0312 528.773 45.2344C528.773 44.2344 529.062 43.4062 529.641 42.75C530.219 42.0781 531.055 41.4219 532.148 40.7812C530.773 40.1875 529.68 39.2344 528.867 37.9219C528.07 36.6094 527.672 35.0625 527.672 33.2812C527.672 30.4219 528.602 28.2109 530.461 26.6484C532.32 25.0859 534.977 24.3047 538.43 24.3047C539.164 24.3047 540.031 24.375 541.031 24.5156C542.047 24.6406 542.695 24.7344 542.977 24.7969H552.117ZM531.891 54.7031C531.891 55.6875 532.359 56.4609 533.297 57.0234C534.25 57.5859 535.578 57.8672 537.281 57.8672C539.844 57.8672 541.852 57.5156 543.305 56.8125C544.758 56.1094 545.484 55.1484 545.484 53.9297C545.484 52.9453 545.055 52.2656 544.195 51.8906C543.336 51.5156 542.008 51.3281 540.211 51.3281H536.508C535.195 51.3281 534.094 51.6328 533.203 52.2422C532.328 52.8672 531.891 53.6875 531.891 54.7031ZM534.492 33.375C534.492 34.7969 534.812 35.9219 535.453 36.75C536.109 37.5781 537.102 37.9922 538.43 37.9922C539.773 37.9922 540.758 37.5781 541.383 36.75C542.008 35.9219 542.32 34.7969 542.32 33.375C542.32 30.2188 541.023 28.6406 538.43 28.6406C535.805 28.6406 534.492 30.2188 534.492 33.375Z" fill="black"/>
<path d="M16.4512 89L15.9678 86.7148H15.8506C15.0498 87.7207 14.249 88.4043 13.4482 88.7656C12.6572 89.1172 11.666 89.293 10.4746 89.293C8.88281 89.293 7.63281 88.8828 6.72461 88.0625C5.82617 87.2422 5.37695 86.0752 5.37695 84.5615C5.37695 81.3193 7.96973 79.6201 13.1553 79.4639L15.8799 79.376V78.3799C15.8799 77.1201 15.6064 76.1924 15.0596 75.5967C14.5225 74.9912 13.6582 74.6885 12.4668 74.6885C11.1289 74.6885 9.61523 75.0986 7.92578 75.9189L7.17871 74.0586C7.96973 73.6289 8.83398 73.292 9.77148 73.0479C10.7188 72.8037 11.666 72.6816 12.6133 72.6816C14.5273 72.6816 15.9434 73.1064 16.8613 73.9561C17.7891 74.8057 18.2529 76.168 18.2529 78.043V89H16.4512ZM10.958 87.2861C12.4717 87.2861 13.6582 86.8711 14.5176 86.041C15.3867 85.2109 15.8213 84.0488 15.8213 82.5547V81.1045L13.3896 81.207C11.4561 81.2754 10.0596 81.5781 9.2002 82.1152C8.35059 82.6426 7.92578 83.4678 7.92578 84.5908C7.92578 85.4697 8.18945 86.1387 8.7168 86.5977C9.25391 87.0566 10.001 87.2861 10.958 87.2861ZM37.4863 89.293C35.1621 89.293 33.3604 88.5801 32.0811 87.1543C30.8115 85.7188 30.1768 83.6924 30.1768 81.0752C30.1768 78.3896 30.8213 76.3145 32.1104 74.8496C33.4092 73.3848 35.2549 72.6523 37.6475 72.6523C38.4189 72.6523 39.1904 72.7354 39.9619 72.9014C40.7334 73.0674 41.3389 73.2627 41.7783 73.4873L41.0312 75.5527C40.4941 75.3379 39.9082 75.1621 39.2734 75.0254C38.6387 74.8789 38.0771 74.8057 37.5889 74.8057C34.3271 74.8057 32.6963 76.8857 32.6963 81.0459C32.6963 83.0186 33.0918 84.5322 33.8828 85.5869C34.6836 86.6416 35.8652 87.1689 37.4277 87.1689C38.7656 87.1689 40.1377 86.8809 41.5439 86.3047V88.458C40.4697 89.0146 39.1172 89.293 37.4863 89.293ZM59.2246 80.958C59.2246 83.5752 58.5654 85.6211 57.2471 87.0957C55.9287 88.5605 54.1074 89.293 51.7832 89.293C50.3477 89.293 49.0732 88.9561 47.96 88.2822C46.8467 87.6084 45.9873 86.6416 45.3818 85.3818C44.7764 84.1221 44.4736 82.6475 44.4736 80.958C44.4736 78.3408 45.1279 76.3047 46.4365 74.8496C47.7451 73.3848 49.5615 72.6523 51.8857 72.6523C54.1318 72.6523 55.9141 73.3994 57.2324 74.8936C58.5605 76.3877 59.2246 78.4092 59.2246 80.958ZM46.9932 80.958C46.9932 83.0088 47.4033 84.5713 48.2236 85.6455C49.0439 86.7197 50.25 87.2568 51.8418 87.2568C53.4336 87.2568 54.6396 86.7246 55.46 85.6602C56.29 84.5859 56.7051 83.0186 56.7051 80.958C56.7051 78.917 56.29 77.3691 55.46 76.3145C54.6396 75.25 53.4238 74.7178 51.8125 74.7178C50.2207 74.7178 49.0195 75.2402 48.209 76.2852C47.3984 77.3301 46.9932 78.8877 46.9932 80.958ZM83.9658 89V78.5557C83.9658 77.2764 83.6924 76.3193 83.1455 75.6846C82.5986 75.04 81.749 74.7178 80.5967 74.7178C79.083 74.7178 77.9648 75.1523 77.2422 76.0215C76.5195 76.8906 76.1582 78.2285 76.1582 80.0352V89H73.7266V78.5557C73.7266 77.2764 73.4531 76.3193 72.9062 75.6846C72.3594 75.04 71.5049 74.7178 70.3428 74.7178C68.8193 74.7178 67.7012 75.1768 66.9883 76.0947C66.2852 77.0029 65.9336 78.4971 65.9336 80.5771V89H63.502V72.9453H65.4795L65.875 75.1426H65.9922C66.4512 74.3613 67.0957 73.751 67.9258 73.3115C68.7656 72.8721 69.7031 72.6523 70.7383 72.6523C73.248 72.6523 74.8887 73.5605 75.6602 75.377H75.7773C76.2559 74.5371 76.9492 73.873 77.8574 73.3848C78.7656 72.8965 79.8008 72.6523 80.9629 72.6523C82.7793 72.6523 84.1367 73.1211 85.0352 74.0586C85.9434 74.9863 86.3975 76.4756 86.3975 78.5264V89H83.9658ZM111.886 89V78.5557C111.886 77.2764 111.612 76.3193 111.065 75.6846C110.519 75.04 109.669 74.7178 108.517 74.7178C107.003 74.7178 105.885 75.1523 105.162 76.0215C104.439 76.8906 104.078 78.2285 104.078 80.0352V89H101.646V78.5557C101.646 77.2764 101.373 76.3193 100.826 75.6846C100.279 75.04 99.4248 74.7178 98.2627 74.7178C96.7393 74.7178 95.6211 75.1768 94.9082 76.0947C94.2051 77.0029 93.8535 78.4971 93.8535 80.5771V89H91.4219V72.9453H93.3994L93.7949 75.1426H93.9121C94.3711 74.3613 95.0156 73.751 95.8457 73.3115C96.6855 72.8721 97.623 72.6523 98.6582 72.6523C101.168 72.6523 102.809 73.5605 103.58 75.377H103.697C104.176 74.5371 104.869 73.873 105.777 73.3848C106.686 72.8965 107.721 72.6523 108.883 72.6523C110.699 72.6523 112.057 73.1211 112.955 74.0586C113.863 74.9863 114.317 76.4756 114.317 78.5264V89H111.886ZM121.627 72.9453V83.3604C121.627 84.6689 121.925 85.6455 122.521 86.29C123.116 86.9346 124.049 87.2568 125.318 87.2568C126.998 87.2568 128.224 86.7979 128.995 85.8799C129.776 84.9619 130.167 83.4629 130.167 81.3828V72.9453H132.599V89H130.592L130.24 86.8467H130.108C129.61 87.6377 128.917 88.2432 128.028 88.6631C127.149 89.083 126.144 89.293 125.011 89.293C123.058 89.293 121.593 88.8291 120.616 87.9014C119.649 86.9736 119.166 85.4893 119.166 83.4482V72.9453H121.627ZM148.756 89V78.6143C148.756 77.3057 148.458 76.3291 147.862 75.6846C147.267 75.04 146.334 74.7178 145.064 74.7178C143.385 74.7178 142.154 75.1719 141.373 76.0801C140.592 76.9883 140.201 78.4873 140.201 80.5771V89H137.77V72.9453H139.747L140.143 75.1426H140.26C140.758 74.3516 141.456 73.7412 142.354 73.3115C143.253 72.8721 144.254 72.6523 145.357 72.6523C147.291 72.6523 148.746 73.1211 149.723 74.0586C150.699 74.9863 151.188 76.4756 151.188 78.5264V89H148.756ZM158.629 89H156.197V72.9453H158.629V89ZM155.992 68.5947C155.992 68.0381 156.129 67.6328 156.402 67.3789C156.676 67.1152 157.018 66.9834 157.428 66.9834C157.818 66.9834 158.155 67.1152 158.438 67.3789C158.722 67.6426 158.863 68.0479 158.863 68.5947C158.863 69.1416 158.722 69.5518 158.438 69.8252C158.155 70.0889 157.818 70.2207 157.428 70.2207C157.018 70.2207 156.676 70.0889 156.402 69.8252C156.129 69.5518 155.992 69.1416 155.992 68.5947ZM168.971 87.2861C169.4 87.2861 169.815 87.2568 170.216 87.1982C170.616 87.1299 170.934 87.0615 171.168 86.9932V88.8535C170.904 88.9805 170.514 89.083 169.996 89.1611C169.488 89.249 169.029 89.293 168.619 89.293C165.514 89.293 163.961 87.6572 163.961 84.3857V74.835H161.661V73.6631L163.961 72.6523L164.986 69.2246H166.393V72.9453H171.051V74.835H166.393V84.2832C166.393 85.25 166.622 85.9922 167.081 86.5098C167.54 87.0273 168.17 87.2861 168.971 87.2861ZM171.842 72.9453H174.449L177.965 82.1006C178.736 84.1904 179.215 85.6992 179.4 86.627H179.518C179.645 86.1289 179.908 85.2793 180.309 84.0781C180.719 82.8672 182.047 79.1562 184.293 72.9453H186.9L180.001 91.2266C179.317 93.0332 178.517 94.3125 177.599 95.0645C176.69 95.8262 175.572 96.207 174.244 96.207C173.502 96.207 172.77 96.124 172.047 95.958V94.0098C172.584 94.127 173.185 94.1855 173.849 94.1855C175.519 94.1855 176.71 93.248 177.423 91.373L178.316 89.0879L171.842 72.9453ZM204.537 74.835H200.45V89H198.019V74.835H195.147V73.7363L198.019 72.8574V71.9639C198.019 68.0186 199.742 66.0459 203.189 66.0459C204.039 66.0459 205.035 66.2168 206.178 66.5586L205.548 68.5068C204.61 68.2041 203.81 68.0527 203.146 68.0527C202.228 68.0527 201.549 68.3604 201.109 68.9756C200.67 69.5811 200.45 70.5576 200.45 71.9053V72.9453H204.537V74.835ZM221.324 80.958C221.324 83.5752 220.665 85.6211 219.347 87.0957C218.028 88.5605 216.207 89.293 213.883 89.293C212.447 89.293 211.173 88.9561 210.06 88.2822C208.946 87.6084 208.087 86.6416 207.481 85.3818C206.876 84.1221 206.573 82.6475 206.573 80.958C206.573 78.3408 207.228 76.3047 208.536 74.8496C209.845 73.3848 211.661 72.6523 213.985 72.6523C216.231 72.6523 218.014 73.3994 219.332 74.8936C220.66 76.3877 221.324 78.4092 221.324 80.958ZM209.093 80.958C209.093 83.0088 209.503 84.5713 210.323 85.6455C211.144 86.7197 212.35 87.2568 213.941 87.2568C215.533 87.2568 216.739 86.7246 217.56 85.6602C218.39 84.5859 218.805 83.0186 218.805 80.958C218.805 78.917 218.39 77.3691 217.56 76.3145C216.739 75.25 215.523 74.7178 213.912 74.7178C212.32 74.7178 211.119 75.2402 210.309 76.2852C209.498 77.3301 209.093 78.8877 209.093 80.958ZM232.926 72.6523C233.639 72.6523 234.278 72.7109 234.845 72.8281L234.508 75.084C233.844 74.9375 233.258 74.8643 232.75 74.8643C231.451 74.8643 230.338 75.3916 229.41 76.4463C228.492 77.501 228.033 78.8145 228.033 80.3867V89H225.602V72.9453H227.608L227.887 75.9189H228.004C228.6 74.874 229.317 74.0684 230.157 73.502C230.997 72.9355 231.92 72.6523 232.926 72.6523ZM255.997 84.6201C255.997 86.1143 255.44 87.2666 254.327 88.0771C253.214 88.8877 251.651 89.293 249.64 89.293C247.511 89.293 245.851 88.9561 244.659 88.2822V86.0264C245.431 86.417 246.256 86.7246 247.135 86.9492C248.023 87.1738 248.878 87.2861 249.698 87.2861C250.968 87.2861 251.944 87.0859 252.628 86.6855C253.312 86.2754 253.653 85.6553 253.653 84.8252C253.653 84.2002 253.38 83.668 252.833 83.2285C252.296 82.7793 251.241 82.252 249.669 81.6465C248.175 81.0898 247.11 80.6064 246.476 80.1963C245.851 79.7764 245.382 79.3027 245.069 78.7754C244.767 78.248 244.615 77.6182 244.615 76.8857C244.615 75.5771 245.147 74.5469 246.212 73.7949C247.276 73.0332 248.736 72.6523 250.592 72.6523C252.32 72.6523 254.01 73.0039 255.66 73.707L254.796 75.6846C253.185 75.0205 251.725 74.6885 250.416 74.6885C249.264 74.6885 248.395 74.8691 247.809 75.2305C247.223 75.5918 246.93 76.0898 246.93 76.7246C246.93 77.1543 247.037 77.5205 247.252 77.8232C247.477 78.126 247.833 78.4141 248.321 78.6875C248.81 78.9609 249.747 79.3564 251.134 79.874C253.038 80.5674 254.322 81.2656 254.986 81.9688C255.66 82.6719 255.997 83.5557 255.997 84.6201ZM266.749 89.293C264.376 89.293 262.501 88.5703 261.124 87.125C259.757 85.6797 259.073 83.6729 259.073 81.1045C259.073 78.5166 259.708 76.4609 260.978 74.9375C262.257 73.4141 263.971 72.6523 266.119 72.6523C268.131 72.6523 269.723 73.3164 270.895 74.6445C272.066 75.9629 272.652 77.7061 272.652 79.874V81.4121H261.593C261.642 83.2969 262.115 84.7275 263.014 85.7041C263.922 86.6807 265.196 87.1689 266.837 87.1689C268.565 87.1689 270.274 86.8076 271.964 86.085V88.2529C271.104 88.624 270.289 88.8877 269.518 89.0439C268.756 89.21 267.833 89.293 266.749 89.293ZM266.09 74.6885C264.801 74.6885 263.771 75.1084 262.999 75.9482C262.237 76.7881 261.788 77.9502 261.651 79.4346H270.045C270.045 77.9014 269.703 76.7295 269.02 75.9189C268.336 75.0986 267.359 74.6885 266.09 74.6885ZM279.244 89H276.812V66.207H279.244V89ZM291.637 74.835H287.55V89H285.118V74.835H282.247V73.7363L285.118 72.8574V71.9639C285.118 68.0186 286.842 66.0459 290.289 66.0459C291.139 66.0459 292.135 66.2168 293.277 66.5586L292.647 68.5068C291.71 68.2041 290.909 68.0527 290.245 68.0527C289.327 68.0527 288.648 68.3604 288.209 68.9756C287.77 69.5811 287.55 70.5576 287.55 71.9053V72.9453H291.637V74.835ZM293.219 82.0713V79.8447H300.411V82.0713H293.219ZM306.666 89H304.234V66.207H306.666V89ZM318.604 89.293C316.231 89.293 314.356 88.5703 312.979 87.125C311.612 85.6797 310.929 83.6729 310.929 81.1045C310.929 78.5166 311.563 76.4609 312.833 74.9375C314.112 73.4141 315.826 72.6523 317.975 72.6523C319.986 72.6523 321.578 73.3164 322.75 74.6445C323.922 75.9629 324.508 77.7061 324.508 79.874V81.4121H313.448C313.497 83.2969 313.971 84.7275 314.869 85.7041C315.777 86.6807 317.052 87.1689 318.692 87.1689C320.421 87.1689 322.13 86.8076 323.819 86.085V88.2529C322.96 88.624 322.145 88.8877 321.373 89.0439C320.611 89.21 319.688 89.293 318.604 89.293ZM317.945 74.6885C316.656 74.6885 315.626 75.1084 314.854 75.9482C314.093 76.7881 313.644 77.9502 313.507 79.4346H321.9C321.9 77.9014 321.559 76.7295 320.875 75.9189C320.191 75.0986 319.215 74.6885 317.945 74.6885ZM339.596 86.8467H339.464C338.341 88.4775 336.661 89.293 334.425 89.293C332.325 89.293 330.689 88.5752 329.518 87.1396C328.355 85.7041 327.774 83.6631 327.774 81.0166C327.774 78.3701 328.36 76.3145 329.532 74.8496C330.704 73.3848 332.335 72.6523 334.425 72.6523C336.603 72.6523 338.272 73.4434 339.435 75.0254H339.625L339.522 73.8682L339.464 72.7402V66.207H341.896V89H339.918L339.596 86.8467ZM334.732 87.2568C336.393 87.2568 337.594 86.8076 338.336 85.9092C339.088 85.001 339.464 83.541 339.464 81.5293V81.0166C339.464 78.7412 339.083 77.1201 338.321 76.1533C337.569 75.1768 336.363 74.6885 334.703 74.6885C333.277 74.6885 332.184 75.2451 331.422 76.3584C330.67 77.4619 330.294 79.0244 330.294 81.0459C330.294 83.0967 330.67 84.6445 331.422 85.6895C332.174 86.7344 333.277 87.2568 334.732 87.2568ZM357.291 89H354.859V66.207H357.291V89ZM369.229 89.293C366.856 89.293 364.981 88.5703 363.604 87.125C362.237 85.6797 361.554 83.6729 361.554 81.1045C361.554 78.5166 362.188 76.4609 363.458 74.9375C364.737 73.4141 366.451 72.6523 368.6 72.6523C370.611 72.6523 372.203 73.3164 373.375 74.6445C374.547 75.9629 375.133 77.7061 375.133 79.874V81.4121H364.073C364.122 83.2969 364.596 84.7275 365.494 85.7041C366.402 86.6807 367.677 87.1689 369.317 87.1689C371.046 87.1689 372.755 86.8076 374.444 86.085V88.2529C373.585 88.624 372.77 88.8877 371.998 89.0439C371.236 89.21 370.313 89.293 369.229 89.293ZM368.57 74.6885C367.281 74.6885 366.251 75.1084 365.479 75.9482C364.718 76.7881 364.269 77.9502 364.132 79.4346H372.525C372.525 77.9014 372.184 76.7295 371.5 75.9189C370.816 75.0986 369.84 74.6885 368.57 74.6885ZM389.166 89L388.683 86.7148H388.565C387.765 87.7207 386.964 88.4043 386.163 88.7656C385.372 89.1172 384.381 89.293 383.189 89.293C381.598 89.293 380.348 88.8828 379.439 88.0625C378.541 87.2422 378.092 86.0752 378.092 84.5615C378.092 81.3193 380.685 79.6201 385.87 79.4639L388.595 79.376V78.3799C388.595 77.1201 388.321 76.1924 387.774 75.5967C387.237 74.9912 386.373 74.6885 385.182 74.6885C383.844 74.6885 382.33 75.0986 380.641 75.9189L379.894 74.0586C380.685 73.6289 381.549 73.292 382.486 73.0479C383.434 72.8037 384.381 72.6816 385.328 72.6816C387.242 72.6816 388.658 73.1064 389.576 73.9561C390.504 74.8057 390.968 76.168 390.968 78.043V89H389.166ZM383.673 87.2861C385.187 87.2861 386.373 86.8711 387.232 86.041C388.102 85.2109 388.536 84.0488 388.536 82.5547V81.1045L386.104 81.207C384.171 81.2754 382.774 81.5781 381.915 82.1152C381.065 82.6426 380.641 83.4678 380.641 84.5908C380.641 85.4697 380.904 86.1387 381.432 86.5977C381.969 87.0566 382.716 87.2861 383.673 87.2861ZM403.316 72.6523C404.029 72.6523 404.669 72.7109 405.235 72.8281L404.898 75.084C404.234 74.9375 403.648 74.8643 403.141 74.8643C401.842 74.8643 400.729 75.3916 399.801 76.4463C398.883 77.501 398.424 78.8145 398.424 80.3867V89H395.992V72.9453H397.999L398.277 75.9189H398.395C398.99 74.874 399.708 74.0684 400.548 73.502C401.388 72.9355 402.311 72.6523 403.316 72.6523ZM419.225 89V78.6143C419.225 77.3057 418.927 76.3291 418.331 75.6846C417.735 75.04 416.803 74.7178 415.533 74.7178C413.854 74.7178 412.623 75.1719 411.842 76.0801C411.061 76.9883 410.67 78.4873 410.67 80.5771V89H408.238V72.9453H410.216L410.611 75.1426H410.729C411.227 74.3516 411.925 73.7412 412.823 73.3115C413.722 72.8721 414.723 72.6523 415.826 72.6523C417.76 72.6523 419.215 73.1211 420.191 74.0586C421.168 74.9863 421.656 76.4756 421.656 78.5264V89H419.225ZM429.098 89H426.666V72.9453H429.098V89ZM426.461 68.5947C426.461 68.0381 426.598 67.6328 426.871 67.3789C427.145 67.1152 427.486 66.9834 427.896 66.9834C428.287 66.9834 428.624 67.1152 428.907 67.3789C429.19 67.6426 429.332 68.0479 429.332 68.5947C429.332 69.1416 429.19 69.5518 428.907 69.8252C428.624 70.0889 428.287 70.2207 427.896 70.2207C427.486 70.2207 427.145 70.0889 426.871 69.8252C426.598 69.5518 426.461 69.1416 426.461 68.5947ZM445.24 89V78.6143C445.24 77.3057 444.942 76.3291 444.347 75.6846C443.751 75.04 442.818 74.7178 441.549 74.7178C439.869 74.7178 438.639 75.1719 437.857 76.0801C437.076 76.9883 436.686 78.4873 436.686 80.5771V89H434.254V72.9453H436.231L436.627 75.1426H436.744C437.242 74.3516 437.94 73.7412 438.839 73.3115C439.737 72.8721 440.738 72.6523 441.842 72.6523C443.775 72.6523 445.23 73.1211 446.207 74.0586C447.184 74.9863 447.672 76.4756 447.672 78.5264V89H445.24ZM465.821 72.9453V74.4834L462.848 74.835C463.121 75.1768 463.365 75.626 463.58 76.1826C463.795 76.7295 463.902 77.3496 463.902 78.043C463.902 79.6152 463.365 80.8701 462.291 81.8076C461.217 82.7451 459.742 83.2139 457.867 83.2139C457.389 83.2139 456.939 83.1748 456.52 83.0967C455.484 83.6436 454.967 84.332 454.967 85.1621C454.967 85.6016 455.147 85.9287 455.509 86.1436C455.87 86.3486 456.49 86.4512 457.369 86.4512H460.211C461.949 86.4512 463.282 86.8174 464.21 87.5498C465.147 88.2822 465.616 89.3467 465.616 90.7432C465.616 92.5205 464.903 93.873 463.478 94.8008C462.052 95.7383 459.972 96.207 457.237 96.207C455.138 96.207 453.517 95.8164 452.374 95.0352C451.241 94.2539 450.675 93.1504 450.675 91.7246C450.675 90.748 450.987 89.9033 451.612 89.1904C452.237 88.4775 453.116 87.9941 454.249 87.7402C453.839 87.5547 453.492 87.2666 453.209 86.876C452.936 86.4854 452.799 86.0312 452.799 85.5137C452.799 84.9277 452.955 84.415 453.268 83.9756C453.58 83.5361 454.073 83.1113 454.747 82.7012C453.917 82.3594 453.238 81.7783 452.711 80.958C452.193 80.1377 451.935 79.2002 451.935 78.1455C451.935 76.3877 452.462 75.0352 453.517 74.0879C454.571 73.1309 456.065 72.6523 457.999 72.6523C458.839 72.6523 459.596 72.75 460.27 72.9453H465.821ZM453.019 91.6953C453.019 92.5645 453.385 93.2236 454.117 93.6729C454.85 94.1221 455.899 94.3467 457.267 94.3467C459.308 94.3467 460.816 94.0391 461.793 93.4238C462.779 92.8184 463.272 91.9932 463.272 90.9482C463.272 90.0791 463.004 89.4736 462.467 89.1318C461.93 88.7998 460.919 88.6338 459.435 88.6338H456.52C455.416 88.6338 454.557 88.8975 453.941 89.4248C453.326 89.9521 453.019 90.709 453.019 91.6953ZM454.337 78.0869C454.337 79.21 454.654 80.0596 455.289 80.6357C455.924 81.2119 456.808 81.5 457.94 81.5C460.313 81.5 461.5 80.3477 461.5 78.043C461.5 75.6309 460.299 74.4248 457.896 74.4248C456.754 74.4248 455.875 74.7324 455.26 75.3477C454.645 75.9629 454.337 76.876 454.337 78.0869Z" fill="black"/>
</svg>
